<svg width="529" height="246" viewBox="0 0 529 246" fill="none" xmlns="http://www.w3.org/2000/svg">
<path d="M94.2891 159H59.8711V153.129L76.9219 134.531C79.3828 131.789 81.1289 129.504 82.1602 127.676C83.2148 125.824 83.7422 123.973 83.7422 122.121C83.7422 119.684 83.0508 117.715 81.668 116.215C80.3086 114.715 78.4688 113.965 76.1484 113.965C73.3828 113.965 71.2383 114.809 69.7148 116.496C68.1914 118.184 67.4297 120.492 67.4297 123.422H58.8867C58.8867 120.305 59.5898 117.504 60.9961 115.02C62.4258 112.512 64.4531 110.566 67.0781 109.184C69.7266 107.801 72.7734 107.109 76.2188 107.109C81.1875 107.109 85.1016 108.363 87.9609 110.871C90.8438 113.355 92.2852 116.801 92.2852 121.207C92.2852 123.762 91.5586 126.445 90.1055 129.258C88.6758 132.047 86.3203 135.223 83.0391 138.785L70.5234 152.18H94.2891V159Z" fill="black"/>
<path d="M168 144C167.744 144 167.488 143.902 167.293 143.707C166.902 143.316 166.902 142.684 167.293 142.293L179.293 130.293C179.684 129.902 180.316 129.902 180.707 130.293C181.098 130.684 181.098 131.316 180.707 131.707L168.707 143.707C168.512 143.902 168.256 144 168 144Z" fill="#333B41"/>
<path d="M180 144C179.744 144 179.488 143.902 179.293 143.707L167.293 131.707C166.902 131.316 166.902 130.684 167.293 130.293C167.684 129.902 168.316 129.902 168.707 130.293L180.707 142.293C181.098 142.684 181.098 143.316 180.707 143.707C180.512 143.902 180.256 144 180 144Z" fill="#333B41"/>
<path d="M8.60938 188.773V190H2.58594V188.773H8.60938ZM2.89062 178.625V190H1.38281V178.625H2.89062ZM7.8125 183.516V184.742H2.58594V183.516H7.8125ZM8.53125 178.625V179.859H2.58594V178.625H8.53125ZM15.2422 188.555V184.203C15.2422 183.87 15.1745 183.581 15.0391 183.336C14.9089 183.086 14.7109 182.893 14.4453 182.758C14.1797 182.622 13.8516 182.555 13.4609 182.555C13.0964 182.555 12.776 182.617 12.5 182.742C12.2292 182.867 12.0156 183.031 11.8594 183.234C11.7083 183.438 11.6328 183.656 11.6328 183.891H10.1875C10.1875 183.589 10.2656 183.289 10.4219 182.992C10.5781 182.695 10.8021 182.427 11.0938 182.188C11.3906 181.943 11.7448 181.75 12.1562 181.609C12.5729 181.464 13.0365 181.391 13.5469 181.391C14.1615 181.391 14.7031 181.495 15.1719 181.703C15.6458 181.911 16.0156 182.227 16.2812 182.648C16.5521 183.065 16.6875 183.589 16.6875 184.219V188.156C16.6875 188.438 16.7109 188.737 16.7578 189.055C16.8099 189.372 16.8854 189.646 16.9844 189.875V190H15.4766C15.4036 189.833 15.3464 189.612 15.3047 189.336C15.263 189.055 15.2422 188.794 15.2422 188.555ZM15.4922 184.875L15.5078 185.891H14.0469C13.6354 185.891 13.2682 185.924 12.9453 185.992C12.6224 186.055 12.3516 186.151 12.1328 186.281C11.9141 186.411 11.7474 186.576 11.6328 186.773C11.5182 186.966 11.4609 187.193 11.4609 187.453C11.4609 187.719 11.5208 187.961 11.6406 188.18C11.7604 188.398 11.9401 188.573 12.1797 188.703C12.4245 188.828 12.724 188.891 13.0781 188.891C13.5208 188.891 13.9115 188.797 14.25 188.609C14.5885 188.422 14.8568 188.193 15.0547 187.922C15.2578 187.651 15.3672 187.388 15.3828 187.133L16 187.828C15.9635 188.047 15.8646 188.289 15.7031 188.555C15.5417 188.82 15.3255 189.076 15.0547 189.32C14.7891 189.56 14.4714 189.76 14.1016 189.922C13.737 190.078 13.3255 190.156 12.8672 190.156C12.2943 190.156 11.7917 190.044 11.3594 189.82C10.9323 189.596 10.599 189.297 10.3594 188.922C10.125 188.542 10.0078 188.117 10.0078 187.648C10.0078 187.195 10.0964 186.797 10.2734 186.453C10.4505 186.104 10.7057 185.815 11.0391 185.586C11.3724 185.352 11.7734 185.174 12.2422 185.055C12.7109 184.935 13.2344 184.875 13.8125 184.875H15.4922ZM24.4375 181.547H25.75V189.82C25.75 190.565 25.599 191.201 25.2969 191.727C24.9948 192.253 24.5729 192.651 24.0312 192.922C23.4948 193.198 22.875 193.336 22.1719 193.336C21.8802 193.336 21.5365 193.289 21.1406 193.195C20.75 193.107 20.3646 192.953 19.9844 192.734C19.6094 192.521 19.2943 192.232 19.0391 191.867L19.7969 191.008C20.151 191.435 20.5208 191.732 20.9062 191.898C21.2969 192.065 21.6823 192.148 22.0625 192.148C22.5208 192.148 22.9167 192.062 23.25 191.891C23.5833 191.719 23.8411 191.464 24.0234 191.125C24.2109 190.792 24.3047 190.38 24.3047 189.891V183.406L24.4375 181.547ZM18.6172 185.867V185.703C18.6172 185.057 18.6927 184.471 18.8438 183.945C19 183.414 19.2214 182.958 19.5078 182.578C19.7995 182.198 20.151 181.906 20.5625 181.703C20.974 181.495 21.4375 181.391 21.9531 181.391C22.4844 181.391 22.9479 181.484 23.3438 181.672C23.7448 181.854 24.0833 182.122 24.3594 182.477C24.6406 182.826 24.862 183.247 25.0234 183.742C25.1849 184.237 25.2969 184.797 25.3594 185.422V186.141C25.3021 186.76 25.1901 187.318 25.0234 187.812C24.862 188.307 24.6406 188.729 24.3594 189.078C24.0833 189.427 23.7448 189.695 23.3438 189.883C22.9427 190.065 22.474 190.156 21.9375 190.156C21.4323 190.156 20.974 190.049 20.5625 189.836C20.1562 189.622 19.8073 189.323 19.5156 188.938C19.224 188.552 19 188.099 18.8438 187.578C18.6927 187.052 18.6172 186.482 18.6172 185.867ZM20.0625 185.703V185.867C20.0625 186.289 20.1042 186.685 20.1875 187.055C20.276 187.424 20.4089 187.75 20.5859 188.031C20.7682 188.312 21 188.534 21.2812 188.695C21.5625 188.852 21.8984 188.93 22.2891 188.93C22.7682 188.93 23.1641 188.828 23.4766 188.625C23.7891 188.422 24.0365 188.154 24.2188 187.82C24.4062 187.487 24.5521 187.125 24.6562 186.734V184.852C24.599 184.565 24.5104 184.289 24.3906 184.023C24.276 183.753 24.125 183.513 23.9375 183.305C23.7552 183.091 23.5286 182.922 23.2578 182.797C22.987 182.672 22.6693 182.609 22.3047 182.609C21.9089 182.609 21.5677 182.693 21.2812 182.859C21 183.021 20.7682 183.245 20.5859 183.531C20.4089 183.812 20.276 184.141 20.1875 184.516C20.1042 184.885 20.0625 185.281 20.0625 185.703ZM29.5156 178V190H28.0625V178H29.5156ZM35.3438 190.156C34.7552 190.156 34.2214 190.057 33.7422 189.859C33.2682 189.656 32.8594 189.372 32.5156 189.008C32.1771 188.643 31.9167 188.211 31.7344 187.711C31.5521 187.211 31.4609 186.664 31.4609 186.07V185.742C31.4609 185.055 31.5625 184.443 31.7656 183.906C31.9688 183.365 32.2448 182.906 32.5938 182.531C32.9427 182.156 33.3385 181.872 33.7812 181.68C34.224 181.487 34.6823 181.391 35.1562 181.391C35.7604 181.391 36.2812 181.495 36.7188 181.703C37.1615 181.911 37.5234 182.203 37.8047 182.578C38.0859 182.948 38.2943 183.385 38.4297 183.891C38.5651 184.391 38.6328 184.938 38.6328 185.531V186.18H32.3203V185H37.1875V184.891C37.1667 184.516 37.0885 184.151 36.9531 183.797C36.8229 183.443 36.6146 183.151 36.3281 182.922C36.0417 182.693 35.651 182.578 35.1562 182.578C34.8281 182.578 34.526 182.648 34.25 182.789C33.974 182.924 33.737 183.128 33.5391 183.398C33.3411 183.669 33.1875 184 33.0781 184.391C32.9688 184.781 32.9141 185.232 32.9141 185.742V186.07C32.9141 186.471 32.9688 186.849 33.0781 187.203C33.1927 187.552 33.3568 187.859 33.5703 188.125C33.7891 188.391 34.0521 188.599 34.3594 188.75C34.6719 188.901 35.026 188.977 35.4219 188.977C35.9323 188.977 36.3646 188.872 36.7188 188.664C37.0729 188.456 37.3828 188.177 37.6484 187.828L38.5234 188.523C38.3411 188.799 38.1094 189.062 37.8281 189.312C37.5469 189.562 37.2005 189.766 36.7891 189.922C36.3828 190.078 35.901 190.156 35.3438 190.156ZM49.6172 188.359V178H51.0703V190H49.7422L49.6172 188.359ZM43.9297 185.867V185.703C43.9297 185.057 44.0078 184.471 44.1641 183.945C44.3255 183.414 44.5521 182.958 44.8438 182.578C45.1406 182.198 45.4922 181.906 45.8984 181.703C46.3099 181.495 46.7682 181.391 47.2734 181.391C47.8047 181.391 48.2682 181.484 48.6641 181.672C49.0651 181.854 49.4036 182.122 49.6797 182.477C49.9609 182.826 50.1823 183.247 50.3438 183.742C50.5052 184.237 50.6172 184.797 50.6797 185.422V186.141C50.6224 186.76 50.5104 187.318 50.3438 187.812C50.1823 188.307 49.9609 188.729 49.6797 189.078C49.4036 189.427 49.0651 189.695 48.6641 189.883C48.263 190.065 47.7943 190.156 47.2578 190.156C46.763 190.156 46.3099 190.049 45.8984 189.836C45.4922 189.622 45.1406 189.323 44.8438 188.938C44.5521 188.552 44.3255 188.099 44.1641 187.578C44.0078 187.052 43.9297 186.482 43.9297 185.867ZM45.3828 185.703V185.867C45.3828 186.289 45.4245 186.685 45.5078 187.055C45.5964 187.424 45.7318 187.75 45.9141 188.031C46.0964 188.312 46.3281 188.534 46.6094 188.695C46.8906 188.852 47.2266 188.93 47.6172 188.93C48.0964 188.93 48.4896 188.828 48.7969 188.625C49.1094 188.422 49.3594 188.154 49.5469 187.82C49.7344 187.487 49.8802 187.125 49.9844 186.734V184.852C49.9219 184.565 49.8307 184.289 49.7109 184.023C49.5964 183.753 49.4453 183.513 49.2578 183.305C49.0755 183.091 48.849 182.922 48.5781 182.797C48.3125 182.672 47.9974 182.609 47.6328 182.609C47.237 182.609 46.8958 182.693 46.6094 182.859C46.3281 183.021 46.0964 183.245 45.9141 183.531C45.7318 183.812 45.5964 184.141 45.5078 184.516C45.4245 184.885 45.3828 185.281 45.3828 185.703ZM54.8906 181.547V190H53.4375V181.547H54.8906ZM53.3281 179.305C53.3281 179.07 53.3984 178.872 53.5391 178.711C53.6849 178.549 53.8984 178.469 54.1797 178.469C54.4557 178.469 54.6667 178.549 54.8125 178.711C54.9635 178.872 55.0391 179.07 55.0391 179.305C55.0391 179.529 54.9635 179.721 54.8125 179.883C54.6667 180.039 54.4557 180.117 54.1797 180.117C53.8984 180.117 53.6849 180.039 53.5391 179.883C53.3984 179.721 53.3281 179.529 53.3281 179.305ZM60.7188 190.156C60.1302 190.156 59.5964 190.057 59.1172 189.859C58.6432 189.656 58.2344 189.372 57.8906 189.008C57.5521 188.643 57.2917 188.211 57.1094 187.711C56.9271 187.211 56.8359 186.664 56.8359 186.07V185.742C56.8359 185.055 56.9375 184.443 57.1406 183.906C57.3438 183.365 57.6198 182.906 57.9688 182.531C58.3177 182.156 58.7135 181.872 59.1562 181.68C59.599 181.487 60.0573 181.391 60.5312 181.391C61.1354 181.391 61.6562 181.495 62.0938 181.703C62.5365 181.911 62.8984 182.203 63.1797 182.578C63.4609 182.948 63.6693 183.385 63.8047 183.891C63.9401 184.391 64.0078 184.938 64.0078 185.531V186.18H57.6953V185H62.5625V184.891C62.5417 184.516 62.4635 184.151 62.3281 183.797C62.1979 183.443 61.9896 183.151 61.7031 182.922C61.4167 182.693 61.026 182.578 60.5312 182.578C60.2031 182.578 59.901 182.648 59.625 182.789C59.349 182.924 59.112 183.128 58.9141 183.398C58.7161 183.669 58.5625 184 58.4531 184.391C58.3438 184.781 58.2891 185.232 58.2891 185.742V186.07C58.2891 186.471 58.3438 186.849 58.4531 187.203C58.5677 187.552 58.7318 187.859 58.9453 188.125C59.1641 188.391 59.4271 188.599 59.7344 188.75C60.0469 188.901 60.401 188.977 60.7969 188.977C61.3073 188.977 61.7396 188.872 62.0938 188.664C62.4479 188.456 62.7578 188.177 63.0234 187.828L63.8984 188.523C63.7161 188.799 63.4844 189.062 63.2031 189.312C62.9219 189.562 62.5755 189.766 62.1641 189.922C61.7578 190.078 61.276 190.156 60.7188 190.156ZM69.2344 181.547V182.656H64.6641V181.547H69.2344ZM66.2109 179.492H67.6562V187.906C67.6562 188.193 67.7005 188.409 67.7891 188.555C67.8776 188.701 67.9922 188.797 68.1328 188.844C68.2734 188.891 68.4245 188.914 68.5859 188.914C68.7057 188.914 68.8307 188.904 68.9609 188.883C69.0964 188.857 69.1979 188.836 69.2656 188.82L69.2734 190C69.1589 190.036 69.0078 190.07 68.8203 190.102C68.638 190.138 68.4167 190.156 68.1562 190.156C67.8021 190.156 67.4766 190.086 67.1797 189.945C66.8828 189.805 66.6458 189.57 66.4688 189.242C66.2969 188.909 66.2109 188.461 66.2109 187.898V179.492ZM77.0547 190H75.6094V180.656C75.6094 180.047 75.7188 179.534 75.9375 179.117C76.1615 178.695 76.4818 178.378 76.8984 178.164C77.3151 177.945 77.8099 177.836 78.3828 177.836C78.5495 177.836 78.7161 177.846 78.8828 177.867C79.0547 177.888 79.2214 177.919 79.3828 177.961L79.3047 179.141C79.1953 179.115 79.0703 179.096 78.9297 179.086C78.7943 179.076 78.6589 179.07 78.5234 179.07C78.2161 179.07 77.9505 179.133 77.7266 179.258C77.5078 179.378 77.3411 179.555 77.2266 179.789C77.112 180.023 77.0547 180.312 77.0547 180.656V190ZM78.8516 181.547V182.656H74.2734V181.547H78.8516ZM80.0781 185.867V185.688C80.0781 185.078 80.1667 184.513 80.3438 183.992C80.5208 183.466 80.776 183.01 81.1094 182.625C81.4427 182.234 81.8464 181.932 82.3203 181.719C82.7943 181.5 83.3255 181.391 83.9141 181.391C84.5078 181.391 85.0417 181.5 85.5156 181.719C85.9948 181.932 86.401 182.234 86.7344 182.625C87.0729 183.01 87.3307 183.466 87.5078 183.992C87.6849 184.513 87.7734 185.078 87.7734 185.688V185.867C87.7734 186.477 87.6849 187.042 87.5078 187.562C87.3307 188.083 87.0729 188.539 86.7344 188.93C86.401 189.315 85.9974 189.617 85.5234 189.836C85.0547 190.049 84.5234 190.156 83.9297 190.156C83.3359 190.156 82.8021 190.049 82.3281 189.836C81.8542 189.617 81.4479 189.315 81.1094 188.93C80.776 188.539 80.5208 188.083 80.3438 187.562C80.1667 187.042 80.0781 186.477 80.0781 185.867ZM81.5234 185.688V185.867C81.5234 186.289 81.5729 186.688 81.6719 187.062C81.7708 187.432 81.9193 187.76 82.1172 188.047C82.3203 188.333 82.5729 188.56 82.875 188.727C83.1771 188.888 83.5286 188.969 83.9297 188.969C84.3255 188.969 84.6719 188.888 84.9688 188.727C85.2708 188.56 85.5208 188.333 85.7188 188.047C85.9167 187.76 86.0651 187.432 86.1641 187.062C86.2682 186.688 86.3203 186.289 86.3203 185.867V185.688C86.3203 185.271 86.2682 184.878 86.1641 184.508C86.0651 184.133 85.9141 183.802 85.7109 183.516C85.513 183.224 85.263 182.995 84.9609 182.828C84.6641 182.661 84.3151 182.578 83.9141 182.578C83.5182 182.578 83.1693 182.661 82.8672 182.828C82.5703 182.995 82.3203 183.224 82.1172 183.516C81.9193 183.802 81.7708 184.133 81.6719 184.508C81.5729 184.878 81.5234 185.271 81.5234 185.688ZM91.0312 182.875V190H89.5859V181.547H90.9922L91.0312 182.875ZM93.6719 181.5L93.6641 182.844C93.5443 182.818 93.4297 182.802 93.3203 182.797C93.2161 182.786 93.0964 182.781 92.9609 182.781C92.6276 182.781 92.3333 182.833 92.0781 182.938C91.8229 183.042 91.6068 183.188 91.4297 183.375C91.2526 183.562 91.112 183.786 91.0078 184.047C90.9089 184.302 90.8438 184.583 90.8125 184.891L90.4062 185.125C90.4062 184.615 90.4557 184.135 90.5547 183.688C90.6589 183.24 90.8177 182.844 91.0312 182.5C91.2448 182.151 91.5156 181.88 91.8438 181.688C92.1771 181.49 92.5729 181.391 93.0312 181.391C93.1354 181.391 93.2552 181.404 93.3906 181.43C93.526 181.451 93.6198 181.474 93.6719 181.5ZM102.516 181.547V182.656H97.9453V181.547H102.516ZM99.4922 179.492H100.938V187.906C100.938 188.193 100.982 188.409 101.07 188.555C101.159 188.701 101.273 188.797 101.414 188.844C101.555 188.891 101.706 188.914 101.867 188.914C101.987 188.914 102.112 188.904 102.242 188.883C102.378 188.857 102.479 188.836 102.547 188.82L102.555 190C102.44 190.036 102.289 190.07 102.102 190.102C101.919 190.138 101.698 190.156 101.438 190.156C101.083 190.156 100.758 190.086 100.461 189.945C100.164 189.805 99.9271 189.57 99.75 189.242C99.5781 188.909 99.4922 188.461 99.4922 187.898V179.492ZM105.656 178V190H104.211V178H105.656ZM105.312 185.453L104.711 185.43C104.716 184.852 104.802 184.318 104.969 183.828C105.135 183.333 105.37 182.904 105.672 182.539C105.974 182.174 106.333 181.893 106.75 181.695C107.172 181.492 107.638 181.391 108.148 181.391C108.565 181.391 108.94 181.448 109.273 181.562C109.607 181.672 109.891 181.849 110.125 182.094C110.365 182.339 110.547 182.656 110.672 183.047C110.797 183.432 110.859 183.904 110.859 184.461V190H109.406V184.445C109.406 184.003 109.341 183.648 109.211 183.383C109.081 183.112 108.891 182.917 108.641 182.797C108.391 182.672 108.083 182.609 107.719 182.609C107.359 182.609 107.031 182.685 106.734 182.836C106.443 182.987 106.19 183.195 105.977 183.461C105.768 183.727 105.604 184.031 105.484 184.375C105.37 184.714 105.312 185.073 105.312 185.453ZM116.531 190.156C115.943 190.156 115.409 190.057 114.93 189.859C114.456 189.656 114.047 189.372 113.703 189.008C113.365 188.643 113.104 188.211 112.922 187.711C112.74 187.211 112.648 186.664 112.648 186.07V185.742C112.648 185.055 112.75 184.443 112.953 183.906C113.156 183.365 113.432 182.906 113.781 182.531C114.13 182.156 114.526 181.872 114.969 181.68C115.411 181.487 115.87 181.391 116.344 181.391C116.948 181.391 117.469 181.495 117.906 181.703C118.349 181.911 118.711 182.203 118.992 182.578C119.273 182.948 119.482 183.385 119.617 183.891C119.753 184.391 119.82 184.938 119.82 185.531V186.18H113.508V185H118.375V184.891C118.354 184.516 118.276 184.151 118.141 183.797C118.01 183.443 117.802 183.151 117.516 182.922C117.229 182.693 116.839 182.578 116.344 182.578C116.016 182.578 115.714 182.648 115.438 182.789C115.161 182.924 114.924 183.128 114.727 183.398C114.529 183.669 114.375 184 114.266 184.391C114.156 184.781 114.102 185.232 114.102 185.742V186.07C114.102 186.471 114.156 186.849 114.266 187.203C114.38 187.552 114.544 187.859 114.758 188.125C114.977 188.391 115.24 188.599 115.547 188.75C115.859 188.901 116.214 188.977 116.609 188.977C117.12 188.977 117.552 188.872 117.906 188.664C118.26 188.456 118.57 188.177 118.836 187.828L119.711 188.523C119.529 188.799 119.297 189.062 119.016 189.312C118.734 189.562 118.388 189.766 117.977 189.922C117.57 190.078 117.089 190.156 116.531 190.156ZM130.805 188.359V178H132.258V190H130.93L130.805 188.359ZM125.117 185.867V185.703C125.117 185.057 125.195 184.471 125.352 183.945C125.513 183.414 125.74 182.958 126.031 182.578C126.328 182.198 126.68 181.906 127.086 181.703C127.497 181.495 127.956 181.391 128.461 181.391C128.992 181.391 129.456 181.484 129.852 181.672C130.253 181.854 130.591 182.122 130.867 182.477C131.148 182.826 131.37 183.247 131.531 183.742C131.693 184.237 131.805 184.797 131.867 185.422V186.141C131.81 186.76 131.698 187.318 131.531 187.812C131.37 188.307 131.148 188.729 130.867 189.078C130.591 189.427 130.253 189.695 129.852 189.883C129.451 190.065 128.982 190.156 128.445 190.156C127.951 190.156 127.497 190.049 127.086 189.836C126.68 189.622 126.328 189.323 126.031 188.938C125.74 188.552 125.513 188.099 125.352 187.578C125.195 187.052 125.117 186.482 125.117 185.867ZM126.57 185.703V185.867C126.57 186.289 126.612 186.685 126.695 187.055C126.784 187.424 126.919 187.75 127.102 188.031C127.284 188.312 127.516 188.534 127.797 188.695C128.078 188.852 128.414 188.93 128.805 188.93C129.284 188.93 129.677 188.828 129.984 188.625C130.297 188.422 130.547 188.154 130.734 187.82C130.922 187.487 131.068 187.125 131.172 186.734V184.852C131.109 184.565 131.018 184.289 130.898 184.023C130.784 183.753 130.633 183.513 130.445 183.305C130.263 183.091 130.036 182.922 129.766 182.797C129.5 182.672 129.185 182.609 128.82 182.609C128.424 182.609 128.083 182.693 127.797 182.859C127.516 183.021 127.284 183.245 127.102 183.531C126.919 183.812 126.784 184.141 126.695 184.516C126.612 184.885 126.57 185.281 126.57 185.703ZM139.492 188.555V184.203C139.492 183.87 139.424 183.581 139.289 183.336C139.159 183.086 138.961 182.893 138.695 182.758C138.43 182.622 138.102 182.555 137.711 182.555C137.346 182.555 137.026 182.617 136.75 182.742C136.479 182.867 136.266 183.031 136.109 183.234C135.958 183.438 135.883 183.656 135.883 183.891H134.438C134.438 183.589 134.516 183.289 134.672 182.992C134.828 182.695 135.052 182.427 135.344 182.188C135.641 181.943 135.995 181.75 136.406 181.609C136.823 181.464 137.286 181.391 137.797 181.391C138.411 181.391 138.953 181.495 139.422 181.703C139.896 181.911 140.266 182.227 140.531 182.648C140.802 183.065 140.938 183.589 140.938 184.219V188.156C140.938 188.438 140.961 188.737 141.008 189.055C141.06 189.372 141.135 189.646 141.234 189.875V190H139.727C139.654 189.833 139.596 189.612 139.555 189.336C139.513 189.055 139.492 188.794 139.492 188.555ZM139.742 184.875L139.758 185.891H138.297C137.885 185.891 137.518 185.924 137.195 185.992C136.872 186.055 136.602 186.151 136.383 186.281C136.164 186.411 135.997 186.576 135.883 186.773C135.768 186.966 135.711 187.193 135.711 187.453C135.711 187.719 135.771 187.961 135.891 188.18C136.01 188.398 136.19 188.573 136.43 188.703C136.674 188.828 136.974 188.891 137.328 188.891C137.771 188.891 138.161 188.797 138.5 188.609C138.839 188.422 139.107 188.193 139.305 187.922C139.508 187.651 139.617 187.388 139.633 187.133L140.25 187.828C140.214 188.047 140.115 188.289 139.953 188.555C139.792 188.82 139.576 189.076 139.305 189.32C139.039 189.56 138.721 189.76 138.352 189.922C137.987 190.078 137.576 190.156 137.117 190.156C136.544 190.156 136.042 190.044 135.609 189.82C135.182 189.596 134.849 189.297 134.609 188.922C134.375 188.542 134.258 188.117 134.258 187.648C134.258 187.195 134.346 186.797 134.523 186.453C134.701 186.104 134.956 185.815 135.289 185.586C135.622 185.352 136.023 185.174 136.492 185.055C136.961 184.935 137.484 184.875 138.062 184.875H139.742ZM145.461 189.125L147.812 181.547H149.359L145.969 191.305C145.891 191.513 145.786 191.737 145.656 191.977C145.531 192.221 145.37 192.453 145.172 192.672C144.974 192.891 144.734 193.068 144.453 193.203C144.177 193.344 143.846 193.414 143.461 193.414C143.346 193.414 143.201 193.398 143.023 193.367C142.846 193.336 142.721 193.31 142.648 193.289L142.641 192.117C142.682 192.122 142.747 192.128 142.836 192.133C142.93 192.143 142.995 192.148 143.031 192.148C143.359 192.148 143.638 192.104 143.867 192.016C144.096 191.932 144.289 191.789 144.445 191.586C144.607 191.388 144.745 191.115 144.859 190.766L145.461 189.125ZM143.734 181.547L145.93 188.109L146.305 189.633L145.266 190.164L142.156 181.547H143.734ZM149.844 189.234C149.844 188.99 149.919 188.784 150.07 188.617C150.227 188.445 150.451 188.359 150.742 188.359C151.034 188.359 151.255 188.445 151.406 188.617C151.562 188.784 151.641 188.99 151.641 189.234C151.641 189.474 151.562 189.677 151.406 189.844C151.255 190.01 151.034 190.094 150.742 190.094C150.451 190.094 150.227 190.01 150.07 189.844C149.919 189.677 149.844 189.474 149.844 189.234Z" fill="#333B41"/>
<g clip-path="url(#clip0_34416_679)">
<path d="M337.001 131.298L355.984 61.4721L404.593 29.8421H414.469L463.836 0V9.54835L417.838 36.4055L476.745 13.1293L498.01 13.7278L483.581 27.4531L423.579 46.5498L492.694 34.019L518.516 34.615L495.731 44.1633L434.213 54.9062L498.01 53.7142L526.113 60.2776L498.01 69.23L440.29 65.649L486.617 75.1999L499.53 85.9428L481.302 87.7333L444.847 76.9879L480.54 94.2966L486.617 105.638L451.682 107.428L460.796 113.936L463.836 125.929L452.441 131.298L456.239 141.445L447.125 145.624L447.884 152.786H431.554V160.547H417.838L422.821 166.514L402.318 164.128L422.821 174.269L438.773 183.224L498.01 187.401L506.365 195.755L498.01 200.533L456.239 190.389L502.567 205.309L509.402 211.872H490.413L456.239 200.533L497.251 216.049L502.567 223.216L490.413 226.193L428.139 202.922L409.15 201.728L422.062 219.63L409.912 216.647L417.838 226.193L375.735 223.216L360.544 213.662L358.266 202.922L346.87 178.446L305.099 156.362L315.772 156.532L305.099 148.574L319.829 147.78L309.702 143.403L319.322 142.208L310.715 137.433L322.359 134.648L312.738 127.882L337.001 131.298Z" fill="black"/>
<path d="M336.37 120.19L287.08 107.193L280.667 92.3362L270.54 102.95V110.905L300.247 123.639L334.34 128.678L336.37 120.19Z" fill="black"/>
<path d="M383.628 228.23L375.527 234.063V239.373L376.873 243.35L370.125 240.431V233.538L365.736 240.167L368.098 246L360.676 238.574L368.776 228.23L374.511 227.063L383.628 228.23Z" fill="black"/>
<path d="M364.765 229.556L358.31 232.308L356.28 238.042L360.676 242.653L358.31 238.075L364.765 229.556Z" fill="black"/>
<path d="M363.961 221.456L351.979 229.35L349.616 233.989L345.569 235.234L350.549 226.193L342.103 229.414L339.912 238.564L337.043 233.923L341.939 224.441L335.523 229.016L334.851 236.178L331.556 230.01L339.405 220.396H353.921L358.398 215.757L363.961 221.456Z" fill="black"/>
<path d="M248.598 137.699L254.675 132.921H264.46L264.803 130.266L274.93 126.553H305.098L315.438 133.187L299.234 134.782L313.751 140.149L297.885 142.472L312.74 146.451H299.234L308.69 153.745H299.073L261.601 144.595H251.981L245.907 147.379L248.598 137.699ZM273.581 136.347C274.968 136.347 276.092 135.462 276.092 134.374C276.092 133.281 274.965 132.399 273.581 132.399C272.19 132.399 271.063 133.284 271.063 134.374C271.063 135.462 272.193 136.347 273.581 136.347Z" fill="black"/>
</g>
<defs>
<clipPath id="clip0_34416_679">
<rect width="284" height="246" fill="white" transform="translate(245)"/>
</clipPath>
</defs>
</svg>
