<svg width="532" height="246" viewBox="0 0 532 246" fill="none" xmlns="http://www.w3.org/2000/svg">
<path d="M91.7695 140.754H98.1328V147.609H91.7695V159H83.2266V147.609H61.1133L60.8672 142.406L82.9453 107.812H91.7695V140.754ZM69.832 140.754H83.2266V119.379L82.5938 120.504L69.832 140.754Z" fill="black"/>
<path d="M171 144C170.744 144 170.488 143.902 170.293 143.707C169.902 143.316 169.902 142.684 170.293 142.293L182.293 130.293C182.684 129.902 183.316 129.902 183.707 130.293C184.098 130.684 184.098 131.316 183.707 131.707L171.707 143.707C171.512 143.902 171.256 144 171 144Z" fill="#333B41"/>
<path d="M183 144C182.744 144 182.488 143.902 182.293 143.707L170.293 131.707C169.902 131.316 169.902 130.684 170.293 130.293C170.684 129.902 171.316 129.902 171.707 130.293L183.707 142.293C184.098 142.684 184.098 143.316 183.707 143.707C183.512 143.902 183.256 144 183 144Z" fill="#333B41"/>
<path d="M5.51562 185.539H2.47656V184.312H5.51562C6.10417 184.312 6.58073 184.219 6.94531 184.031C7.3099 183.844 7.57552 183.583 7.74219 183.25C7.91406 182.917 8 182.536 8 182.109C8 181.719 7.91406 181.352 7.74219 181.008C7.57552 180.664 7.3099 180.388 6.94531 180.18C6.58073 179.966 6.10417 179.859 5.51562 179.859H2.82812V190H1.32031V178.625H5.51562C6.375 178.625 7.10156 178.773 7.69531 179.07C8.28906 179.367 8.73958 179.779 9.04688 180.305C9.35417 180.826 9.50781 181.422 9.50781 182.094C9.50781 182.823 9.35417 183.445 9.04688 183.961C8.73958 184.477 8.28906 184.87 7.69531 185.141C7.10156 185.406 6.375 185.539 5.51562 185.539ZM16.0859 188.555V184.203C16.0859 183.87 16.0182 183.581 15.8828 183.336C15.7526 183.086 15.5547 182.893 15.2891 182.758C15.0234 182.622 14.6953 182.555 14.3047 182.555C13.9401 182.555 13.6198 182.617 13.3438 182.742C13.0729 182.867 12.8594 183.031 12.7031 183.234C12.5521 183.438 12.4766 183.656 12.4766 183.891H11.0312C11.0312 183.589 11.1094 183.289 11.2656 182.992C11.4219 182.695 11.6458 182.427 11.9375 182.188C12.2344 181.943 12.5885 181.75 13 181.609C13.4167 181.464 13.8802 181.391 14.3906 181.391C15.0052 181.391 15.5469 181.495 16.0156 181.703C16.4896 181.911 16.8594 182.227 17.125 182.648C17.3958 183.065 17.5312 183.589 17.5312 184.219V188.156C17.5312 188.438 17.5547 188.737 17.6016 189.055C17.6536 189.372 17.7292 189.646 17.8281 189.875V190H16.3203C16.2474 189.833 16.1901 189.612 16.1484 189.336C16.1068 189.055 16.0859 188.794 16.0859 188.555ZM16.3359 184.875L16.3516 185.891H14.8906C14.4792 185.891 14.112 185.924 13.7891 185.992C13.4661 186.055 13.1953 186.151 12.9766 186.281C12.7578 186.411 12.5911 186.576 12.4766 186.773C12.362 186.966 12.3047 187.193 12.3047 187.453C12.3047 187.719 12.3646 187.961 12.4844 188.18C12.6042 188.398 12.7839 188.573 13.0234 188.703C13.2682 188.828 13.5677 188.891 13.9219 188.891C14.3646 188.891 14.7552 188.797 15.0938 188.609C15.4323 188.422 15.7005 188.193 15.8984 187.922C16.1016 187.651 16.2109 187.388 16.2266 187.133L16.8438 187.828C16.8073 188.047 16.7083 188.289 16.5469 188.555C16.3854 188.82 16.1693 189.076 15.8984 189.32C15.6328 189.56 15.3151 189.76 14.9453 189.922C14.5807 190.078 14.1693 190.156 13.7109 190.156C13.138 190.156 12.6354 190.044 12.2031 189.82C11.776 189.596 11.4427 189.297 11.2031 188.922C10.9688 188.542 10.8516 188.117 10.8516 187.648C10.8516 187.195 10.9401 186.797 11.1172 186.453C11.2943 186.104 11.5495 185.815 11.8828 185.586C12.2161 185.352 12.6172 185.174 13.0859 185.055C13.5547 184.935 14.0781 184.875 14.6562 184.875H16.3359ZM21.25 183.352V190H19.8047V181.547H21.1719L21.25 183.352ZM20.9062 185.453L20.3047 185.43C20.3099 184.852 20.3958 184.318 20.5625 183.828C20.7292 183.333 20.9635 182.904 21.2656 182.539C21.5677 182.174 21.9271 181.893 22.3438 181.695C22.7656 181.492 23.2318 181.391 23.7422 181.391C24.1589 181.391 24.5339 181.448 24.8672 181.562C25.2005 181.672 25.4844 181.849 25.7188 182.094C25.9583 182.339 26.1406 182.656 26.2656 183.047C26.3906 183.432 26.4531 183.904 26.4531 184.461V190H25V184.445C25 184.003 24.9349 183.648 24.8047 183.383C24.6745 183.112 24.4844 182.917 24.2344 182.797C23.9844 182.672 23.6771 182.609 23.3125 182.609C22.9531 182.609 22.625 182.685 22.3281 182.836C22.0365 182.987 21.7839 183.195 21.5703 183.461C21.362 183.727 21.1979 184.031 21.0781 184.375C20.9635 184.714 20.9062 185.073 20.9062 185.453ZM33.9766 188.359V178H35.4297V190H34.1016L33.9766 188.359ZM28.2891 185.867V185.703C28.2891 185.057 28.3672 184.471 28.5234 183.945C28.6849 183.414 28.9115 182.958 29.2031 182.578C29.5 182.198 29.8516 181.906 30.2578 181.703C30.6693 181.495 31.1276 181.391 31.6328 181.391C32.1641 181.391 32.6276 181.484 33.0234 181.672C33.4245 181.854 33.763 182.122 34.0391 182.477C34.3203 182.826 34.5417 183.247 34.7031 183.742C34.8646 184.237 34.9766 184.797 35.0391 185.422V186.141C34.9818 186.76 34.8698 187.318 34.7031 187.812C34.5417 188.307 34.3203 188.729 34.0391 189.078C33.763 189.427 33.4245 189.695 33.0234 189.883C32.6224 190.065 32.1536 190.156 31.6172 190.156C31.1224 190.156 30.6693 190.049 30.2578 189.836C29.8516 189.622 29.5 189.323 29.2031 188.938C28.9115 188.552 28.6849 188.099 28.5234 187.578C28.3672 187.052 28.2891 186.482 28.2891 185.867ZM29.7422 185.703V185.867C29.7422 186.289 29.7839 186.685 29.8672 187.055C29.9557 187.424 30.0911 187.75 30.2734 188.031C30.4557 188.312 30.6875 188.534 30.9688 188.695C31.25 188.852 31.5859 188.93 31.9766 188.93C32.4557 188.93 32.849 188.828 33.1562 188.625C33.4688 188.422 33.7188 188.154 33.9062 187.82C34.0938 187.487 34.2396 187.125 34.3438 186.734V184.852C34.2812 184.565 34.1901 184.289 34.0703 184.023C33.9557 183.753 33.8047 183.513 33.6172 183.305C33.4349 183.091 33.2083 182.922 32.9375 182.797C32.6719 182.672 32.3568 182.609 31.9922 182.609C31.5964 182.609 31.2552 182.693 30.9688 182.859C30.6875 183.021 30.4557 183.245 30.2734 183.531C30.0911 183.812 29.9557 184.141 29.8672 184.516C29.7839 184.885 29.7422 185.281 29.7422 185.703ZM42.6641 188.555V184.203C42.6641 183.87 42.5964 183.581 42.4609 183.336C42.3307 183.086 42.1328 182.893 41.8672 182.758C41.6016 182.622 41.2734 182.555 40.8828 182.555C40.5182 182.555 40.1979 182.617 39.9219 182.742C39.651 182.867 39.4375 183.031 39.2812 183.234C39.1302 183.438 39.0547 183.656 39.0547 183.891H37.6094C37.6094 183.589 37.6875 183.289 37.8438 182.992C38 182.695 38.224 182.427 38.5156 182.188C38.8125 181.943 39.1667 181.75 39.5781 181.609C39.9948 181.464 40.4583 181.391 40.9688 181.391C41.5833 181.391 42.125 181.495 42.5938 181.703C43.0677 181.911 43.4375 182.227 43.7031 182.648C43.974 183.065 44.1094 183.589 44.1094 184.219V188.156C44.1094 188.438 44.1328 188.737 44.1797 189.055C44.2318 189.372 44.3073 189.646 44.4062 189.875V190H42.8984C42.8255 189.833 42.7682 189.612 42.7266 189.336C42.6849 189.055 42.6641 188.794 42.6641 188.555ZM42.9141 184.875L42.9297 185.891H41.4688C41.0573 185.891 40.6901 185.924 40.3672 185.992C40.0443 186.055 39.7734 186.151 39.5547 186.281C39.3359 186.411 39.1693 186.576 39.0547 186.773C38.9401 186.966 38.8828 187.193 38.8828 187.453C38.8828 187.719 38.9427 187.961 39.0625 188.18C39.1823 188.398 39.362 188.573 39.6016 188.703C39.8464 188.828 40.1458 188.891 40.5 188.891C40.9427 188.891 41.3333 188.797 41.6719 188.609C42.0104 188.422 42.2786 188.193 42.4766 187.922C42.6797 187.651 42.7891 187.388 42.8047 187.133L43.4219 187.828C43.3854 188.047 43.2865 188.289 43.125 188.555C42.9635 188.82 42.7474 189.076 42.4766 189.32C42.2109 189.56 41.8932 189.76 41.5234 189.922C41.1589 190.078 40.7474 190.156 40.2891 190.156C39.7161 190.156 39.2135 190.044 38.7812 189.82C38.3542 189.596 38.0208 189.297 37.7812 188.922C37.5469 188.542 37.4297 188.117 37.4297 187.648C37.4297 187.195 37.5182 186.797 37.6953 186.453C37.8724 186.104 38.1276 185.815 38.4609 185.586C38.7943 185.352 39.1953 185.174 39.6641 185.055C40.1328 184.935 40.6562 184.875 41.2344 184.875H42.9141ZM55.6797 188.359V178H57.1328V190H55.8047L55.6797 188.359ZM49.9922 185.867V185.703C49.9922 185.057 50.0703 184.471 50.2266 183.945C50.388 183.414 50.6146 182.958 50.9062 182.578C51.2031 182.198 51.5547 181.906 51.9609 181.703C52.3724 181.495 52.8307 181.391 53.3359 181.391C53.8672 181.391 54.3307 181.484 54.7266 181.672C55.1276 181.854 55.4661 182.122 55.7422 182.477C56.0234 182.826 56.2448 183.247 56.4062 183.742C56.5677 184.237 56.6797 184.797 56.7422 185.422V186.141C56.6849 186.76 56.5729 187.318 56.4062 187.812C56.2448 188.307 56.0234 188.729 55.7422 189.078C55.4661 189.427 55.1276 189.695 54.7266 189.883C54.3255 190.065 53.8568 190.156 53.3203 190.156C52.8255 190.156 52.3724 190.049 51.9609 189.836C51.5547 189.622 51.2031 189.323 50.9062 188.938C50.6146 188.552 50.388 188.099 50.2266 187.578C50.0703 187.052 49.9922 186.482 49.9922 185.867ZM51.4453 185.703V185.867C51.4453 186.289 51.487 186.685 51.5703 187.055C51.6589 187.424 51.7943 187.75 51.9766 188.031C52.1589 188.312 52.3906 188.534 52.6719 188.695C52.9531 188.852 53.2891 188.93 53.6797 188.93C54.1589 188.93 54.5521 188.828 54.8594 188.625C55.1719 188.422 55.4219 188.154 55.6094 187.82C55.7969 187.487 55.9427 187.125 56.0469 186.734V184.852C55.9844 184.565 55.8932 184.289 55.7734 184.023C55.6589 183.753 55.5078 183.513 55.3203 183.305C55.138 183.091 54.9115 182.922 54.6406 182.797C54.375 182.672 54.0599 182.609 53.6953 182.609C53.2995 182.609 52.9583 182.693 52.6719 182.859C52.3906 183.021 52.1589 183.245 51.9766 183.531C51.7943 183.812 51.6589 184.141 51.5703 184.516C51.487 184.885 51.4453 185.281 51.4453 185.703ZM60.9531 181.547V190H59.5V181.547H60.9531ZM59.3906 179.305C59.3906 179.07 59.4609 178.872 59.6016 178.711C59.7474 178.549 59.9609 178.469 60.2422 178.469C60.5182 178.469 60.7292 178.549 60.875 178.711C61.026 178.872 61.1016 179.07 61.1016 179.305C61.1016 179.529 61.026 179.721 60.875 179.883C60.7292 180.039 60.5182 180.117 60.2422 180.117C59.9609 180.117 59.7474 180.039 59.6016 179.883C59.4609 179.721 59.3906 179.529 59.3906 179.305ZM66.7812 190.156C66.1927 190.156 65.6589 190.057 65.1797 189.859C64.7057 189.656 64.2969 189.372 63.9531 189.008C63.6146 188.643 63.3542 188.211 63.1719 187.711C62.9896 187.211 62.8984 186.664 62.8984 186.07V185.742C62.8984 185.055 63 184.443 63.2031 183.906C63.4062 183.365 63.6823 182.906 64.0312 182.531C64.3802 182.156 64.776 181.872 65.2188 181.68C65.6615 181.487 66.1198 181.391 66.5938 181.391C67.1979 181.391 67.7188 181.495 68.1562 181.703C68.599 181.911 68.9609 182.203 69.2422 182.578C69.5234 182.948 69.7318 183.385 69.8672 183.891C70.0026 184.391 70.0703 184.938 70.0703 185.531V186.18H63.7578V185H68.625V184.891C68.6042 184.516 68.526 184.151 68.3906 183.797C68.2604 183.443 68.0521 183.151 67.7656 182.922C67.4792 182.693 67.0885 182.578 66.5938 182.578C66.2656 182.578 65.9635 182.648 65.6875 182.789C65.4115 182.924 65.1745 183.128 64.9766 183.398C64.7786 183.669 64.625 184 64.5156 184.391C64.4062 184.781 64.3516 185.232 64.3516 185.742V186.07C64.3516 186.471 64.4062 186.849 64.5156 187.203C64.6302 187.552 64.7943 187.859 65.0078 188.125C65.2266 188.391 65.4896 188.599 65.7969 188.75C66.1094 188.901 66.4635 188.977 66.8594 188.977C67.3698 188.977 67.8021 188.872 68.1562 188.664C68.5104 188.456 68.8203 188.177 69.0859 187.828L69.9609 188.523C69.7786 188.799 69.5469 189.062 69.2656 189.312C68.9844 189.562 68.638 189.766 68.2266 189.922C67.8203 190.078 67.3385 190.156 66.7812 190.156ZM75.2969 181.547V182.656H70.7266V181.547H75.2969ZM72.2734 179.492H73.7188V187.906C73.7188 188.193 73.763 188.409 73.8516 188.555C73.9401 188.701 74.0547 188.797 74.1953 188.844C74.3359 188.891 74.487 188.914 74.6484 188.914C74.7682 188.914 74.8932 188.904 75.0234 188.883C75.1589 188.857 75.2604 188.836 75.3281 188.82L75.3359 190C75.2214 190.036 75.0703 190.07 74.8828 190.102C74.7005 190.138 74.4792 190.156 74.2188 190.156C73.8646 190.156 73.5391 190.086 73.2422 189.945C72.9453 189.805 72.7083 189.57 72.5312 189.242C72.3594 188.909 72.2734 188.461 72.2734 187.898V179.492ZM83.1172 190H81.6719V180.656C81.6719 180.047 81.7812 179.534 82 179.117C82.224 178.695 82.5443 178.378 82.9609 178.164C83.3776 177.945 83.8724 177.836 84.4453 177.836C84.612 177.836 84.7786 177.846 84.9453 177.867C85.1172 177.888 85.2839 177.919 85.4453 177.961L85.3672 179.141C85.2578 179.115 85.1328 179.096 84.9922 179.086C84.8568 179.076 84.7214 179.07 84.5859 179.07C84.2786 179.07 84.013 179.133 83.7891 179.258C83.5703 179.378 83.4036 179.555 83.2891 179.789C83.1745 180.023 83.1172 180.312 83.1172 180.656V190ZM84.9141 181.547V182.656H80.3359V181.547H84.9141ZM86.1406 185.867V185.688C86.1406 185.078 86.2292 184.513 86.4062 183.992C86.5833 183.466 86.8385 183.01 87.1719 182.625C87.5052 182.234 87.9089 181.932 88.3828 181.719C88.8568 181.5 89.388 181.391 89.9766 181.391C90.5703 181.391 91.1042 181.5 91.5781 181.719C92.0573 181.932 92.4635 182.234 92.7969 182.625C93.1354 183.01 93.3932 183.466 93.5703 183.992C93.7474 184.513 93.8359 185.078 93.8359 185.688V185.867C93.8359 186.477 93.7474 187.042 93.5703 187.562C93.3932 188.083 93.1354 188.539 92.7969 188.93C92.4635 189.315 92.0599 189.617 91.5859 189.836C91.1172 190.049 90.5859 190.156 89.9922 190.156C89.3984 190.156 88.8646 190.049 88.3906 189.836C87.9167 189.617 87.5104 189.315 87.1719 188.93C86.8385 188.539 86.5833 188.083 86.4062 187.562C86.2292 187.042 86.1406 186.477 86.1406 185.867ZM87.5859 185.688V185.867C87.5859 186.289 87.6354 186.688 87.7344 187.062C87.8333 187.432 87.9818 187.76 88.1797 188.047C88.3828 188.333 88.6354 188.56 88.9375 188.727C89.2396 188.888 89.5911 188.969 89.9922 188.969C90.388 188.969 90.7344 188.888 91.0312 188.727C91.3333 188.56 91.5833 188.333 91.7812 188.047C91.9792 187.76 92.1276 187.432 92.2266 187.062C92.3307 186.688 92.3828 186.289 92.3828 185.867V185.688C92.3828 185.271 92.3307 184.878 92.2266 184.508C92.1276 184.133 91.9766 183.802 91.7734 183.516C91.5755 183.224 91.3255 182.995 91.0234 182.828C90.7266 182.661 90.3776 182.578 89.9766 182.578C89.5807 182.578 89.2318 182.661 88.9297 182.828C88.6328 182.995 88.3828 183.224 88.1797 183.516C87.9818 183.802 87.8333 184.133 87.7344 184.508C87.6354 184.878 87.5859 185.271 87.5859 185.688ZM97.0938 182.875V190H95.6484V181.547H97.0547L97.0938 182.875ZM99.7344 181.5L99.7266 182.844C99.6068 182.818 99.4922 182.802 99.3828 182.797C99.2786 182.786 99.1589 182.781 99.0234 182.781C98.6901 182.781 98.3958 182.833 98.1406 182.938C97.8854 183.042 97.6693 183.188 97.4922 183.375C97.3151 183.562 97.1745 183.786 97.0703 184.047C96.9714 184.302 96.9062 184.583 96.875 184.891L96.4688 185.125C96.4688 184.615 96.5182 184.135 96.6172 183.688C96.7214 183.24 96.8802 182.844 97.0938 182.5C97.3073 182.151 97.5781 181.88 97.9062 181.688C98.2396 181.49 98.6354 181.391 99.0938 181.391C99.1979 181.391 99.3177 181.404 99.4531 181.43C99.5885 181.451 99.6823 181.474 99.7344 181.5ZM108.578 181.547V182.656H104.008V181.547H108.578ZM105.555 179.492H107V187.906C107 188.193 107.044 188.409 107.133 188.555C107.221 188.701 107.336 188.797 107.477 188.844C107.617 188.891 107.768 188.914 107.93 188.914C108.049 188.914 108.174 188.904 108.305 188.883C108.44 188.857 108.542 188.836 108.609 188.82L108.617 190C108.503 190.036 108.352 190.07 108.164 190.102C107.982 190.138 107.76 190.156 107.5 190.156C107.146 190.156 106.82 190.086 106.523 189.945C106.227 189.805 105.99 189.57 105.812 189.242C105.641 188.909 105.555 188.461 105.555 187.898V179.492ZM111.719 178V190H110.273V178H111.719ZM111.375 185.453L110.773 185.43C110.779 184.852 110.865 184.318 111.031 183.828C111.198 183.333 111.432 182.904 111.734 182.539C112.036 182.174 112.396 181.893 112.812 181.695C113.234 181.492 113.701 181.391 114.211 181.391C114.628 181.391 115.003 181.448 115.336 181.562C115.669 181.672 115.953 181.849 116.188 182.094C116.427 182.339 116.609 182.656 116.734 183.047C116.859 183.432 116.922 183.904 116.922 184.461V190H115.469V184.445C115.469 184.003 115.404 183.648 115.273 183.383C115.143 183.112 114.953 182.917 114.703 182.797C114.453 182.672 114.146 182.609 113.781 182.609C113.422 182.609 113.094 182.685 112.797 182.836C112.505 182.987 112.253 183.195 112.039 183.461C111.831 183.727 111.667 184.031 111.547 184.375C111.432 184.714 111.375 185.073 111.375 185.453ZM122.594 190.156C122.005 190.156 121.471 190.057 120.992 189.859C120.518 189.656 120.109 189.372 119.766 189.008C119.427 188.643 119.167 188.211 118.984 187.711C118.802 187.211 118.711 186.664 118.711 186.07V185.742C118.711 185.055 118.812 184.443 119.016 183.906C119.219 183.365 119.495 182.906 119.844 182.531C120.193 182.156 120.589 181.872 121.031 181.68C121.474 181.487 121.932 181.391 122.406 181.391C123.01 181.391 123.531 181.495 123.969 181.703C124.411 181.911 124.773 182.203 125.055 182.578C125.336 182.948 125.544 183.385 125.68 183.891C125.815 184.391 125.883 184.938 125.883 185.531V186.18H119.57V185H124.438V184.891C124.417 184.516 124.339 184.151 124.203 183.797C124.073 183.443 123.865 183.151 123.578 182.922C123.292 182.693 122.901 182.578 122.406 182.578C122.078 182.578 121.776 182.648 121.5 182.789C121.224 182.924 120.987 183.128 120.789 183.398C120.591 183.669 120.438 184 120.328 184.391C120.219 184.781 120.164 185.232 120.164 185.742V186.07C120.164 186.471 120.219 186.849 120.328 187.203C120.443 187.552 120.607 187.859 120.82 188.125C121.039 188.391 121.302 188.599 121.609 188.75C121.922 188.901 122.276 188.977 122.672 188.977C123.182 188.977 123.615 188.872 123.969 188.664C124.323 188.456 124.633 188.177 124.898 187.828L125.773 188.523C125.591 188.799 125.359 189.062 125.078 189.312C124.797 189.562 124.451 189.766 124.039 189.922C123.633 190.078 123.151 190.156 122.594 190.156ZM136.867 188.359V178H138.32V190H136.992L136.867 188.359ZM131.18 185.867V185.703C131.18 185.057 131.258 184.471 131.414 183.945C131.576 183.414 131.802 182.958 132.094 182.578C132.391 182.198 132.742 181.906 133.148 181.703C133.56 181.495 134.018 181.391 134.523 181.391C135.055 181.391 135.518 181.484 135.914 181.672C136.315 181.854 136.654 182.122 136.93 182.477C137.211 182.826 137.432 183.247 137.594 183.742C137.755 184.237 137.867 184.797 137.93 185.422V186.141C137.872 186.76 137.76 187.318 137.594 187.812C137.432 188.307 137.211 188.729 136.93 189.078C136.654 189.427 136.315 189.695 135.914 189.883C135.513 190.065 135.044 190.156 134.508 190.156C134.013 190.156 133.56 190.049 133.148 189.836C132.742 189.622 132.391 189.323 132.094 188.938C131.802 188.552 131.576 188.099 131.414 187.578C131.258 187.052 131.18 186.482 131.18 185.867ZM132.633 185.703V185.867C132.633 186.289 132.674 186.685 132.758 187.055C132.846 187.424 132.982 187.75 133.164 188.031C133.346 188.312 133.578 188.534 133.859 188.695C134.141 188.852 134.477 188.93 134.867 188.93C135.346 188.93 135.74 188.828 136.047 188.625C136.359 188.422 136.609 188.154 136.797 187.82C136.984 187.487 137.13 187.125 137.234 186.734V184.852C137.172 184.565 137.081 184.289 136.961 184.023C136.846 183.753 136.695 183.513 136.508 183.305C136.326 183.091 136.099 182.922 135.828 182.797C135.562 182.672 135.247 182.609 134.883 182.609C134.487 182.609 134.146 182.693 133.859 182.859C133.578 183.021 133.346 183.245 133.164 183.531C132.982 183.812 132.846 184.141 132.758 184.516C132.674 184.885 132.633 185.281 132.633 185.703ZM145.555 188.555V184.203C145.555 183.87 145.487 183.581 145.352 183.336C145.221 183.086 145.023 182.893 144.758 182.758C144.492 182.622 144.164 182.555 143.773 182.555C143.409 182.555 143.089 182.617 142.812 182.742C142.542 182.867 142.328 183.031 142.172 183.234C142.021 183.438 141.945 183.656 141.945 183.891H140.5C140.5 183.589 140.578 183.289 140.734 182.992C140.891 182.695 141.115 182.427 141.406 182.188C141.703 181.943 142.057 181.75 142.469 181.609C142.885 181.464 143.349 181.391 143.859 181.391C144.474 181.391 145.016 181.495 145.484 181.703C145.958 181.911 146.328 182.227 146.594 182.648C146.865 183.065 147 183.589 147 184.219V188.156C147 188.438 147.023 188.737 147.07 189.055C147.122 189.372 147.198 189.646 147.297 189.875V190H145.789C145.716 189.833 145.659 189.612 145.617 189.336C145.576 189.055 145.555 188.794 145.555 188.555ZM145.805 184.875L145.82 185.891H144.359C143.948 185.891 143.581 185.924 143.258 185.992C142.935 186.055 142.664 186.151 142.445 186.281C142.227 186.411 142.06 186.576 141.945 186.773C141.831 186.966 141.773 187.193 141.773 187.453C141.773 187.719 141.833 187.961 141.953 188.18C142.073 188.398 142.253 188.573 142.492 188.703C142.737 188.828 143.036 188.891 143.391 188.891C143.833 188.891 144.224 188.797 144.562 188.609C144.901 188.422 145.169 188.193 145.367 187.922C145.57 187.651 145.68 187.388 145.695 187.133L146.312 187.828C146.276 188.047 146.177 188.289 146.016 188.555C145.854 188.82 145.638 189.076 145.367 189.32C145.102 189.56 144.784 189.76 144.414 189.922C144.049 190.078 143.638 190.156 143.18 190.156C142.607 190.156 142.104 190.044 141.672 189.82C141.245 189.596 140.911 189.297 140.672 188.922C140.438 188.542 140.32 188.117 140.32 187.648C140.32 187.195 140.409 186.797 140.586 186.453C140.763 186.104 141.018 185.815 141.352 185.586C141.685 185.352 142.086 185.174 142.555 185.055C143.023 184.935 143.547 184.875 144.125 184.875H145.805ZM151.523 189.125L153.875 181.547H155.422L152.031 191.305C151.953 191.513 151.849 191.737 151.719 191.977C151.594 192.221 151.432 192.453 151.234 192.672C151.036 192.891 150.797 193.068 150.516 193.203C150.24 193.344 149.909 193.414 149.523 193.414C149.409 193.414 149.263 193.398 149.086 193.367C148.909 193.336 148.784 193.31 148.711 193.289L148.703 192.117C148.745 192.122 148.81 192.128 148.898 192.133C148.992 192.143 149.057 192.148 149.094 192.148C149.422 192.148 149.701 192.104 149.93 192.016C150.159 191.932 150.352 191.789 150.508 191.586C150.669 191.388 150.807 191.115 150.922 190.766L151.523 189.125ZM149.797 181.547L151.992 188.109L152.367 189.633L151.328 190.164L148.219 181.547H149.797ZM155.906 189.234C155.906 188.99 155.982 188.784 156.133 188.617C156.289 188.445 156.513 188.359 156.805 188.359C157.096 188.359 157.318 188.445 157.469 188.617C157.625 188.784 157.703 188.99 157.703 189.234C157.703 189.474 157.625 189.677 157.469 189.844C157.318 190.01 157.096 190.094 156.805 190.094C156.513 190.094 156.289 190.01 156.133 189.844C155.982 189.677 155.906 189.474 155.906 189.234Z" fill="#333B41"/>
<g clip-path="url(#clip0_34416_676)">
<path d="M496.818 196.012C507.667 175.031 516.492 149.302 516.492 121.882C516.492 108.109 512.189 92.4516 504.983 80.0005C498.681 69.113 486.996 55.0466 467.099 49.8605C441.918 43.298 416.405 49.4179 395.905 54.336C388.497 56.1132 381.499 57.7918 375.505 58.6219C362.063 60.4819 347.861 60.2094 335.653 59.7377H335.645C333.735 59.6638 331.869 59.5854 330.067 59.5095C322.354 59.1839 304.59 58.8716 304.59 58.8716C303.621 54.7508 301.411 51.3747 298.653 49.8162C297.484 49.167 296.208 48.8379 294.919 48.8531C293.629 48.8683 292.359 49.2274 291.202 49.9041C287.407 51.9519 285.588 56.502 286.448 61.6388C280.369 64.7595 274.429 70.9711 270.827 75.8557C267.734 80.0492 265.112 86.6705 262.574 93.0737C259.991 99.5951 257.32 106.338 254.647 109.061C253.992 109.722 253.414 110.483 252.926 111.323C252.917 111.323 252.909 111.318 252.9 111.316C252.341 111.182 251.764 111.188 251.208 111.335C250.651 111.482 250.126 111.766 249.667 112.168C249.208 112.571 248.824 113.084 248.541 113.673C248.257 114.263 248.081 114.917 248.022 115.592C247.963 116.268 248.023 116.951 248.199 117.597C248.375 118.244 248.662 118.839 249.042 119.346C249.422 119.852 249.886 120.258 250.406 120.538C250.926 120.818 251.488 120.966 252.059 120.971C252.541 122.763 253.193 124.483 254.002 126.1C259.381 137.133 267.89 143.992 275.397 150.042C279.536 153.378 283.444 156.529 286.472 160.048C288.744 162.78 290.72 165.84 292.354 169.157C292.372 169.199 292.396 169.235 292.416 169.276C295.489 175.404 297.927 182.881 298.383 190.022C298.958 199.044 300.32 223.404 300.749 231.098C299.269 231.659 297.882 232.518 296.646 233.637C295.727 234.465 295.052 235.62 294.72 236.935C294.388 238.251 294.415 239.658 294.798 240.953C295.161 242.275 295.868 243.425 296.817 244.237C297.765 245.049 298.905 245.481 300.073 245.469H325.215C326.025 245.471 326.825 245.26 327.56 244.853C328.294 244.446 328.945 243.852 329.465 243.113C335.026 235.234 348.896 214.929 357.674 196.507C391.654 196.467 414.86 194.998 428.397 192.018C430.413 207.207 433.076 224.514 434.05 230.756C433.209 231.225 432.415 231.801 431.68 232.475C430.674 233.4 429.936 234.676 429.57 236.124C429.203 237.573 429.226 239.123 429.636 240.555C430.045 241.988 430.821 243.232 431.853 244.113C432.886 244.994 434.124 245.468 435.394 245.468H458.961C460.355 245.467 461.706 244.896 462.79 243.852C470.562 236.34 484.783 219.18 496.642 196.355C496.707 196.245 496.766 196.131 496.818 196.012ZM330.738 123.819C323.137 142.801 309.756 158.156 295.502 164.419C293.866 161.368 291.957 158.537 289.809 155.976C286.475 152.101 282.394 148.812 278.074 145.33C270.646 139.342 262.963 133.15 258.132 123.242C255.192 117.211 256.29 114.875 257.751 113.387C261.203 109.871 263.968 102.892 266.895 95.5027C269.29 89.4555 271.767 83.2028 274.416 79.6124C277.622 75.2646 283.323 69.2521 288.84 66.6157C289.382 66.3558 289.869 65.9569 290.267 65.4474C293.283 70.6999 300.466 69.9254 302.269 65.1426C302.395 64.799 302.488 64.4398 302.547 64.0717C310.139 65.2482 322.237 64.8714 329.899 65.1964C331.198 65.2514 332.537 65.307 333.893 65.3614C339.481 84.0582 338.379 104.741 330.738 123.819ZM477.255 175.936C472.804 174.95 450.711 170.969 432.181 183.909C431.3 176.773 430.699 170.838 430.699 167.937C430.699 167.183 430.447 166.459 430 165.926C429.552 165.392 428.945 165.092 428.311 165.092C427.678 165.092 427.071 165.392 426.623 165.926C426.175 166.459 425.924 167.183 425.924 167.937C425.924 171.306 426.645 178.248 427.668 186.393C416.107 188.967 397.042 190.399 369.715 190.739C375.155 186.803 379.493 181.153 382.661 173.804C387.073 163.576 389.023 150.251 388.3 135.268C387.486 118.387 376.6 95.65 367.852 77.3825C365.826 73.1523 363.886 69.1004 362.27 65.5144C366.871 65.2899 371.497 64.9043 376.054 64.2733C382.245 63.4173 389.337 61.7153 396.845 59.911C416.907 55.0978 441.875 49.1075 466.076 55.4165C499.326 64.0856 511.716 100.786 511.716 121.882C511.716 146.163 504.475 169.109 495.132 188.388C492.389 183.5 486.673 178.023 477.255 175.936Z" fill="black"/>
<path d="M280.002 89.2392C270.392 84.8144 264.802 97.2411 270.918 104.539C274.263 108.527 277.442 117.769 284.709 117.003C296.254 115.788 295.191 96.2253 280.002 89.2392ZM275.648 101.263C275.078 101.263 274.521 101.059 274.048 100.676C273.574 100.294 273.204 99.7506 272.986 99.1148C272.768 98.479 272.711 97.7794 272.822 97.1045C272.934 96.4296 273.208 95.8096 273.611 95.323C274.014 94.8364 274.527 94.505 275.086 94.3708C275.645 94.2365 276.225 94.3055 276.751 94.5688C277.278 94.8321 277.728 95.2781 278.044 95.8503C278.361 96.4225 278.53 97.0952 278.53 97.7833C278.53 98.706 278.226 99.5909 277.686 100.243C277.145 100.896 276.413 101.262 275.648 101.263Z" fill="black"/>
<path d="M383.331 201.951C383.301 201.811 383.233 201.687 383.136 201.599C383.04 201.511 382.921 201.464 382.799 201.465C380.193 201.498 366.399 201.668 360.55 201.696C360.46 201.695 360.372 201.722 360.293 201.774C360.214 201.825 360.148 201.9 360.101 201.99C356.342 209.044 349.747 220.019 345.392 227.164C345.32 227.282 345.285 227.425 345.292 227.57C345.299 227.715 345.347 227.852 345.429 227.96L351.515 236.012L351.45 236.127C351.429 236.172 351.402 236.216 351.38 236.261C350.905 237.179 350.646 238.23 350.63 239.306C350.613 240.382 350.84 241.443 351.286 242.381C351.732 243.319 352.382 244.099 353.169 244.642C353.955 245.185 354.85 245.471 355.762 245.47H381.641C382.325 245.469 383.003 245.307 383.633 244.993C384.264 244.679 384.835 244.219 385.313 243.641C385.791 243.062 386.166 242.376 386.416 241.624C386.666 240.872 386.787 240.068 386.77 239.26C386.683 235.097 386.456 228.562 385.892 221.47C385.426 214.901 384.57 208.379 383.331 201.951Z" fill="black"/>
<path d="M510.923 178.544C510.888 178.422 510.824 178.316 510.738 178.239C510.652 178.163 510.549 178.12 510.443 178.116C510.336 178.113 510.231 178.148 510.142 178.218C510.053 178.288 509.983 178.39 509.942 178.509C509.238 180.589 508.447 182.625 507.574 184.608C500.27 201.22 491.413 216.754 481.177 230.901C481.09 231.02 481.043 231.174 481.045 231.334C481.047 231.493 481.099 231.645 481.19 231.76L482.959 234.026C482.439 234.773 482.003 235.6 481.662 236.486C481.295 237.466 481.139 238.541 481.207 239.614C481.275 240.686 481.565 241.72 482.051 242.62C482.483 243.476 483.086 244.185 483.804 244.684C484.522 245.182 485.331 245.452 486.158 245.47H513.024C513.688 245.469 514.345 245.308 514.956 244.995C515.567 244.683 516.121 244.225 516.584 243.648C517.048 243.072 517.411 242.39 517.654 241.64C517.897 240.891 518.014 240.09 517.999 239.285C517.733 226.33 516.499 197.618 510.923 178.544Z" fill="black"/>
</g>
<defs>
<clipPath id="clip0_34416_676">
<rect width="284" height="246" fill="white" transform="translate(248)"/>
</clipPath>
</defs>
</svg>
