<svg width="533" height="246" viewBox="0 0 533 246" fill="none" xmlns="http://www.w3.org/2000/svg">
<path d="M97.9375 112.559L77.4766 159H68.5117L88.9375 114.668H62.4648V107.812H97.9375V112.559Z" fill="black"/>
<path d="M172 144C171.744 144 171.488 143.902 171.293 143.707C170.902 143.316 170.902 142.684 171.293 142.293L183.293 130.293C183.684 129.902 184.316 129.902 184.707 130.293C185.098 130.684 185.098 131.316 184.707 131.707L172.707 143.707C172.512 143.902 172.256 144 172 144Z" fill="#333B41"/>
<path d="M184 144C183.744 144 183.488 143.902 183.293 143.707L171.293 131.707C170.902 131.316 170.902 130.684 171.293 130.293C171.684 129.902 172.316 129.902 172.707 130.293L184.707 142.293C185.098 142.684 185.098 143.316 184.707 143.707C184.512 143.902 184.256 144 184 144Z" fill="#333B41"/>
<path d="M9.95312 184.336V188.5C9.8125 188.708 9.58854 188.943 9.28125 189.203C8.97396 189.458 8.54948 189.682 8.00781 189.875C7.47135 190.062 6.77865 190.156 5.92969 190.156C5.23698 190.156 4.59896 190.036 4.01562 189.797C3.4375 189.552 2.9349 189.198 2.50781 188.734C2.08594 188.266 1.75781 187.698 1.52344 187.031C1.29427 186.359 1.17969 185.599 1.17969 184.75V183.867C1.17969 183.018 1.27865 182.26 1.47656 181.594C1.67969 180.927 1.97656 180.362 2.36719 179.898C2.75781 179.43 3.23698 179.076 3.80469 178.836C4.3724 178.591 5.02344 178.469 5.75781 178.469C6.6276 178.469 7.35417 178.62 7.9375 178.922C8.52604 179.219 8.98438 179.63 9.3125 180.156C9.64583 180.682 9.85938 181.281 9.95312 181.953H8.44531C8.3776 181.542 8.24219 181.167 8.03906 180.828C7.84115 180.49 7.55729 180.219 7.1875 180.016C6.81771 179.807 6.34115 179.703 5.75781 179.703C5.23177 179.703 4.77604 179.799 4.39062 179.992C4.00521 180.185 3.6875 180.461 3.4375 180.82C3.1875 181.18 3 181.615 2.875 182.125C2.75521 182.635 2.69531 183.211 2.69531 183.852V184.75C2.69531 185.406 2.77083 185.992 2.92188 186.508C3.07812 187.023 3.29948 187.464 3.58594 187.828C3.8724 188.188 4.21354 188.461 4.60938 188.648C5.01042 188.836 5.45312 188.93 5.9375 188.93C6.47396 188.93 6.90885 188.885 7.24219 188.797C7.57552 188.703 7.83594 188.594 8.02344 188.469C8.21094 188.339 8.35417 188.216 8.45312 188.102V185.555H5.82031V184.336H9.95312ZM11.8516 185.867V185.688C11.8516 185.078 11.9401 184.513 12.1172 183.992C12.2943 183.466 12.5495 183.01 12.8828 182.625C13.2161 182.234 13.6198 181.932 14.0938 181.719C14.5677 181.5 15.099 181.391 15.6875 181.391C16.2812 181.391 16.8151 181.5 17.2891 181.719C17.7682 181.932 18.1745 182.234 18.5078 182.625C18.8464 183.01 19.1042 183.466 19.2812 183.992C19.4583 184.513 19.5469 185.078 19.5469 185.688V185.867C19.5469 186.477 19.4583 187.042 19.2812 187.562C19.1042 188.083 18.8464 188.539 18.5078 188.93C18.1745 189.315 17.7708 189.617 17.2969 189.836C16.8281 190.049 16.2969 190.156 15.7031 190.156C15.1094 190.156 14.5755 190.049 14.1016 189.836C13.6276 189.617 13.2214 189.315 12.8828 188.93C12.5495 188.539 12.2943 188.083 12.1172 187.562C11.9401 187.042 11.8516 186.477 11.8516 185.867ZM13.2969 185.688V185.867C13.2969 186.289 13.3464 186.688 13.4453 187.062C13.5443 187.432 13.6927 187.76 13.8906 188.047C14.0938 188.333 14.3464 188.56 14.6484 188.727C14.9505 188.888 15.3021 188.969 15.7031 188.969C16.099 188.969 16.4453 188.888 16.7422 188.727C17.0443 188.56 17.2943 188.333 17.4922 188.047C17.6901 187.76 17.8385 187.432 17.9375 187.062C18.0417 186.688 18.0938 186.289 18.0938 185.867V185.688C18.0938 185.271 18.0417 184.878 17.9375 184.508C17.8385 184.133 17.6875 183.802 17.4844 183.516C17.2865 183.224 17.0365 182.995 16.7344 182.828C16.4375 182.661 16.0885 182.578 15.6875 182.578C15.2917 182.578 14.9427 182.661 14.6406 182.828C14.3438 182.995 14.0938 183.224 13.8906 183.516C13.6927 183.802 13.5443 184.133 13.4453 184.508C13.3464 184.878 13.2969 185.271 13.2969 185.688ZM22.8047 182.875V190H21.3594V181.547H22.7656L22.8047 182.875ZM25.4453 181.5L25.4375 182.844C25.3177 182.818 25.2031 182.802 25.0938 182.797C24.9896 182.786 24.8698 182.781 24.7344 182.781C24.401 182.781 24.1068 182.833 23.8516 182.938C23.5964 183.042 23.3802 183.188 23.2031 183.375C23.026 183.562 22.8854 183.786 22.7812 184.047C22.6823 184.302 22.6172 184.583 22.5859 184.891L22.1797 185.125C22.1797 184.615 22.2292 184.135 22.3281 183.688C22.4323 183.24 22.5911 182.844 22.8047 182.5C23.0182 182.151 23.2891 181.88 23.6172 181.688C23.9505 181.49 24.3464 181.391 24.8047 181.391C24.9089 181.391 25.0286 181.404 25.1641 181.43C25.2995 181.451 25.3932 181.474 25.4453 181.5ZM28.3516 181.547V190H26.8984V181.547H28.3516ZM26.7891 179.305C26.7891 179.07 26.8594 178.872 27 178.711C27.1458 178.549 27.3594 178.469 27.6406 178.469C27.9167 178.469 28.1276 178.549 28.2734 178.711C28.4245 178.872 28.5 179.07 28.5 179.305C28.5 179.529 28.4245 179.721 28.2734 179.883C28.1276 180.039 27.9167 180.117 27.6406 180.117C27.3594 180.117 27.1458 180.039 27 179.883C26.8594 179.721 26.7891 179.529 26.7891 179.305ZM32.2422 178V190H30.7891V178H32.2422ZM36.1328 178V190H34.6797V178H36.1328ZM43.4375 188.555V184.203C43.4375 183.87 43.3698 183.581 43.2344 183.336C43.1042 183.086 42.9062 182.893 42.6406 182.758C42.375 182.622 42.0469 182.555 41.6562 182.555C41.2917 182.555 40.9714 182.617 40.6953 182.742C40.4245 182.867 40.2109 183.031 40.0547 183.234C39.9036 183.438 39.8281 183.656 39.8281 183.891H38.3828C38.3828 183.589 38.4609 183.289 38.6172 182.992C38.7734 182.695 38.9974 182.427 39.2891 182.188C39.5859 181.943 39.9401 181.75 40.3516 181.609C40.7682 181.464 41.2318 181.391 41.7422 181.391C42.3568 181.391 42.8984 181.495 43.3672 181.703C43.8411 181.911 44.2109 182.227 44.4766 182.648C44.7474 183.065 44.8828 183.589 44.8828 184.219V188.156C44.8828 188.438 44.9062 188.737 44.9531 189.055C45.0052 189.372 45.0807 189.646 45.1797 189.875V190H43.6719C43.599 189.833 43.5417 189.612 43.5 189.336C43.4583 189.055 43.4375 188.794 43.4375 188.555ZM43.6875 184.875L43.7031 185.891H42.2422C41.8307 185.891 41.4635 185.924 41.1406 185.992C40.8177 186.055 40.5469 186.151 40.3281 186.281C40.1094 186.411 39.9427 186.576 39.8281 186.773C39.7135 186.966 39.6562 187.193 39.6562 187.453C39.6562 187.719 39.7161 187.961 39.8359 188.18C39.9557 188.398 40.1354 188.573 40.375 188.703C40.6198 188.828 40.9193 188.891 41.2734 188.891C41.7161 188.891 42.1068 188.797 42.4453 188.609C42.7839 188.422 43.0521 188.193 43.25 187.922C43.4531 187.651 43.5625 187.388 43.5781 187.133L44.1953 187.828C44.1589 188.047 44.0599 188.289 43.8984 188.555C43.737 188.82 43.5208 189.076 43.25 189.32C42.9844 189.56 42.6667 189.76 42.2969 189.922C41.9323 190.078 41.5208 190.156 41.0625 190.156C40.4896 190.156 39.987 190.044 39.5547 189.82C39.1276 189.596 38.7943 189.297 38.5547 188.922C38.3203 188.542 38.2031 188.117 38.2031 187.648C38.2031 187.195 38.2917 186.797 38.4688 186.453C38.6458 186.104 38.901 185.815 39.2344 185.586C39.5677 185.352 39.9688 185.174 40.4375 185.055C40.9062 184.935 41.4297 184.875 42.0078 184.875H43.6875ZM56.4531 188.359V178H57.9062V190H56.5781L56.4531 188.359ZM50.7656 185.867V185.703C50.7656 185.057 50.8438 184.471 51 183.945C51.1615 183.414 51.388 182.958 51.6797 182.578C51.9766 182.198 52.3281 181.906 52.7344 181.703C53.1458 181.495 53.6042 181.391 54.1094 181.391C54.6406 181.391 55.1042 181.484 55.5 181.672C55.901 181.854 56.2396 182.122 56.5156 182.477C56.7969 182.826 57.0182 183.247 57.1797 183.742C57.3411 184.237 57.4531 184.797 57.5156 185.422V186.141C57.4583 186.76 57.3464 187.318 57.1797 187.812C57.0182 188.307 56.7969 188.729 56.5156 189.078C56.2396 189.427 55.901 189.695 55.5 189.883C55.099 190.065 54.6302 190.156 54.0938 190.156C53.599 190.156 53.1458 190.049 52.7344 189.836C52.3281 189.622 51.9766 189.323 51.6797 188.938C51.388 188.552 51.1615 188.099 51 187.578C50.8438 187.052 50.7656 186.482 50.7656 185.867ZM52.2188 185.703V185.867C52.2188 186.289 52.2604 186.685 52.3438 187.055C52.4323 187.424 52.5677 187.75 52.75 188.031C52.9323 188.312 53.1641 188.534 53.4453 188.695C53.7266 188.852 54.0625 188.93 54.4531 188.93C54.9323 188.93 55.3255 188.828 55.6328 188.625C55.9453 188.422 56.1953 188.154 56.3828 187.82C56.5703 187.487 56.7161 187.125 56.8203 186.734V184.852C56.7578 184.565 56.6667 184.289 56.5469 184.023C56.4323 183.753 56.2812 183.513 56.0938 183.305C55.9115 183.091 55.6849 182.922 55.4141 182.797C55.1484 182.672 54.8333 182.609 54.4688 182.609C54.0729 182.609 53.7318 182.693 53.4453 182.859C53.1641 183.021 52.9323 183.245 52.75 183.531C52.5677 183.812 52.4323 184.141 52.3438 184.516C52.2604 184.885 52.2188 185.281 52.2188 185.703ZM61.7266 181.547V190H60.2734V181.547H61.7266ZM60.1641 179.305C60.1641 179.07 60.2344 178.872 60.375 178.711C60.5208 178.549 60.7344 178.469 61.0156 178.469C61.2917 178.469 61.5026 178.549 61.6484 178.711C61.7995 178.872 61.875 179.07 61.875 179.305C61.875 179.529 61.7995 179.721 61.6484 179.883C61.5026 180.039 61.2917 180.117 61.0156 180.117C60.7344 180.117 60.5208 180.039 60.375 179.883C60.2344 179.721 60.1641 179.529 60.1641 179.305ZM67.5547 190.156C66.9661 190.156 66.4323 190.057 65.9531 189.859C65.4792 189.656 65.0703 189.372 64.7266 189.008C64.388 188.643 64.1276 188.211 63.9453 187.711C63.763 187.211 63.6719 186.664 63.6719 186.07V185.742C63.6719 185.055 63.7734 184.443 63.9766 183.906C64.1797 183.365 64.4557 182.906 64.8047 182.531C65.1536 182.156 65.5495 181.872 65.9922 181.68C66.4349 181.487 66.8932 181.391 67.3672 181.391C67.9714 181.391 68.4922 181.495 68.9297 181.703C69.3724 181.911 69.7344 182.203 70.0156 182.578C70.2969 182.948 70.5052 183.385 70.6406 183.891C70.776 184.391 70.8438 184.938 70.8438 185.531V186.18H64.5312V185H69.3984V184.891C69.3776 184.516 69.2995 184.151 69.1641 183.797C69.0339 183.443 68.8255 183.151 68.5391 182.922C68.2526 182.693 67.862 182.578 67.3672 182.578C67.0391 182.578 66.737 182.648 66.4609 182.789C66.1849 182.924 65.9479 183.128 65.75 183.398C65.5521 183.669 65.3984 184 65.2891 184.391C65.1797 184.781 65.125 185.232 65.125 185.742V186.07C65.125 186.471 65.1797 186.849 65.2891 187.203C65.4036 187.552 65.5677 187.859 65.7812 188.125C66 188.391 66.263 188.599 66.5703 188.75C66.8828 188.901 67.237 188.977 67.6328 188.977C68.1432 188.977 68.5755 188.872 68.9297 188.664C69.2839 188.456 69.5938 188.177 69.8594 187.828L70.7344 188.523C70.5521 188.799 70.3203 189.062 70.0391 189.312C69.7578 189.562 69.4115 189.766 69 189.922C68.5938 190.078 68.112 190.156 67.5547 190.156ZM76.0703 181.547V182.656H71.5V181.547H76.0703ZM73.0469 179.492H74.4922V187.906C74.4922 188.193 74.5365 188.409 74.625 188.555C74.7135 188.701 74.8281 188.797 74.9688 188.844C75.1094 188.891 75.2604 188.914 75.4219 188.914C75.5417 188.914 75.6667 188.904 75.7969 188.883C75.9323 188.857 76.0339 188.836 76.1016 188.82L76.1094 190C75.9948 190.036 75.8438 190.07 75.6562 190.102C75.474 190.138 75.2526 190.156 74.9922 190.156C74.638 190.156 74.3125 190.086 74.0156 189.945C73.7188 189.805 73.4818 189.57 73.3047 189.242C73.1328 188.909 73.0469 188.461 73.0469 187.898V179.492ZM83.8906 190H82.4453V180.656C82.4453 180.047 82.5547 179.534 82.7734 179.117C82.9974 178.695 83.3177 178.378 83.7344 178.164C84.151 177.945 84.6458 177.836 85.2188 177.836C85.3854 177.836 85.5521 177.846 85.7188 177.867C85.8906 177.888 86.0573 177.919 86.2188 177.961L86.1406 179.141C86.0312 179.115 85.9062 179.096 85.7656 179.086C85.6302 179.076 85.4948 179.07 85.3594 179.07C85.0521 179.07 84.7865 179.133 84.5625 179.258C84.3438 179.378 84.1771 179.555 84.0625 179.789C83.9479 180.023 83.8906 180.312 83.8906 180.656V190ZM85.6875 181.547V182.656H81.1094V181.547H85.6875ZM86.9141 185.867V185.688C86.9141 185.078 87.0026 184.513 87.1797 183.992C87.3568 183.466 87.612 183.01 87.9453 182.625C88.2786 182.234 88.6823 181.932 89.1562 181.719C89.6302 181.5 90.1615 181.391 90.75 181.391C91.3438 181.391 91.8776 181.5 92.3516 181.719C92.8307 181.932 93.237 182.234 93.5703 182.625C93.9089 183.01 94.1667 183.466 94.3438 183.992C94.5208 184.513 94.6094 185.078 94.6094 185.688V185.867C94.6094 186.477 94.5208 187.042 94.3438 187.562C94.1667 188.083 93.9089 188.539 93.5703 188.93C93.237 189.315 92.8333 189.617 92.3594 189.836C91.8906 190.049 91.3594 190.156 90.7656 190.156C90.1719 190.156 89.638 190.049 89.1641 189.836C88.6901 189.617 88.2839 189.315 87.9453 188.93C87.612 188.539 87.3568 188.083 87.1797 187.562C87.0026 187.042 86.9141 186.477 86.9141 185.867ZM88.3594 185.688V185.867C88.3594 186.289 88.4089 186.688 88.5078 187.062C88.6068 187.432 88.7552 187.76 88.9531 188.047C89.1562 188.333 89.4089 188.56 89.7109 188.727C90.013 188.888 90.3646 188.969 90.7656 188.969C91.1615 188.969 91.5078 188.888 91.8047 188.727C92.1068 188.56 92.3568 188.333 92.5547 188.047C92.7526 187.76 92.901 187.432 93 187.062C93.1042 186.688 93.1562 186.289 93.1562 185.867V185.688C93.1562 185.271 93.1042 184.878 93 184.508C92.901 184.133 92.75 183.802 92.5469 183.516C92.349 183.224 92.099 182.995 91.7969 182.828C91.5 182.661 91.151 182.578 90.75 182.578C90.3542 182.578 90.0052 182.661 89.7031 182.828C89.4062 182.995 89.1562 183.224 88.9531 183.516C88.7552 183.802 88.6068 184.133 88.5078 184.508C88.4089 184.878 88.3594 185.271 88.3594 185.688ZM97.8672 182.875V190H96.4219V181.547H97.8281L97.8672 182.875ZM100.508 181.5L100.5 182.844C100.38 182.818 100.266 182.802 100.156 182.797C100.052 182.786 99.9323 182.781 99.7969 182.781C99.4635 182.781 99.1693 182.833 98.9141 182.938C98.6589 183.042 98.4427 183.188 98.2656 183.375C98.0885 183.562 97.9479 183.786 97.8438 184.047C97.7448 184.302 97.6797 184.583 97.6484 184.891L97.2422 185.125C97.2422 184.615 97.2917 184.135 97.3906 183.688C97.4948 183.24 97.6536 182.844 97.8672 182.5C98.0807 182.151 98.3516 181.88 98.6797 181.688C99.013 181.49 99.4089 181.391 99.8672 181.391C99.9714 181.391 100.091 181.404 100.227 181.43C100.362 181.451 100.456 181.474 100.508 181.5ZM109.352 181.547V182.656H104.781V181.547H109.352ZM106.328 179.492H107.773V187.906C107.773 188.193 107.818 188.409 107.906 188.555C107.995 188.701 108.109 188.797 108.25 188.844C108.391 188.891 108.542 188.914 108.703 188.914C108.823 188.914 108.948 188.904 109.078 188.883C109.214 188.857 109.315 188.836 109.383 188.82L109.391 190C109.276 190.036 109.125 190.07 108.938 190.102C108.755 190.138 108.534 190.156 108.273 190.156C107.919 190.156 107.594 190.086 107.297 189.945C107 189.805 106.763 189.57 106.586 189.242C106.414 188.909 106.328 188.461 106.328 187.898V179.492ZM112.492 178V190H111.047V178H112.492ZM112.148 185.453L111.547 185.43C111.552 184.852 111.638 184.318 111.805 183.828C111.971 183.333 112.206 182.904 112.508 182.539C112.81 182.174 113.169 181.893 113.586 181.695C114.008 181.492 114.474 181.391 114.984 181.391C115.401 181.391 115.776 181.448 116.109 181.562C116.443 181.672 116.727 181.849 116.961 182.094C117.201 182.339 117.383 182.656 117.508 183.047C117.633 183.432 117.695 183.904 117.695 184.461V190H116.242V184.445C116.242 184.003 116.177 183.648 116.047 183.383C115.917 183.112 115.727 182.917 115.477 182.797C115.227 182.672 114.919 182.609 114.555 182.609C114.195 182.609 113.867 182.685 113.57 182.836C113.279 182.987 113.026 183.195 112.812 183.461C112.604 183.727 112.44 184.031 112.32 184.375C112.206 184.714 112.148 185.073 112.148 185.453ZM123.367 190.156C122.779 190.156 122.245 190.057 121.766 189.859C121.292 189.656 120.883 189.372 120.539 189.008C120.201 188.643 119.94 188.211 119.758 187.711C119.576 187.211 119.484 186.664 119.484 186.07V185.742C119.484 185.055 119.586 184.443 119.789 183.906C119.992 183.365 120.268 182.906 120.617 182.531C120.966 182.156 121.362 181.872 121.805 181.68C122.247 181.487 122.706 181.391 123.18 181.391C123.784 181.391 124.305 181.495 124.742 181.703C125.185 181.911 125.547 182.203 125.828 182.578C126.109 182.948 126.318 183.385 126.453 183.891C126.589 184.391 126.656 184.938 126.656 185.531V186.18H120.344V185H125.211V184.891C125.19 184.516 125.112 184.151 124.977 183.797C124.846 183.443 124.638 183.151 124.352 182.922C124.065 182.693 123.674 182.578 123.18 182.578C122.852 182.578 122.549 182.648 122.273 182.789C121.997 182.924 121.76 183.128 121.562 183.398C121.365 183.669 121.211 184 121.102 184.391C120.992 184.781 120.938 185.232 120.938 185.742V186.07C120.938 186.471 120.992 186.849 121.102 187.203C121.216 187.552 121.38 187.859 121.594 188.125C121.812 188.391 122.076 188.599 122.383 188.75C122.695 188.901 123.049 188.977 123.445 188.977C123.956 188.977 124.388 188.872 124.742 188.664C125.096 188.456 125.406 188.177 125.672 187.828L126.547 188.523C126.365 188.799 126.133 189.062 125.852 189.312C125.57 189.562 125.224 189.766 124.812 189.922C124.406 190.078 123.924 190.156 123.367 190.156ZM137.641 188.359V178H139.094V190H137.766L137.641 188.359ZM131.953 185.867V185.703C131.953 185.057 132.031 184.471 132.188 183.945C132.349 183.414 132.576 182.958 132.867 182.578C133.164 182.198 133.516 181.906 133.922 181.703C134.333 181.495 134.792 181.391 135.297 181.391C135.828 181.391 136.292 181.484 136.688 181.672C137.089 181.854 137.427 182.122 137.703 182.477C137.984 182.826 138.206 183.247 138.367 183.742C138.529 184.237 138.641 184.797 138.703 185.422V186.141C138.646 186.76 138.534 187.318 138.367 187.812C138.206 188.307 137.984 188.729 137.703 189.078C137.427 189.427 137.089 189.695 136.688 189.883C136.286 190.065 135.818 190.156 135.281 190.156C134.786 190.156 134.333 190.049 133.922 189.836C133.516 189.622 133.164 189.323 132.867 188.938C132.576 188.552 132.349 188.099 132.188 187.578C132.031 187.052 131.953 186.482 131.953 185.867ZM133.406 185.703V185.867C133.406 186.289 133.448 186.685 133.531 187.055C133.62 187.424 133.755 187.75 133.938 188.031C134.12 188.312 134.352 188.534 134.633 188.695C134.914 188.852 135.25 188.93 135.641 188.93C136.12 188.93 136.513 188.828 136.82 188.625C137.133 188.422 137.383 188.154 137.57 187.82C137.758 187.487 137.904 187.125 138.008 186.734V184.852C137.945 184.565 137.854 184.289 137.734 184.023C137.62 183.753 137.469 183.513 137.281 183.305C137.099 183.091 136.872 182.922 136.602 182.797C136.336 182.672 136.021 182.609 135.656 182.609C135.26 182.609 134.919 182.693 134.633 182.859C134.352 183.021 134.12 183.245 133.938 183.531C133.755 183.812 133.62 184.141 133.531 184.516C133.448 184.885 133.406 185.281 133.406 185.703ZM146.328 188.555V184.203C146.328 183.87 146.26 183.581 146.125 183.336C145.995 183.086 145.797 182.893 145.531 182.758C145.266 182.622 144.938 182.555 144.547 182.555C144.182 182.555 143.862 182.617 143.586 182.742C143.315 182.867 143.102 183.031 142.945 183.234C142.794 183.438 142.719 183.656 142.719 183.891H141.273C141.273 183.589 141.352 183.289 141.508 182.992C141.664 182.695 141.888 182.427 142.18 182.188C142.477 181.943 142.831 181.75 143.242 181.609C143.659 181.464 144.122 181.391 144.633 181.391C145.247 181.391 145.789 181.495 146.258 181.703C146.732 181.911 147.102 182.227 147.367 182.648C147.638 183.065 147.773 183.589 147.773 184.219V188.156C147.773 188.438 147.797 188.737 147.844 189.055C147.896 189.372 147.971 189.646 148.07 189.875V190H146.562C146.49 189.833 146.432 189.612 146.391 189.336C146.349 189.055 146.328 188.794 146.328 188.555ZM146.578 184.875L146.594 185.891H145.133C144.721 185.891 144.354 185.924 144.031 185.992C143.708 186.055 143.438 186.151 143.219 186.281C143 186.411 142.833 186.576 142.719 186.773C142.604 186.966 142.547 187.193 142.547 187.453C142.547 187.719 142.607 187.961 142.727 188.18C142.846 188.398 143.026 188.573 143.266 188.703C143.51 188.828 143.81 188.891 144.164 188.891C144.607 188.891 144.997 188.797 145.336 188.609C145.674 188.422 145.943 188.193 146.141 187.922C146.344 187.651 146.453 187.388 146.469 187.133L147.086 187.828C147.049 188.047 146.951 188.289 146.789 188.555C146.628 188.82 146.411 189.076 146.141 189.32C145.875 189.56 145.557 189.76 145.188 189.922C144.823 190.078 144.411 190.156 143.953 190.156C143.38 190.156 142.878 190.044 142.445 189.82C142.018 189.596 141.685 189.297 141.445 188.922C141.211 188.542 141.094 188.117 141.094 187.648C141.094 187.195 141.182 186.797 141.359 186.453C141.536 186.104 141.792 185.815 142.125 185.586C142.458 185.352 142.859 185.174 143.328 185.055C143.797 184.935 144.32 184.875 144.898 184.875H146.578ZM152.297 189.125L154.648 181.547H156.195L152.805 191.305C152.727 191.513 152.622 191.737 152.492 191.977C152.367 192.221 152.206 192.453 152.008 192.672C151.81 192.891 151.57 193.068 151.289 193.203C151.013 193.344 150.682 193.414 150.297 193.414C150.182 193.414 150.036 193.398 149.859 193.367C149.682 193.336 149.557 193.31 149.484 193.289L149.477 192.117C149.518 192.122 149.583 192.128 149.672 192.133C149.766 192.143 149.831 192.148 149.867 192.148C150.195 192.148 150.474 192.104 150.703 192.016C150.932 191.932 151.125 191.789 151.281 191.586C151.443 191.388 151.581 191.115 151.695 190.766L152.297 189.125ZM150.57 181.547L152.766 188.109L153.141 189.633L152.102 190.164L148.992 181.547H150.57ZM156.68 189.234C156.68 188.99 156.755 188.784 156.906 188.617C157.062 188.445 157.286 188.359 157.578 188.359C157.87 188.359 158.091 188.445 158.242 188.617C158.398 188.784 158.477 188.99 158.477 189.234C158.477 189.474 158.398 189.677 158.242 189.844C158.091 190.01 157.87 190.094 157.578 190.094C157.286 190.094 157.062 190.01 156.906 189.844C156.755 189.677 156.68 189.474 156.68 189.234Z" fill="#333B41"/>
<g clip-path="url(#clip0_34416_677)">
<path d="M401.161 63.6031C401.161 63.6031 413.44 51.7076 424.449 47.7424C424.449 47.7424 398.621 12.3863 344 0.821167C344 0.821167 325.37 12.0558 321.983 34.1947C321.983 34.1947 307.586 37.1686 307.586 44.7685L324.946 51.3772C324.946 51.3772 357.973 46.4207 362.207 47.412C366.441 48.4033 363.477 60.2988 359.667 62.2814C359.667 62.2814 360.937 66.2466 363.477 67.8987C363.477 67.8987 355.009 81.4464 332.991 74.1769C332.991 74.1769 345.27 94.6637 314.361 99.9505C314.361 99.9505 296.578 95.9854 294.037 77.4812C294.037 77.4812 314.784 78.8029 316.902 81.116C316.902 81.116 321.559 78.4725 304.623 76.1595C304.623 76.1595 302.082 74.1769 311.397 67.8987L305.046 67.5683L303.352 53.6902C303.352 53.6902 264.398 60.6292 254.659 84.0899C254.659 84.0899 233.065 132.663 280.911 237.74C280.911 237.74 312.667 242.697 333.838 236.749C333.838 236.749 335.108 221.549 332.145 219.567L318.172 213.288C318.172 213.288 345.694 175.619 337.226 168.68C337.226 168.68 329.181 162.732 327.064 159.098C327.064 159.098 338.919 163.724 343.577 163.724C343.577 163.724 349.081 146.541 359.667 134.315C359.667 134.315 334.262 216.923 344.847 239.723C344.847 239.723 415.981 255.584 412.17 232.123C412.17 232.123 412.593 223.532 401.585 216.262C401.585 216.262 421.062 199.08 421.909 196.767C421.909 196.767 437.998 189.828 426.143 161.411C414.287 132.994 425.719 160.75 425.719 160.75C425.719 160.75 506.592 102.924 454.512 57.3249C454.512 57.3249 433.764 38.1599 401.161 63.6031Z" fill="black"/>
<path d="M356.28 54.6815H345.271H316.055L308.434 52.0381C308.434 52.0381 311.821 61.2902 313.515 61.951C313.515 61.951 322.83 62.2815 327.911 59.638C327.911 59.638 337.649 65.5858 340.613 65.9162C340.613 65.9162 355.01 60.9597 356.28 54.6815Z" fill="black"/>
<path d="M324.099 63.9335L321.558 68.5595C321.558 68.5595 319.441 71.203 324.099 71.203H327.486V65.2552C327.486 65.2552 325.793 63.9335 324.946 63.9335" fill="black"/>
<path d="M321.984 63.9335L318.174 69.2204L313.093 68.5595C313.093 68.5595 316.903 64.2639 321.984 63.9335Z" fill="black"/>
<path d="M471.871 118.124C471.871 118.124 452.817 148.524 433.764 161.411L436.727 180.576C436.727 180.576 446.466 178.593 447.313 179.254C448.16 179.915 474.411 220.228 473.988 222.541C473.988 222.541 465.096 225.515 465.096 227.828L464.249 234.767C464.249 234.767 511.249 238.401 524.798 234.767C524.798 234.767 539.194 222.21 527.762 195.115C527.762 195.115 507.438 177.272 507.014 171.324C507.014 171.324 503.204 161.08 509.555 148.524C509.978 147.863 519.717 115.481 471.871 118.124Z" fill="black"/>
<path d="M435.883 185.532C435.883 185.532 436.306 196.767 410.055 214.94C410.055 214.94 421.91 227.827 419.37 231.792L431.225 230.471C431.225 230.471 439.27 210.645 439.27 208.662C439.27 208.662 433.343 204.367 432.496 202.053C432.496 202.053 453.667 192.141 445.622 185.532C443.505 184.541 435.883 184.541 435.883 185.532Z" fill="black"/>
</g>
<defs>
<clipPath id="clip0_34416_677">
<rect width="284" height="246" fill="white" transform="translate(249)"/>
</clipPath>
</defs>
</svg>
