<svg width="563" height="246" viewBox="0 0 563 246" fill="none" xmlns="http://www.w3.org/2000/svg">
<path d="M117.004 159H108.496V117.902L95.9453 122.191V114.984L115.914 107.637H117.004V159Z" fill="black"/>
<path d="M202 144C201.744 144 201.488 143.902 201.293 143.707C200.902 143.316 200.902 142.684 201.293 142.293L213.293 130.293C213.684 129.902 214.316 129.902 214.707 130.293C215.098 130.684 215.098 131.316 214.707 131.707L202.707 143.707C202.512 143.902 202.256 144 202 144Z" fill="#333B41"/>
<path d="M214 144C213.744 144 213.488 143.902 213.293 143.707L201.293 131.707C200.902 131.316 200.902 130.684 201.293 130.293C201.684 129.902 202.316 129.902 202.707 130.293L214.707 142.293C215.098 142.684 215.098 143.316 214.707 143.707C214.512 143.902 214.256 144 214 144Z" fill="#333B41"/>
<path d="M5.82031 178.625V190H4.33594V178.625H5.82031ZM9.47656 178.625V179.859H0.6875V178.625H9.47656ZM12.6328 188.5L14.8047 181.547H15.7578L15.5703 182.93L13.3594 190H12.4297L12.6328 188.5ZM11.1719 181.547L13.0234 188.578L13.1562 190H12.1797L9.72656 181.547H11.1719ZM17.8359 188.523L19.6016 181.547H21.0391L18.5859 190H17.6172L17.8359 188.523ZM15.9688 181.547L18.0938 188.383L18.3359 190H17.4141L15.1406 182.914L14.9531 181.547H15.9688ZM22.1406 185.867V185.688C22.1406 185.078 22.2292 184.513 22.4062 183.992C22.5833 183.466 22.8385 183.01 23.1719 182.625C23.5052 182.234 23.9089 181.932 24.3828 181.719C24.8568 181.5 25.388 181.391 25.9766 181.391C26.5703 181.391 27.1042 181.5 27.5781 181.719C28.0573 181.932 28.4635 182.234 28.7969 182.625C29.1354 183.01 29.3932 183.466 29.5703 183.992C29.7474 184.513 29.8359 185.078 29.8359 185.688V185.867C29.8359 186.477 29.7474 187.042 29.5703 187.562C29.3932 188.083 29.1354 188.539 28.7969 188.93C28.4635 189.315 28.0599 189.617 27.5859 189.836C27.1172 190.049 26.5859 190.156 25.9922 190.156C25.3984 190.156 24.8646 190.049 24.3906 189.836C23.9167 189.617 23.5104 189.315 23.1719 188.93C22.8385 188.539 22.5833 188.083 22.4062 187.562C22.2292 187.042 22.1406 186.477 22.1406 185.867ZM23.5859 185.688V185.867C23.5859 186.289 23.6354 186.688 23.7344 187.062C23.8333 187.432 23.9818 187.76 24.1797 188.047C24.3828 188.333 24.6354 188.56 24.9375 188.727C25.2396 188.888 25.5911 188.969 25.9922 188.969C26.388 188.969 26.7344 188.888 27.0312 188.727C27.3333 188.56 27.5833 188.333 27.7812 188.047C27.9792 187.76 28.1276 187.432 28.2266 187.062C28.3307 186.688 28.3828 186.289 28.3828 185.867V185.688C28.3828 185.271 28.3307 184.878 28.2266 184.508C28.1276 184.133 27.9766 183.802 27.7734 183.516C27.5755 183.224 27.3255 182.995 27.0234 182.828C26.7266 182.661 26.3776 182.578 25.9766 182.578C25.5807 182.578 25.2318 182.661 24.9297 182.828C24.6328 182.995 24.3828 183.224 24.1797 183.516C23.9818 183.802 23.8333 184.133 23.7344 184.508C23.6354 184.878 23.5859 185.271 23.5859 185.688ZM34.6562 184.57V185.758H30.8438V184.57H34.6562ZM39.6094 181.547V182.656H35.0391V181.547H39.6094ZM36.5859 179.492H38.0312V187.906C38.0312 188.193 38.0755 188.409 38.1641 188.555C38.2526 188.701 38.3672 188.797 38.5078 188.844C38.6484 188.891 38.7995 188.914 38.9609 188.914C39.0807 188.914 39.2057 188.904 39.3359 188.883C39.4714 188.857 39.5729 188.836 39.6406 188.82L39.6484 190C39.5339 190.036 39.3828 190.07 39.1953 190.102C39.013 190.138 38.7917 190.156 38.5312 190.156C38.1771 190.156 37.8516 190.086 37.5547 189.945C37.2578 189.805 37.0208 189.57 36.8438 189.242C36.6719 188.909 36.5859 188.461 36.5859 187.898V179.492ZM40.7656 185.867V185.688C40.7656 185.078 40.8542 184.513 41.0312 183.992C41.2083 183.466 41.4635 183.01 41.7969 182.625C42.1302 182.234 42.5339 181.932 43.0078 181.719C43.4818 181.5 44.013 181.391 44.6016 181.391C45.1953 181.391 45.7292 181.5 46.2031 181.719C46.6823 181.932 47.0885 182.234 47.4219 182.625C47.7604 183.01 48.0182 183.466 48.1953 183.992C48.3724 184.513 48.4609 185.078 48.4609 185.688V185.867C48.4609 186.477 48.3724 187.042 48.1953 187.562C48.0182 188.083 47.7604 188.539 47.4219 188.93C47.0885 189.315 46.6849 189.617 46.2109 189.836C45.7422 190.049 45.2109 190.156 44.6172 190.156C44.0234 190.156 43.4896 190.049 43.0156 189.836C42.5417 189.617 42.1354 189.315 41.7969 188.93C41.4635 188.539 41.2083 188.083 41.0312 187.562C40.8542 187.042 40.7656 186.477 40.7656 185.867ZM42.2109 185.688V185.867C42.2109 186.289 42.2604 186.688 42.3594 187.062C42.4583 187.432 42.6068 187.76 42.8047 188.047C43.0078 188.333 43.2604 188.56 43.5625 188.727C43.8646 188.888 44.2161 188.969 44.6172 188.969C45.013 188.969 45.3594 188.888 45.6562 188.727C45.9583 188.56 46.2083 188.333 46.4062 188.047C46.6042 187.76 46.7526 187.432 46.8516 187.062C46.9557 186.688 47.0078 186.289 47.0078 185.867V185.688C47.0078 185.271 46.9557 184.878 46.8516 184.508C46.7526 184.133 46.6016 183.802 46.3984 183.516C46.2005 183.224 45.9505 182.995 45.6484 182.828C45.3516 182.661 45.0026 182.578 44.6016 182.578C44.2057 182.578 43.8568 182.661 43.5547 182.828C43.2578 182.995 43.0078 183.224 42.8047 183.516C42.6068 183.802 42.4583 184.133 42.3594 184.508C42.2604 184.878 42.2109 185.271 42.2109 185.688ZM53.7812 190.156C53.1927 190.156 52.6589 190.057 52.1797 189.859C51.7057 189.656 51.2969 189.372 50.9531 189.008C50.6146 188.643 50.3542 188.211 50.1719 187.711C49.9896 187.211 49.8984 186.664 49.8984 186.07V185.742C49.8984 185.055 50 184.443 50.2031 183.906C50.4062 183.365 50.6823 182.906 51.0312 182.531C51.3802 182.156 51.776 181.872 52.2188 181.68C52.6615 181.487 53.1198 181.391 53.5938 181.391C54.1979 181.391 54.7188 181.495 55.1562 181.703C55.599 181.911 55.9609 182.203 56.2422 182.578C56.5234 182.948 56.7318 183.385 56.8672 183.891C57.0026 184.391 57.0703 184.938 57.0703 185.531V186.18H50.7578V185H55.625V184.891C55.6042 184.516 55.526 184.151 55.3906 183.797C55.2604 183.443 55.0521 183.151 54.7656 182.922C54.4792 182.693 54.0885 182.578 53.5938 182.578C53.2656 182.578 52.9635 182.648 52.6875 182.789C52.4115 182.924 52.1745 183.128 51.9766 183.398C51.7786 183.669 51.625 184 51.5156 184.391C51.4062 184.781 51.3516 185.232 51.3516 185.742V186.07C51.3516 186.471 51.4062 186.849 51.5156 187.203C51.6302 187.552 51.7943 187.859 52.0078 188.125C52.2266 188.391 52.4896 188.599 52.7969 188.75C53.1094 188.901 53.4635 188.977 53.8594 188.977C54.3698 188.977 54.8021 188.872 55.1562 188.664C55.5104 188.456 55.8203 188.177 56.0859 187.828L56.9609 188.523C56.7786 188.799 56.5469 189.062 56.2656 189.312C55.9844 189.562 55.638 189.766 55.2266 189.922C54.8203 190.078 54.3385 190.156 53.7812 190.156ZM64.0859 188.359V178H65.5391V190H64.2109L64.0859 188.359ZM58.3984 185.867V185.703C58.3984 185.057 58.4766 184.471 58.6328 183.945C58.7943 183.414 59.0208 182.958 59.3125 182.578C59.6094 182.198 59.9609 181.906 60.3672 181.703C60.7786 181.495 61.237 181.391 61.7422 181.391C62.2734 181.391 62.737 181.484 63.1328 181.672C63.5339 181.854 63.8724 182.122 64.1484 182.477C64.4297 182.826 64.651 183.247 64.8125 183.742C64.974 184.237 65.0859 184.797 65.1484 185.422V186.141C65.0911 186.76 64.9792 187.318 64.8125 187.812C64.651 188.307 64.4297 188.729 64.1484 189.078C63.8724 189.427 63.5339 189.695 63.1328 189.883C62.7318 190.065 62.263 190.156 61.7266 190.156C61.2318 190.156 60.7786 190.049 60.3672 189.836C59.9609 189.622 59.6094 189.323 59.3125 188.938C59.0208 188.552 58.7943 188.099 58.6328 187.578C58.4766 187.052 58.3984 186.482 58.3984 185.867ZM59.8516 185.703V185.867C59.8516 186.289 59.8932 186.685 59.9766 187.055C60.0651 187.424 60.2005 187.75 60.3828 188.031C60.5651 188.312 60.7969 188.534 61.0781 188.695C61.3594 188.852 61.6953 188.93 62.0859 188.93C62.5651 188.93 62.9583 188.828 63.2656 188.625C63.5781 188.422 63.8281 188.154 64.0156 187.82C64.2031 187.487 64.349 187.125 64.4531 186.734V184.852C64.3906 184.565 64.2995 184.289 64.1797 184.023C64.0651 183.753 63.9141 183.513 63.7266 183.305C63.5443 183.091 63.3177 182.922 63.0469 182.797C62.7812 182.672 62.4661 182.609 62.1016 182.609C61.7057 182.609 61.3646 182.693 61.0781 182.859C60.7969 183.021 60.5651 183.245 60.3828 183.531C60.2005 183.812 60.0651 184.141 59.9766 184.516C59.8932 184.885 59.8516 185.281 59.8516 185.703ZM76.6797 187.758C76.6797 187.549 76.6328 187.357 76.5391 187.18C76.4505 186.997 76.2656 186.833 75.9844 186.688C75.7083 186.536 75.2917 186.406 74.7344 186.297C74.2656 186.198 73.8411 186.081 73.4609 185.945C73.0859 185.81 72.7656 185.646 72.5 185.453C72.2396 185.26 72.0391 185.034 71.8984 184.773C71.7578 184.513 71.6875 184.208 71.6875 183.859C71.6875 183.526 71.7604 183.211 71.9062 182.914C72.0573 182.617 72.2682 182.354 72.5391 182.125C72.8151 181.896 73.1458 181.716 73.5312 181.586C73.9167 181.456 74.3464 181.391 74.8203 181.391C75.4974 181.391 76.0755 181.51 76.5547 181.75C77.0339 181.99 77.401 182.31 77.6562 182.711C77.9115 183.107 78.0391 183.547 78.0391 184.031H76.5938C76.5938 183.797 76.5234 183.57 76.3828 183.352C76.2474 183.128 76.0469 182.943 75.7812 182.797C75.5208 182.651 75.2005 182.578 74.8203 182.578C74.4193 182.578 74.0938 182.641 73.8438 182.766C73.599 182.885 73.4193 183.039 73.3047 183.227C73.1953 183.414 73.1406 183.612 73.1406 183.82C73.1406 183.977 73.1667 184.117 73.2188 184.242C73.276 184.362 73.375 184.474 73.5156 184.578C73.6562 184.677 73.8542 184.771 74.1094 184.859C74.3646 184.948 74.6901 185.036 75.0859 185.125C75.7786 185.281 76.349 185.469 76.7969 185.688C77.2448 185.906 77.5781 186.174 77.7969 186.492C78.0156 186.81 78.125 187.195 78.125 187.648C78.125 188.018 78.0469 188.357 77.8906 188.664C77.7396 188.971 77.5182 189.237 77.2266 189.461C76.9401 189.68 76.5964 189.852 76.1953 189.977C75.7995 190.096 75.3542 190.156 74.8594 190.156C74.1146 190.156 73.4844 190.023 72.9688 189.758C72.4531 189.492 72.0625 189.148 71.7969 188.727C71.5312 188.305 71.3984 187.859 71.3984 187.391H72.8516C72.8724 187.786 72.987 188.102 73.1953 188.336C73.4036 188.565 73.6589 188.729 73.9609 188.828C74.263 188.922 74.5625 188.969 74.8594 188.969C75.2552 188.969 75.5859 188.917 75.8516 188.812C76.1224 188.708 76.3281 188.565 76.4688 188.383C76.6094 188.201 76.6797 187.992 76.6797 187.758ZM81.5938 178V190H80.1406V178H81.5938ZM83.5312 185.867V185.688C83.5312 185.078 83.6198 184.513 83.7969 183.992C83.974 183.466 84.2292 183.01 84.5625 182.625C84.8958 182.234 85.2995 181.932 85.7734 181.719C86.2474 181.5 86.7786 181.391 87.3672 181.391C87.9609 181.391 88.4948 181.5 88.9688 181.719C89.4479 181.932 89.8542 182.234 90.1875 182.625C90.526 183.01 90.7839 183.466 90.9609 183.992C91.138 184.513 91.2266 185.078 91.2266 185.688V185.867C91.2266 186.477 91.138 187.042 90.9609 187.562C90.7839 188.083 90.526 188.539 90.1875 188.93C89.8542 189.315 89.4505 189.617 88.9766 189.836C88.5078 190.049 87.9766 190.156 87.3828 190.156C86.7891 190.156 86.2552 190.049 85.7812 189.836C85.3073 189.617 84.901 189.315 84.5625 188.93C84.2292 188.539 83.974 188.083 83.7969 187.562C83.6198 187.042 83.5312 186.477 83.5312 185.867ZM84.9766 185.688V185.867C84.9766 186.289 85.026 186.688 85.125 187.062C85.224 187.432 85.3724 187.76 85.5703 188.047C85.7734 188.333 86.026 188.56 86.3281 188.727C86.6302 188.888 86.9818 188.969 87.3828 188.969C87.7786 188.969 88.125 188.888 88.4219 188.727C88.724 188.56 88.974 188.333 89.1719 188.047C89.3698 187.76 89.5182 187.432 89.6172 187.062C89.7214 186.688 89.7734 186.289 89.7734 185.867V185.688C89.7734 185.271 89.7214 184.878 89.6172 184.508C89.5182 184.133 89.3672 183.802 89.1641 183.516C88.9661 183.224 88.7161 182.995 88.4141 182.828C88.1172 182.661 87.7682 182.578 87.3672 182.578C86.9714 182.578 86.6224 182.661 86.3203 182.828C86.0234 182.995 85.7734 183.224 85.5703 183.516C85.3724 183.802 85.224 184.133 85.125 184.508C85.026 184.878 84.9766 185.271 84.9766 185.688ZM96.5781 181.547V182.656H92.0078V181.547H96.5781ZM93.5547 179.492H95V187.906C95 188.193 95.0443 188.409 95.1328 188.555C95.2214 188.701 95.3359 188.797 95.4766 188.844C95.6172 188.891 95.7682 188.914 95.9297 188.914C96.0495 188.914 96.1745 188.904 96.3047 188.883C96.4401 188.857 96.5417 188.836 96.6094 188.82L96.6172 190C96.5026 190.036 96.3516 190.07 96.1641 190.102C95.9818 190.138 95.7604 190.156 95.5 190.156C95.1458 190.156 94.8203 190.086 94.5234 189.945C94.2266 189.805 93.9896 189.57 93.8125 189.242C93.6406 188.909 93.5547 188.461 93.5547 187.898V179.492ZM99.7188 178V190H98.2734V178H99.7188ZM99.375 185.453L98.7734 185.43C98.7786 184.852 98.8646 184.318 99.0312 183.828C99.1979 183.333 99.4323 182.904 99.7344 182.539C100.036 182.174 100.396 181.893 100.812 181.695C101.234 181.492 101.701 181.391 102.211 181.391C102.628 181.391 103.003 181.448 103.336 181.562C103.669 181.672 103.953 181.849 104.188 182.094C104.427 182.339 104.609 182.656 104.734 183.047C104.859 183.432 104.922 183.904 104.922 184.461V190H103.469V184.445C103.469 184.003 103.404 183.648 103.273 183.383C103.143 183.112 102.953 182.917 102.703 182.797C102.453 182.672 102.146 182.609 101.781 182.609C101.422 182.609 101.094 182.685 100.797 182.836C100.505 182.987 100.253 183.195 100.039 183.461C99.8307 183.727 99.6667 184.031 99.5469 184.375C99.4323 184.714 99.375 185.073 99.375 185.453ZM116.383 188.359V178H117.836V190H116.508L116.383 188.359ZM110.695 185.867V185.703C110.695 185.057 110.773 184.471 110.93 183.945C111.091 183.414 111.318 182.958 111.609 182.578C111.906 182.198 112.258 181.906 112.664 181.703C113.076 181.495 113.534 181.391 114.039 181.391C114.57 181.391 115.034 181.484 115.43 181.672C115.831 181.854 116.169 182.122 116.445 182.477C116.727 182.826 116.948 183.247 117.109 183.742C117.271 184.237 117.383 184.797 117.445 185.422V186.141C117.388 186.76 117.276 187.318 117.109 187.812C116.948 188.307 116.727 188.729 116.445 189.078C116.169 189.427 115.831 189.695 115.43 189.883C115.029 190.065 114.56 190.156 114.023 190.156C113.529 190.156 113.076 190.049 112.664 189.836C112.258 189.622 111.906 189.323 111.609 188.938C111.318 188.552 111.091 188.099 110.93 187.578C110.773 187.052 110.695 186.482 110.695 185.867ZM112.148 185.703V185.867C112.148 186.289 112.19 186.685 112.273 187.055C112.362 187.424 112.497 187.75 112.68 188.031C112.862 188.312 113.094 188.534 113.375 188.695C113.656 188.852 113.992 188.93 114.383 188.93C114.862 188.93 115.255 188.828 115.562 188.625C115.875 188.422 116.125 188.154 116.312 187.82C116.5 187.487 116.646 187.125 116.75 186.734V184.852C116.688 184.565 116.596 184.289 116.477 184.023C116.362 183.753 116.211 183.513 116.023 183.305C115.841 183.091 115.615 182.922 115.344 182.797C115.078 182.672 114.763 182.609 114.398 182.609C114.003 182.609 113.661 182.693 113.375 182.859C113.094 183.021 112.862 183.245 112.68 183.531C112.497 183.812 112.362 184.141 112.273 184.516C112.19 184.885 112.148 185.281 112.148 185.703ZM121.656 181.547V190H120.203V181.547H121.656ZM120.094 179.305C120.094 179.07 120.164 178.872 120.305 178.711C120.451 178.549 120.664 178.469 120.945 178.469C121.221 178.469 121.432 178.549 121.578 178.711C121.729 178.872 121.805 179.07 121.805 179.305C121.805 179.529 121.729 179.721 121.578 179.883C121.432 180.039 121.221 180.117 120.945 180.117C120.664 180.117 120.451 180.039 120.305 179.883C120.164 179.721 120.094 179.529 120.094 179.305ZM127.484 190.156C126.896 190.156 126.362 190.057 125.883 189.859C125.409 189.656 125 189.372 124.656 189.008C124.318 188.643 124.057 188.211 123.875 187.711C123.693 187.211 123.602 186.664 123.602 186.07V185.742C123.602 185.055 123.703 184.443 123.906 183.906C124.109 183.365 124.385 182.906 124.734 182.531C125.083 182.156 125.479 181.872 125.922 181.68C126.365 181.487 126.823 181.391 127.297 181.391C127.901 181.391 128.422 181.495 128.859 181.703C129.302 181.911 129.664 182.203 129.945 182.578C130.227 182.948 130.435 183.385 130.57 183.891C130.706 184.391 130.773 184.938 130.773 185.531V186.18H124.461V185H129.328V184.891C129.307 184.516 129.229 184.151 129.094 183.797C128.964 183.443 128.755 183.151 128.469 182.922C128.182 182.693 127.792 182.578 127.297 182.578C126.969 182.578 126.667 182.648 126.391 182.789C126.115 182.924 125.878 183.128 125.68 183.398C125.482 183.669 125.328 184 125.219 184.391C125.109 184.781 125.055 185.232 125.055 185.742V186.07C125.055 186.471 125.109 186.849 125.219 187.203C125.333 187.552 125.497 187.859 125.711 188.125C125.93 188.391 126.193 188.599 126.5 188.75C126.812 188.901 127.167 188.977 127.562 188.977C128.073 188.977 128.505 188.872 128.859 188.664C129.214 188.456 129.523 188.177 129.789 187.828L130.664 188.523C130.482 188.799 130.25 189.062 129.969 189.312C129.688 189.562 129.341 189.766 128.93 189.922C128.523 190.078 128.042 190.156 127.484 190.156ZM136 181.547V182.656H131.43V181.547H136ZM132.977 179.492H134.422V187.906C134.422 188.193 134.466 188.409 134.555 188.555C134.643 188.701 134.758 188.797 134.898 188.844C135.039 188.891 135.19 188.914 135.352 188.914C135.471 188.914 135.596 188.904 135.727 188.883C135.862 188.857 135.964 188.836 136.031 188.82L136.039 190C135.924 190.036 135.773 190.07 135.586 190.102C135.404 190.138 135.182 190.156 134.922 190.156C134.568 190.156 134.242 190.086 133.945 189.945C133.648 189.805 133.411 189.57 133.234 189.242C133.062 188.909 132.977 188.461 132.977 187.898V179.492ZM143.82 190H142.375V180.656C142.375 180.047 142.484 179.534 142.703 179.117C142.927 178.695 143.247 178.378 143.664 178.164C144.081 177.945 144.576 177.836 145.148 177.836C145.315 177.836 145.482 177.846 145.648 177.867C145.82 177.888 145.987 177.919 146.148 177.961L146.07 179.141C145.961 179.115 145.836 179.096 145.695 179.086C145.56 179.076 145.424 179.07 145.289 179.07C144.982 179.07 144.716 179.133 144.492 179.258C144.273 179.378 144.107 179.555 143.992 179.789C143.878 180.023 143.82 180.312 143.82 180.656V190ZM145.617 181.547V182.656H141.039V181.547H145.617ZM146.844 185.867V185.688C146.844 185.078 146.932 184.513 147.109 183.992C147.286 183.466 147.542 183.01 147.875 182.625C148.208 182.234 148.612 181.932 149.086 181.719C149.56 181.5 150.091 181.391 150.68 181.391C151.273 181.391 151.807 181.5 152.281 181.719C152.76 181.932 153.167 182.234 153.5 182.625C153.839 183.01 154.096 183.466 154.273 183.992C154.451 184.513 154.539 185.078 154.539 185.688V185.867C154.539 186.477 154.451 187.042 154.273 187.562C154.096 188.083 153.839 188.539 153.5 188.93C153.167 189.315 152.763 189.617 152.289 189.836C151.82 190.049 151.289 190.156 150.695 190.156C150.102 190.156 149.568 190.049 149.094 189.836C148.62 189.617 148.214 189.315 147.875 188.93C147.542 188.539 147.286 188.083 147.109 187.562C146.932 187.042 146.844 186.477 146.844 185.867ZM148.289 185.688V185.867C148.289 186.289 148.339 186.688 148.438 187.062C148.536 187.432 148.685 187.76 148.883 188.047C149.086 188.333 149.339 188.56 149.641 188.727C149.943 188.888 150.294 188.969 150.695 188.969C151.091 188.969 151.438 188.888 151.734 188.727C152.036 188.56 152.286 188.333 152.484 188.047C152.682 187.76 152.831 187.432 152.93 187.062C153.034 186.688 153.086 186.289 153.086 185.867V185.688C153.086 185.271 153.034 184.878 152.93 184.508C152.831 184.133 152.68 183.802 152.477 183.516C152.279 183.224 152.029 182.995 151.727 182.828C151.43 182.661 151.081 182.578 150.68 182.578C150.284 182.578 149.935 182.661 149.633 182.828C149.336 182.995 149.086 183.224 148.883 183.516C148.685 183.802 148.536 184.133 148.438 184.508C148.339 184.878 148.289 185.271 148.289 185.688ZM157.797 182.875V190H156.352V181.547H157.758L157.797 182.875ZM160.438 181.5L160.43 182.844C160.31 182.818 160.195 182.802 160.086 182.797C159.982 182.786 159.862 182.781 159.727 182.781C159.393 182.781 159.099 182.833 158.844 182.938C158.589 183.042 158.372 183.188 158.195 183.375C158.018 183.562 157.878 183.786 157.773 184.047C157.674 184.302 157.609 184.583 157.578 184.891L157.172 185.125C157.172 184.615 157.221 184.135 157.32 183.688C157.424 183.24 157.583 182.844 157.797 182.5C158.01 182.151 158.281 181.88 158.609 181.688C158.943 181.49 159.339 181.391 159.797 181.391C159.901 181.391 160.021 181.404 160.156 181.43C160.292 181.451 160.385 181.474 160.438 181.5ZM169.281 181.547V182.656H164.711V181.547H169.281ZM166.258 179.492H167.703V187.906C167.703 188.193 167.747 188.409 167.836 188.555C167.924 188.701 168.039 188.797 168.18 188.844C168.32 188.891 168.471 188.914 168.633 188.914C168.753 188.914 168.878 188.904 169.008 188.883C169.143 188.857 169.245 188.836 169.312 188.82L169.32 190C169.206 190.036 169.055 190.07 168.867 190.102C168.685 190.138 168.464 190.156 168.203 190.156C167.849 190.156 167.523 190.086 167.227 189.945C166.93 189.805 166.693 189.57 166.516 189.242C166.344 188.909 166.258 188.461 166.258 187.898V179.492ZM172.422 178V190H170.977V178H172.422ZM172.078 185.453L171.477 185.43C171.482 184.852 171.568 184.318 171.734 183.828C171.901 183.333 172.135 182.904 172.438 182.539C172.74 182.174 173.099 181.893 173.516 181.695C173.938 181.492 174.404 181.391 174.914 181.391C175.331 181.391 175.706 181.448 176.039 181.562C176.372 181.672 176.656 181.849 176.891 182.094C177.13 182.339 177.312 182.656 177.438 183.047C177.562 183.432 177.625 183.904 177.625 184.461V190H176.172V184.445C176.172 184.003 176.107 183.648 175.977 183.383C175.846 183.112 175.656 182.917 175.406 182.797C175.156 182.672 174.849 182.609 174.484 182.609C174.125 182.609 173.797 182.685 173.5 182.836C173.208 182.987 172.956 183.195 172.742 183.461C172.534 183.727 172.37 184.031 172.25 184.375C172.135 184.714 172.078 185.073 172.078 185.453ZM183.297 190.156C182.708 190.156 182.174 190.057 181.695 189.859C181.221 189.656 180.812 189.372 180.469 189.008C180.13 188.643 179.87 188.211 179.688 187.711C179.505 187.211 179.414 186.664 179.414 186.07V185.742C179.414 185.055 179.516 184.443 179.719 183.906C179.922 183.365 180.198 182.906 180.547 182.531C180.896 182.156 181.292 181.872 181.734 181.68C182.177 181.487 182.635 181.391 183.109 181.391C183.714 181.391 184.234 181.495 184.672 181.703C185.115 181.911 185.477 182.203 185.758 182.578C186.039 182.948 186.247 183.385 186.383 183.891C186.518 184.391 186.586 184.938 186.586 185.531V186.18H180.273V185H185.141V184.891C185.12 184.516 185.042 184.151 184.906 183.797C184.776 183.443 184.568 183.151 184.281 182.922C183.995 182.693 183.604 182.578 183.109 182.578C182.781 182.578 182.479 182.648 182.203 182.789C181.927 182.924 181.69 183.128 181.492 183.398C181.294 183.669 181.141 184 181.031 184.391C180.922 184.781 180.867 185.232 180.867 185.742V186.07C180.867 186.471 180.922 186.849 181.031 187.203C181.146 187.552 181.31 187.859 181.523 188.125C181.742 188.391 182.005 188.599 182.312 188.75C182.625 188.901 182.979 188.977 183.375 188.977C183.885 188.977 184.318 188.872 184.672 188.664C185.026 188.456 185.336 188.177 185.602 187.828L186.477 188.523C186.294 188.799 186.062 189.062 185.781 189.312C185.5 189.562 185.154 189.766 184.742 189.922C184.336 190.078 183.854 190.156 183.297 190.156ZM197.57 188.359V178H199.023V190H197.695L197.57 188.359ZM191.883 185.867V185.703C191.883 185.057 191.961 184.471 192.117 183.945C192.279 183.414 192.505 182.958 192.797 182.578C193.094 182.198 193.445 181.906 193.852 181.703C194.263 181.495 194.721 181.391 195.227 181.391C195.758 181.391 196.221 181.484 196.617 181.672C197.018 181.854 197.357 182.122 197.633 182.477C197.914 182.826 198.135 183.247 198.297 183.742C198.458 184.237 198.57 184.797 198.633 185.422V186.141C198.576 186.76 198.464 187.318 198.297 187.812C198.135 188.307 197.914 188.729 197.633 189.078C197.357 189.427 197.018 189.695 196.617 189.883C196.216 190.065 195.747 190.156 195.211 190.156C194.716 190.156 194.263 190.049 193.852 189.836C193.445 189.622 193.094 189.323 192.797 188.938C192.505 188.552 192.279 188.099 192.117 187.578C191.961 187.052 191.883 186.482 191.883 185.867ZM193.336 185.703V185.867C193.336 186.289 193.378 186.685 193.461 187.055C193.549 187.424 193.685 187.75 193.867 188.031C194.049 188.312 194.281 188.534 194.562 188.695C194.844 188.852 195.18 188.93 195.57 188.93C196.049 188.93 196.443 188.828 196.75 188.625C197.062 188.422 197.312 188.154 197.5 187.82C197.688 187.487 197.833 187.125 197.938 186.734V184.852C197.875 184.565 197.784 184.289 197.664 184.023C197.549 183.753 197.398 183.513 197.211 183.305C197.029 183.091 196.802 182.922 196.531 182.797C196.266 182.672 195.951 182.609 195.586 182.609C195.19 182.609 194.849 182.693 194.562 182.859C194.281 183.021 194.049 183.245 193.867 183.531C193.685 183.812 193.549 184.141 193.461 184.516C193.378 184.885 193.336 185.281 193.336 185.703ZM206.258 188.555V184.203C206.258 183.87 206.19 183.581 206.055 183.336C205.924 183.086 205.727 182.893 205.461 182.758C205.195 182.622 204.867 182.555 204.477 182.555C204.112 182.555 203.792 182.617 203.516 182.742C203.245 182.867 203.031 183.031 202.875 183.234C202.724 183.438 202.648 183.656 202.648 183.891H201.203C201.203 183.589 201.281 183.289 201.438 182.992C201.594 182.695 201.818 182.427 202.109 182.188C202.406 181.943 202.76 181.75 203.172 181.609C203.589 181.464 204.052 181.391 204.562 181.391C205.177 181.391 205.719 181.495 206.188 181.703C206.661 181.911 207.031 182.227 207.297 182.648C207.568 183.065 207.703 183.589 207.703 184.219V188.156C207.703 188.438 207.727 188.737 207.773 189.055C207.826 189.372 207.901 189.646 208 189.875V190H206.492C206.419 189.833 206.362 189.612 206.32 189.336C206.279 189.055 206.258 188.794 206.258 188.555ZM206.508 184.875L206.523 185.891H205.062C204.651 185.891 204.284 185.924 203.961 185.992C203.638 186.055 203.367 186.151 203.148 186.281C202.93 186.411 202.763 186.576 202.648 186.773C202.534 186.966 202.477 187.193 202.477 187.453C202.477 187.719 202.536 187.961 202.656 188.18C202.776 188.398 202.956 188.573 203.195 188.703C203.44 188.828 203.74 188.891 204.094 188.891C204.536 188.891 204.927 188.797 205.266 188.609C205.604 188.422 205.872 188.193 206.07 187.922C206.273 187.651 206.383 187.388 206.398 187.133L207.016 187.828C206.979 188.047 206.88 188.289 206.719 188.555C206.557 188.82 206.341 189.076 206.07 189.32C205.805 189.56 205.487 189.76 205.117 189.922C204.753 190.078 204.341 190.156 203.883 190.156C203.31 190.156 202.807 190.044 202.375 189.82C201.948 189.596 201.615 189.297 201.375 188.922C201.141 188.542 201.023 188.117 201.023 187.648C201.023 187.195 201.112 186.797 201.289 186.453C201.466 186.104 201.721 185.815 202.055 185.586C202.388 185.352 202.789 185.174 203.258 185.055C203.727 184.935 204.25 184.875 204.828 184.875H206.508ZM212.227 189.125L214.578 181.547H216.125L212.734 191.305C212.656 191.513 212.552 191.737 212.422 191.977C212.297 192.221 212.135 192.453 211.938 192.672C211.74 192.891 211.5 193.068 211.219 193.203C210.943 193.344 210.612 193.414 210.227 193.414C210.112 193.414 209.966 193.398 209.789 193.367C209.612 193.336 209.487 193.31 209.414 193.289L209.406 192.117C209.448 192.122 209.513 192.128 209.602 192.133C209.695 192.143 209.76 192.148 209.797 192.148C210.125 192.148 210.404 192.104 210.633 192.016C210.862 191.932 211.055 191.789 211.211 191.586C211.372 191.388 211.51 191.115 211.625 190.766L212.227 189.125ZM210.5 181.547L212.695 188.109L213.07 189.633L212.031 190.164L208.922 181.547H210.5ZM216.609 189.234C216.609 188.99 216.685 188.784 216.836 188.617C216.992 188.445 217.216 188.359 217.508 188.359C217.799 188.359 218.021 188.445 218.172 188.617C218.328 188.784 218.406 188.99 218.406 189.234C218.406 189.474 218.328 189.677 218.172 189.844C218.021 190.01 217.799 190.094 217.508 190.094C217.216 190.094 216.992 190.01 216.836 189.844C216.685 189.677 216.609 189.474 216.609 189.234Z" fill="#333B41"/>
<path d="M454.204 47.8722C450.502 46.3872 425.688 39.3297 417.914 50.4717C417.914 50.4717 414.95 53.0712 419.767 59.3876C419.767 59.3876 423.469 52.3302 428.655 51.5862C429.6 51.4517 430.907 51.3919 432.432 51.374L433.1 46.0137L434.434 51.374C441.315 51.4368 451.002 52.0403 454.577 51.2157C454.577 51.2157 451.985 53.0712 442.355 53.4447L442.724 63.1016L439.546 53.5343C435.513 53.6538 432.367 53.7883 429.126 55.0462L429.763 67.1861L426.642 56.2264C424.372 57.5082 421.935 59.4355 419.025 62.3576C419.025 62.3576 422.358 72.0146 431.616 71.6441C440.874 71.2736 460.502 55.6707 463.465 46.7577C463.462 46.7577 457.907 49.3602 454.204 47.8722Z" fill="black"/>
<path d="M429.781 13.9795C426.025 15.3269 402.778 26.5311 404.316 40.0449C404.316 40.0449 403.815 43.9618 411.59 45.4916C411.59 45.4916 409.701 37.7443 413.094 33.7436C413.711 33.0146 414.652 32.1003 415.781 31.0755L412.743 26.6178L417.282 29.746C422.477 25.2195 430.133 19.235 432.266 16.2412C432.266 16.2412 431.551 19.3545 424.583 26.0322L431.241 33.0206L422.54 27.9682C419.6 30.7379 417.33 32.928 415.733 36.0263L424.229 44.6968L414.652 38.5629C413.8 41.0338 413.246 44.0933 412.996 48.2164C412.996 48.2164 421.873 53.2359 428.56 46.8032C435.25 40.3735 439.647 15.6437 435.977 7C435.98 6.99403 433.537 12.632 429.781 13.9795Z" fill="black"/>
<path d="M539.38 102.104C539.011 91.7036 527.158 80.5591 521.975 74.6163C516.792 68.6735 506.423 66.0741 497.165 66.0741C487.906 66.0741 483.093 73.8753 483.093 73.8753C483.093 73.8753 496.426 70.532 500.128 71.6464C503.831 72.7609 522.347 85.3904 529.756 99.1343C537.161 112.878 529.014 122.535 525.311 129.592C521.609 136.649 506.053 138.508 493.093 137.393C480.132 136.279 473.096 129.592 470.132 123.649C467.168 117.707 467.54 106.936 467.54 106.936L434.211 131.821C437.175 137.02 449.024 141.478 457.91 142.222C466.799 142.966 478.648 148.164 481.982 150.393C485.315 152.622 479.759 155.592 479.759 155.592C468.279 148.905 442.358 141.107 437.172 141.107C431.989 141.107 407.545 111.39 400.881 101.734C394.214 92.0771 397.178 84.2759 397.178 77.5892C397.178 70.9025 406.436 51.5892 406.436 51.5892C406.436 51.5892 404.584 42.3031 391.995 52.3332C381.79 60.463 371.588 78.1121 366.902 101.121C371.591 96.7261 375.701 92.8211 375.701 92.8211L366.056 105.788C365.401 109.753 364.894 113.849 364.59 118.077C364.361 121.295 364.26 124.301 364.257 127.136L372.365 120.676L364.29 129.933C364.555 140.767 366.399 148.822 368.743 155.356L374.957 145.562L371.168 161.344C373.128 165.7 375.171 169.414 376.806 173.047C379.711 179.495 386.562 187.457 392.68 193.866L402.359 185.673L397.616 198.889C400.273 201.527 402.433 203.576 403.47 204.619C407.172 208.333 401.989 210.191 401.989 210.191C384.953 203.508 363.846 162.279 363.846 162.279C363.846 162.279 344.96 163.764 336.071 150.393C327.183 137.023 333.48 120.306 338.294 110.649C343.107 100.993 338.294 103.592 338.294 103.592C338.294 103.592 329.405 105.077 326.813 106.192C324.222 107.306 308.667 125.878 306.444 128.107C304.222 130.336 303.853 134.05 303.853 134.05L310.147 128.478C310.147 128.478 308.294 134.05 305.703 138.878C303.111 143.707 302 153.363 302 153.363L307.555 145.562V169.333C305.703 180.478 307.555 184.191 307.555 184.191L311.258 167.848C311.258 167.848 311.258 180.478 311.258 184.562C311.258 188.646 320.886 207.592 330.144 223.191C339.402 238.791 399.764 240.649 412.355 239.164C424.798 237.697 462.905 215.193 482.387 197.454L464.574 200.161L489.762 189.743C493.161 185.7 496.357 181.237 499.282 176.71L484.94 182.704C485.464 182.354 493.45 177.642 501.761 172.754C511.123 157.4 517.155 142.589 517.155 142.589C517.155 142.589 531.227 134.788 536.783 126.616C542.341 118.448 539.749 112.505 539.38 102.104Z" fill="black"/>
<path d="M489.756 87.989C491.597 87.989 493.089 86.4924 493.089 84.6463C493.089 82.8002 491.597 81.3036 489.756 81.3036C487.915 81.3036 486.423 82.8002 486.423 84.6463C486.423 86.4924 487.915 87.989 489.756 87.989Z" fill="black"/>
<path d="M515.683 113.99C517.728 113.99 519.385 112.328 519.385 110.277C519.385 108.226 517.728 106.563 515.683 106.563C513.638 106.563 511.98 108.226 511.98 110.277C511.98 112.328 513.638 113.99 515.683 113.99Z" fill="black"/>
<path d="M489.759 132.562C494.572 132.932 512.719 132.191 517.902 129.589C523.085 126.99 529.752 119.188 528.271 112.131C526.791 105.074 522.716 90.2153 513.458 84.2725C504.2 78.3297 497.164 75.3568 493.461 75.3568C489.759 75.3568 483.461 74.9863 480.5 78.7002C480.5 78.7002 476.425 81.2996 474.576 92.4442C472.723 103.589 470.501 112.131 473.834 119.188C477.167 126.249 484.945 132.191 489.759 132.562ZM492.35 80.1881C497.906 85.0165 497.533 88.7303 495.683 91.7032C493.831 94.6761 491.608 97.2755 491.608 97.2755L489.017 98.0195L485.684 95.7906L484.203 98.0195L484.945 106.562C484.945 106.562 488.647 115.104 493.834 115.848C499.017 116.592 502.722 116.592 502.722 115.104C502.722 113.616 501.611 110.646 504.203 108.417C506.794 106.188 514.941 102.104 517.536 104.33C520.127 106.559 523.091 118.444 520.5 121.044C517.908 123.643 518.278 123.273 516.055 121.044C513.833 118.815 509.019 108.785 509.019 108.785C509.019 108.785 504.944 108.785 504.944 112.128C504.944 115.471 507.536 117.327 503.833 118.815C500.131 120.3 489.392 118.071 487.539 116.215C485.687 114.357 483.095 110.643 482.726 106.929C482.356 103.215 480.873 99.5015 481.984 97.2726C483.095 95.0436 484.575 90.9563 486.059 92.8147C487.539 94.6702 489.023 97.2726 490.873 95.4141C492.725 93.5587 493.837 90.5858 493.837 90.5858C493.837 90.5858 486.059 89.1008 480.876 84.643C480.87 84.646 486.795 75.3598 492.35 80.1881ZM501.239 109.161L497.906 112.505C497.906 112.505 491.981 111.39 488.647 106.562C485.314 101.733 491.981 99.5045 491.981 99.5045C497.164 102.104 501.239 109.161 501.239 109.161Z" fill="black"/>
</svg>
