<svg width="540" height="246" viewBox="0 0 540 246" fill="none" xmlns="http://www.w3.org/2000/svg">
<path d="M73.1562 133.617L75.9336 107.812H103.426V115.195H83.0352L81.6289 127.43C83.9961 126.07 86.668 125.391 89.6445 125.391C94.5195 125.391 98.3047 126.949 101 130.066C103.719 133.184 105.078 137.379 105.078 142.652C105.078 147.855 103.578 152.004 100.578 155.098C97.5781 158.168 93.4648 159.703 88.2383 159.703C83.5508 159.703 79.6602 158.379 76.5664 155.73C73.4961 153.059 71.832 149.543 71.5742 145.184H79.8359C80.1641 147.668 81.0547 149.578 82.5078 150.914C83.9609 152.227 85.8594 152.883 88.2031 152.883C90.8281 152.883 92.8672 151.945 94.3203 150.07C95.7969 148.195 96.5352 145.641 96.5352 142.406C96.5352 139.289 95.7266 136.828 94.1094 135.023C92.4922 133.195 90.2656 132.281 87.4297 132.281C85.8828 132.281 84.5703 132.492 83.4922 132.914C82.4141 133.312 81.2422 134.109 79.9766 135.305L73.1562 133.617Z" fill="black"/>
<path d="M179 144C178.744 144 178.488 143.902 178.293 143.707C177.902 143.316 177.902 142.684 178.293 142.293L190.293 130.293C190.684 129.902 191.316 129.902 191.707 130.293C192.098 130.684 192.098 131.316 191.707 131.707L179.707 143.707C179.512 143.902 179.256 144 179 144Z" fill="#333B41"/>
<path d="M191 144C190.744 144 190.488 143.902 190.293 143.707L178.293 131.707C177.902 131.316 177.902 130.684 178.293 130.293C178.684 129.902 179.316 129.902 179.707 130.293L191.707 142.293C192.098 142.684 192.098 143.316 191.707 143.707C191.512 143.902 191.256 144 191 144Z" fill="#333B41"/>
<path d="M5.96094 179.633L2.19531 190H0.65625L4.99219 178.625H5.98438L5.96094 179.633ZM9.11719 190L5.34375 179.633L5.32031 178.625H6.3125L10.6641 190H9.11719ZM8.92188 185.789V187.023H2.53125V185.789H8.92188ZM13.5391 178V190H12.0859V178H13.5391ZM17.4297 178V190H15.9766V178H17.4297ZM21.3203 181.547V190H19.8672V181.547H21.3203ZM19.7578 179.305C19.7578 179.07 19.8281 178.872 19.9688 178.711C20.1146 178.549 20.3281 178.469 20.6094 178.469C20.8854 178.469 21.0964 178.549 21.2422 178.711C21.3932 178.872 21.4688 179.07 21.4688 179.305C21.4688 179.529 21.3932 179.721 21.2422 179.883C21.0964 180.039 20.8854 180.117 20.6094 180.117C20.3281 180.117 20.1146 180.039 19.9688 179.883C19.8281 179.721 19.7578 179.529 19.7578 179.305ZM29.1172 181.547H30.4297V189.82C30.4297 190.565 30.2786 191.201 29.9766 191.727C29.6745 192.253 29.2526 192.651 28.7109 192.922C28.1745 193.198 27.5547 193.336 26.8516 193.336C26.5599 193.336 26.2161 193.289 25.8203 193.195C25.4297 193.107 25.0443 192.953 24.6641 192.734C24.2891 192.521 23.974 192.232 23.7188 191.867L24.4766 191.008C24.8307 191.435 25.2005 191.732 25.5859 191.898C25.9766 192.065 26.362 192.148 26.7422 192.148C27.2005 192.148 27.5964 192.062 27.9297 191.891C28.263 191.719 28.5208 191.464 28.7031 191.125C28.8906 190.792 28.9844 190.38 28.9844 189.891V183.406L29.1172 181.547ZM23.2969 185.867V185.703C23.2969 185.057 23.3724 184.471 23.5234 183.945C23.6797 183.414 23.901 182.958 24.1875 182.578C24.4792 182.198 24.8307 181.906 25.2422 181.703C25.6536 181.495 26.1172 181.391 26.6328 181.391C27.1641 181.391 27.6276 181.484 28.0234 181.672C28.4245 181.854 28.763 182.122 29.0391 182.477C29.3203 182.826 29.5417 183.247 29.7031 183.742C29.8646 184.237 29.9766 184.797 30.0391 185.422V186.141C29.9818 186.76 29.8698 187.318 29.7031 187.812C29.5417 188.307 29.3203 188.729 29.0391 189.078C28.763 189.427 28.4245 189.695 28.0234 189.883C27.6224 190.065 27.1536 190.156 26.6172 190.156C26.112 190.156 25.6536 190.049 25.2422 189.836C24.8359 189.622 24.487 189.323 24.1953 188.938C23.9036 188.552 23.6797 188.099 23.5234 187.578C23.3724 187.052 23.2969 186.482 23.2969 185.867ZM24.7422 185.703V185.867C24.7422 186.289 24.7839 186.685 24.8672 187.055C24.9557 187.424 25.0885 187.75 25.2656 188.031C25.4479 188.312 25.6797 188.534 25.9609 188.695C26.2422 188.852 26.5781 188.93 26.9688 188.93C27.4479 188.93 27.8438 188.828 28.1562 188.625C28.4688 188.422 28.7161 188.154 28.8984 187.82C29.0859 187.487 29.2318 187.125 29.3359 186.734V184.852C29.2786 184.565 29.1901 184.289 29.0703 184.023C28.9557 183.753 28.8047 183.513 28.6172 183.305C28.4349 183.091 28.2083 182.922 27.9375 182.797C27.6667 182.672 27.349 182.609 26.9844 182.609C26.5885 182.609 26.2474 182.693 25.9609 182.859C25.6797 183.021 25.4479 183.245 25.2656 183.531C25.0885 183.812 24.9557 184.141 24.8672 184.516C24.7839 184.885 24.7422 185.281 24.7422 185.703ZM37.6094 188.555V184.203C37.6094 183.87 37.5417 183.581 37.4062 183.336C37.276 183.086 37.0781 182.893 36.8125 182.758C36.5469 182.622 36.2188 182.555 35.8281 182.555C35.4635 182.555 35.1432 182.617 34.8672 182.742C34.5964 182.867 34.3828 183.031 34.2266 183.234C34.0755 183.438 34 183.656 34 183.891H32.5547C32.5547 183.589 32.6328 183.289 32.7891 182.992C32.9453 182.695 33.1693 182.427 33.4609 182.188C33.7578 181.943 34.112 181.75 34.5234 181.609C34.9401 181.464 35.4036 181.391 35.9141 181.391C36.5286 181.391 37.0703 181.495 37.5391 181.703C38.013 181.911 38.3828 182.227 38.6484 182.648C38.9193 183.065 39.0547 183.589 39.0547 184.219V188.156C39.0547 188.438 39.0781 188.737 39.125 189.055C39.1771 189.372 39.2526 189.646 39.3516 189.875V190H37.8438C37.7708 189.833 37.7135 189.612 37.6719 189.336C37.6302 189.055 37.6094 188.794 37.6094 188.555ZM37.8594 184.875L37.875 185.891H36.4141C36.0026 185.891 35.6354 185.924 35.3125 185.992C34.9896 186.055 34.7188 186.151 34.5 186.281C34.2812 186.411 34.1146 186.576 34 186.773C33.8854 186.966 33.8281 187.193 33.8281 187.453C33.8281 187.719 33.888 187.961 34.0078 188.18C34.1276 188.398 34.3073 188.573 34.5469 188.703C34.7917 188.828 35.0911 188.891 35.4453 188.891C35.888 188.891 36.2786 188.797 36.6172 188.609C36.9557 188.422 37.224 188.193 37.4219 187.922C37.625 187.651 37.7344 187.388 37.75 187.133L38.3672 187.828C38.3307 188.047 38.2318 188.289 38.0703 188.555C37.9089 188.82 37.6927 189.076 37.4219 189.32C37.1562 189.56 36.8385 189.76 36.4688 189.922C36.1042 190.078 35.6927 190.156 35.2344 190.156C34.6615 190.156 34.1589 190.044 33.7266 189.82C33.2995 189.596 32.9661 189.297 32.7266 188.922C32.4922 188.542 32.375 188.117 32.375 187.648C32.375 187.195 32.4635 186.797 32.6406 186.453C32.8177 186.104 33.0729 185.815 33.4062 185.586C33.7396 185.352 34.1406 185.174 34.6094 185.055C35.0781 184.935 35.6016 184.875 36.1797 184.875H37.8594ZM44.8672 181.547V182.656H40.2969V181.547H44.8672ZM41.8438 179.492H43.2891V187.906C43.2891 188.193 43.3333 188.409 43.4219 188.555C43.5104 188.701 43.625 188.797 43.7656 188.844C43.9062 188.891 44.0573 188.914 44.2188 188.914C44.3385 188.914 44.4635 188.904 44.5938 188.883C44.7292 188.857 44.8307 188.836 44.8984 188.82L44.9062 190C44.7917 190.036 44.6406 190.07 44.4531 190.102C44.2708 190.138 44.0495 190.156 43.7891 190.156C43.4349 190.156 43.1094 190.086 42.8125 189.945C42.5156 189.805 42.2786 189.57 42.1016 189.242C41.9297 188.909 41.8438 188.461 41.8438 187.898V179.492ZM46.0234 185.867V185.688C46.0234 185.078 46.112 184.513 46.2891 183.992C46.4661 183.466 46.7214 183.01 47.0547 182.625C47.388 182.234 47.7917 181.932 48.2656 181.719C48.7396 181.5 49.2708 181.391 49.8594 181.391C50.4531 181.391 50.987 181.5 51.4609 181.719C51.9401 181.932 52.3464 182.234 52.6797 182.625C53.0182 183.01 53.276 183.466 53.4531 183.992C53.6302 184.513 53.7188 185.078 53.7188 185.688V185.867C53.7188 186.477 53.6302 187.042 53.4531 187.562C53.276 188.083 53.0182 188.539 52.6797 188.93C52.3464 189.315 51.9427 189.617 51.4688 189.836C51 190.049 50.4688 190.156 49.875 190.156C49.2812 190.156 48.7474 190.049 48.2734 189.836C47.7995 189.617 47.3932 189.315 47.0547 188.93C46.7214 188.539 46.4661 188.083 46.2891 187.562C46.112 187.042 46.0234 186.477 46.0234 185.867ZM47.4688 185.688V185.867C47.4688 186.289 47.5182 186.688 47.6172 187.062C47.7161 187.432 47.8646 187.76 48.0625 188.047C48.2656 188.333 48.5182 188.56 48.8203 188.727C49.1224 188.888 49.474 188.969 49.875 188.969C50.2708 188.969 50.6172 188.888 50.9141 188.727C51.2161 188.56 51.4661 188.333 51.6641 188.047C51.862 187.76 52.0104 187.432 52.1094 187.062C52.2135 186.688 52.2656 186.289 52.2656 185.867V185.688C52.2656 185.271 52.2135 184.878 52.1094 184.508C52.0104 184.133 51.8594 183.802 51.6562 183.516C51.4583 183.224 51.2083 182.995 50.9062 182.828C50.6094 182.661 50.2604 182.578 49.8594 182.578C49.4635 182.578 49.1146 182.661 48.8125 182.828C48.5156 182.995 48.2656 183.224 48.0625 183.516C47.8646 183.802 47.7161 184.133 47.6172 184.508C47.5182 184.878 47.4688 185.271 47.4688 185.688ZM56.9766 182.875V190H55.5312V181.547H56.9375L56.9766 182.875ZM59.6172 181.5L59.6094 182.844C59.4896 182.818 59.375 182.802 59.2656 182.797C59.1615 182.786 59.0417 182.781 58.9062 182.781C58.5729 182.781 58.2786 182.833 58.0234 182.938C57.7682 183.042 57.5521 183.188 57.375 183.375C57.1979 183.562 57.0573 183.786 56.9531 184.047C56.8542 184.302 56.7891 184.583 56.7578 184.891L56.3516 185.125C56.3516 184.615 56.401 184.135 56.5 183.688C56.6042 183.24 56.763 182.844 56.9766 182.5C57.1901 182.151 57.4609 181.88 57.7891 181.688C58.1224 181.49 58.5182 181.391 58.9766 181.391C59.0807 181.391 59.2005 181.404 59.3359 181.43C59.4714 181.451 59.5651 181.474 59.6172 181.5ZM70.25 188.359V178H71.7031V190H70.375L70.25 188.359ZM64.5625 185.867V185.703C64.5625 185.057 64.6406 184.471 64.7969 183.945C64.9583 183.414 65.1849 182.958 65.4766 182.578C65.7734 182.198 66.125 181.906 66.5312 181.703C66.9427 181.495 67.401 181.391 67.9062 181.391C68.4375 181.391 68.901 181.484 69.2969 181.672C69.6979 181.854 70.0365 182.122 70.3125 182.477C70.5938 182.826 70.8151 183.247 70.9766 183.742C71.138 184.237 71.25 184.797 71.3125 185.422V186.141C71.2552 186.76 71.1432 187.318 70.9766 187.812C70.8151 188.307 70.5938 188.729 70.3125 189.078C70.0365 189.427 69.6979 189.695 69.2969 189.883C68.8958 190.065 68.4271 190.156 67.8906 190.156C67.3958 190.156 66.9427 190.049 66.5312 189.836C66.125 189.622 65.7734 189.323 65.4766 188.938C65.1849 188.552 64.9583 188.099 64.7969 187.578C64.6406 187.052 64.5625 186.482 64.5625 185.867ZM66.0156 185.703V185.867C66.0156 186.289 66.0573 186.685 66.1406 187.055C66.2292 187.424 66.3646 187.75 66.5469 188.031C66.7292 188.312 66.9609 188.534 67.2422 188.695C67.5234 188.852 67.8594 188.93 68.25 188.93C68.7292 188.93 69.1224 188.828 69.4297 188.625C69.7422 188.422 69.9922 188.154 70.1797 187.82C70.3672 187.487 70.513 187.125 70.6172 186.734V184.852C70.5547 184.565 70.4635 184.289 70.3438 184.023C70.2292 183.753 70.0781 183.513 69.8906 183.305C69.7083 183.091 69.4818 182.922 69.2109 182.797C68.9453 182.672 68.6302 182.609 68.2656 182.609C67.8698 182.609 67.5286 182.693 67.2422 182.859C66.9609 183.021 66.7292 183.245 66.5469 183.531C66.3646 183.812 66.2292 184.141 66.1406 184.516C66.0573 184.885 66.0156 185.281 66.0156 185.703ZM75.5234 181.547V190H74.0703V181.547H75.5234ZM73.9609 179.305C73.9609 179.07 74.0312 178.872 74.1719 178.711C74.3177 178.549 74.5312 178.469 74.8125 178.469C75.0885 178.469 75.2995 178.549 75.4453 178.711C75.5964 178.872 75.6719 179.07 75.6719 179.305C75.6719 179.529 75.5964 179.721 75.4453 179.883C75.2995 180.039 75.0885 180.117 74.8125 180.117C74.5312 180.117 74.3177 180.039 74.1719 179.883C74.0312 179.721 73.9609 179.529 73.9609 179.305ZM81.3516 190.156C80.763 190.156 80.2292 190.057 79.75 189.859C79.276 189.656 78.8672 189.372 78.5234 189.008C78.1849 188.643 77.9245 188.211 77.7422 187.711C77.5599 187.211 77.4688 186.664 77.4688 186.07V185.742C77.4688 185.055 77.5703 184.443 77.7734 183.906C77.9766 183.365 78.2526 182.906 78.6016 182.531C78.9505 182.156 79.3464 181.872 79.7891 181.68C80.2318 181.487 80.6901 181.391 81.1641 181.391C81.7682 181.391 82.2891 181.495 82.7266 181.703C83.1693 181.911 83.5312 182.203 83.8125 182.578C84.0938 182.948 84.3021 183.385 84.4375 183.891C84.5729 184.391 84.6406 184.938 84.6406 185.531V186.18H78.3281V185H83.1953V184.891C83.1745 184.516 83.0964 184.151 82.9609 183.797C82.8307 183.443 82.6224 183.151 82.3359 182.922C82.0495 182.693 81.6589 182.578 81.1641 182.578C80.8359 182.578 80.5339 182.648 80.2578 182.789C79.9818 182.924 79.7448 183.128 79.5469 183.398C79.349 183.669 79.1953 184 79.0859 184.391C78.9766 184.781 78.9219 185.232 78.9219 185.742V186.07C78.9219 186.471 78.9766 186.849 79.0859 187.203C79.2005 187.552 79.3646 187.859 79.5781 188.125C79.7969 188.391 80.0599 188.599 80.3672 188.75C80.6797 188.901 81.0339 188.977 81.4297 188.977C81.9401 188.977 82.3724 188.872 82.7266 188.664C83.0807 188.456 83.3906 188.177 83.6562 187.828L84.5312 188.523C84.349 188.799 84.1172 189.062 83.8359 189.312C83.5547 189.562 83.2083 189.766 82.7969 189.922C82.3906 190.078 81.9089 190.156 81.3516 190.156ZM89.8672 181.547V182.656H85.2969V181.547H89.8672ZM86.8438 179.492H88.2891V187.906C88.2891 188.193 88.3333 188.409 88.4219 188.555C88.5104 188.701 88.625 188.797 88.7656 188.844C88.9062 188.891 89.0573 188.914 89.2188 188.914C89.3385 188.914 89.4635 188.904 89.5938 188.883C89.7292 188.857 89.8307 188.836 89.8984 188.82L89.9062 190C89.7917 190.036 89.6406 190.07 89.4531 190.102C89.2708 190.138 89.0495 190.156 88.7891 190.156C88.4349 190.156 88.1094 190.086 87.8125 189.945C87.5156 189.805 87.2786 189.57 87.1016 189.242C86.9297 188.909 86.8438 188.461 86.8438 187.898V179.492ZM97.6875 190H96.2422V180.656C96.2422 180.047 96.3516 179.534 96.5703 179.117C96.7943 178.695 97.1146 178.378 97.5312 178.164C97.9479 177.945 98.4427 177.836 99.0156 177.836C99.1823 177.836 99.349 177.846 99.5156 177.867C99.6875 177.888 99.8542 177.919 100.016 177.961L99.9375 179.141C99.8281 179.115 99.7031 179.096 99.5625 179.086C99.4271 179.076 99.2917 179.07 99.1562 179.07C98.849 179.07 98.5833 179.133 98.3594 179.258C98.1406 179.378 97.974 179.555 97.8594 179.789C97.7448 180.023 97.6875 180.312 97.6875 180.656V190ZM99.4844 181.547V182.656H94.9062V181.547H99.4844ZM100.711 185.867V185.688C100.711 185.078 100.799 184.513 100.977 183.992C101.154 183.466 101.409 183.01 101.742 182.625C102.076 182.234 102.479 181.932 102.953 181.719C103.427 181.5 103.958 181.391 104.547 181.391C105.141 181.391 105.674 181.5 106.148 181.719C106.628 181.932 107.034 182.234 107.367 182.625C107.706 183.01 107.964 183.466 108.141 183.992C108.318 184.513 108.406 185.078 108.406 185.688V185.867C108.406 186.477 108.318 187.042 108.141 187.562C107.964 188.083 107.706 188.539 107.367 188.93C107.034 189.315 106.63 189.617 106.156 189.836C105.688 190.049 105.156 190.156 104.562 190.156C103.969 190.156 103.435 190.049 102.961 189.836C102.487 189.617 102.081 189.315 101.742 188.93C101.409 188.539 101.154 188.083 100.977 187.562C100.799 187.042 100.711 186.477 100.711 185.867ZM102.156 185.688V185.867C102.156 186.289 102.206 186.688 102.305 187.062C102.404 187.432 102.552 187.76 102.75 188.047C102.953 188.333 103.206 188.56 103.508 188.727C103.81 188.888 104.161 188.969 104.562 188.969C104.958 188.969 105.305 188.888 105.602 188.727C105.904 188.56 106.154 188.333 106.352 188.047C106.549 187.76 106.698 187.432 106.797 187.062C106.901 186.688 106.953 186.289 106.953 185.867V185.688C106.953 185.271 106.901 184.878 106.797 184.508C106.698 184.133 106.547 183.802 106.344 183.516C106.146 183.224 105.896 182.995 105.594 182.828C105.297 182.661 104.948 182.578 104.547 182.578C104.151 182.578 103.802 182.661 103.5 182.828C103.203 182.995 102.953 183.224 102.75 183.516C102.552 183.802 102.404 184.133 102.305 184.508C102.206 184.878 102.156 185.271 102.156 185.688ZM111.664 182.875V190H110.219V181.547H111.625L111.664 182.875ZM114.305 181.5L114.297 182.844C114.177 182.818 114.062 182.802 113.953 182.797C113.849 182.786 113.729 182.781 113.594 182.781C113.26 182.781 112.966 182.833 112.711 182.938C112.456 183.042 112.24 183.188 112.062 183.375C111.885 183.562 111.745 183.786 111.641 184.047C111.542 184.302 111.477 184.583 111.445 184.891L111.039 185.125C111.039 184.615 111.089 184.135 111.188 183.688C111.292 183.24 111.451 182.844 111.664 182.5C111.878 182.151 112.148 181.88 112.477 181.688C112.81 181.49 113.206 181.391 113.664 181.391C113.768 181.391 113.888 181.404 114.023 181.43C114.159 181.451 114.253 181.474 114.305 181.5ZM123.148 181.547V182.656H118.578V181.547H123.148ZM120.125 179.492H121.57V187.906C121.57 188.193 121.615 188.409 121.703 188.555C121.792 188.701 121.906 188.797 122.047 188.844C122.188 188.891 122.339 188.914 122.5 188.914C122.62 188.914 122.745 188.904 122.875 188.883C123.01 188.857 123.112 188.836 123.18 188.82L123.188 190C123.073 190.036 122.922 190.07 122.734 190.102C122.552 190.138 122.331 190.156 122.07 190.156C121.716 190.156 121.391 190.086 121.094 189.945C120.797 189.805 120.56 189.57 120.383 189.242C120.211 188.909 120.125 188.461 120.125 187.898V179.492ZM126.289 178V190H124.844V178H126.289ZM125.945 185.453L125.344 185.43C125.349 184.852 125.435 184.318 125.602 183.828C125.768 183.333 126.003 182.904 126.305 182.539C126.607 182.174 126.966 181.893 127.383 181.695C127.805 181.492 128.271 181.391 128.781 181.391C129.198 181.391 129.573 181.448 129.906 181.562C130.24 181.672 130.523 181.849 130.758 182.094C130.997 182.339 131.18 182.656 131.305 183.047C131.43 183.432 131.492 183.904 131.492 184.461V190H130.039V184.445C130.039 184.003 129.974 183.648 129.844 183.383C129.714 183.112 129.523 182.917 129.273 182.797C129.023 182.672 128.716 182.609 128.352 182.609C127.992 182.609 127.664 182.685 127.367 182.836C127.076 182.987 126.823 183.195 126.609 183.461C126.401 183.727 126.237 184.031 126.117 184.375C126.003 184.714 125.945 185.073 125.945 185.453ZM137.164 190.156C136.576 190.156 136.042 190.057 135.562 189.859C135.089 189.656 134.68 189.372 134.336 189.008C133.997 188.643 133.737 188.211 133.555 187.711C133.372 187.211 133.281 186.664 133.281 186.07V185.742C133.281 185.055 133.383 184.443 133.586 183.906C133.789 183.365 134.065 182.906 134.414 182.531C134.763 182.156 135.159 181.872 135.602 181.68C136.044 181.487 136.503 181.391 136.977 181.391C137.581 181.391 138.102 181.495 138.539 181.703C138.982 181.911 139.344 182.203 139.625 182.578C139.906 182.948 140.115 183.385 140.25 183.891C140.385 184.391 140.453 184.938 140.453 185.531V186.18H134.141V185H139.008V184.891C138.987 184.516 138.909 184.151 138.773 183.797C138.643 183.443 138.435 183.151 138.148 182.922C137.862 182.693 137.471 182.578 136.977 182.578C136.648 182.578 136.346 182.648 136.07 182.789C135.794 182.924 135.557 183.128 135.359 183.398C135.161 183.669 135.008 184 134.898 184.391C134.789 184.781 134.734 185.232 134.734 185.742V186.07C134.734 186.471 134.789 186.849 134.898 187.203C135.013 187.552 135.177 187.859 135.391 188.125C135.609 188.391 135.872 188.599 136.18 188.75C136.492 188.901 136.846 188.977 137.242 188.977C137.753 188.977 138.185 188.872 138.539 188.664C138.893 188.456 139.203 188.177 139.469 187.828L140.344 188.523C140.161 188.799 139.93 189.062 139.648 189.312C139.367 189.562 139.021 189.766 138.609 189.922C138.203 190.078 137.721 190.156 137.164 190.156ZM151.438 188.359V178H152.891V190H151.562L151.438 188.359ZM145.75 185.867V185.703C145.75 185.057 145.828 184.471 145.984 183.945C146.146 183.414 146.372 182.958 146.664 182.578C146.961 182.198 147.312 181.906 147.719 181.703C148.13 181.495 148.589 181.391 149.094 181.391C149.625 181.391 150.089 181.484 150.484 181.672C150.885 181.854 151.224 182.122 151.5 182.477C151.781 182.826 152.003 183.247 152.164 183.742C152.326 184.237 152.438 184.797 152.5 185.422V186.141C152.443 186.76 152.331 187.318 152.164 187.812C152.003 188.307 151.781 188.729 151.5 189.078C151.224 189.427 150.885 189.695 150.484 189.883C150.083 190.065 149.615 190.156 149.078 190.156C148.583 190.156 148.13 190.049 147.719 189.836C147.312 189.622 146.961 189.323 146.664 188.938C146.372 188.552 146.146 188.099 145.984 187.578C145.828 187.052 145.75 186.482 145.75 185.867ZM147.203 185.703V185.867C147.203 186.289 147.245 186.685 147.328 187.055C147.417 187.424 147.552 187.75 147.734 188.031C147.917 188.312 148.148 188.534 148.43 188.695C148.711 188.852 149.047 188.93 149.438 188.93C149.917 188.93 150.31 188.828 150.617 188.625C150.93 188.422 151.18 188.154 151.367 187.82C151.555 187.487 151.701 187.125 151.805 186.734V184.852C151.742 184.565 151.651 184.289 151.531 184.023C151.417 183.753 151.266 183.513 151.078 183.305C150.896 183.091 150.669 182.922 150.398 182.797C150.133 182.672 149.818 182.609 149.453 182.609C149.057 182.609 148.716 182.693 148.43 182.859C148.148 183.021 147.917 183.245 147.734 183.531C147.552 183.812 147.417 184.141 147.328 184.516C147.245 184.885 147.203 185.281 147.203 185.703ZM160.125 188.555V184.203C160.125 183.87 160.057 183.581 159.922 183.336C159.792 183.086 159.594 182.893 159.328 182.758C159.062 182.622 158.734 182.555 158.344 182.555C157.979 182.555 157.659 182.617 157.383 182.742C157.112 182.867 156.898 183.031 156.742 183.234C156.591 183.438 156.516 183.656 156.516 183.891H155.07C155.07 183.589 155.148 183.289 155.305 182.992C155.461 182.695 155.685 182.427 155.977 182.188C156.273 181.943 156.628 181.75 157.039 181.609C157.456 181.464 157.919 181.391 158.43 181.391C159.044 181.391 159.586 181.495 160.055 181.703C160.529 181.911 160.898 182.227 161.164 182.648C161.435 183.065 161.57 183.589 161.57 184.219V188.156C161.57 188.438 161.594 188.737 161.641 189.055C161.693 189.372 161.768 189.646 161.867 189.875V190H160.359C160.286 189.833 160.229 189.612 160.188 189.336C160.146 189.055 160.125 188.794 160.125 188.555ZM160.375 184.875L160.391 185.891H158.93C158.518 185.891 158.151 185.924 157.828 185.992C157.505 186.055 157.234 186.151 157.016 186.281C156.797 186.411 156.63 186.576 156.516 186.773C156.401 186.966 156.344 187.193 156.344 187.453C156.344 187.719 156.404 187.961 156.523 188.18C156.643 188.398 156.823 188.573 157.062 188.703C157.307 188.828 157.607 188.891 157.961 188.891C158.404 188.891 158.794 188.797 159.133 188.609C159.471 188.422 159.74 188.193 159.938 187.922C160.141 187.651 160.25 187.388 160.266 187.133L160.883 187.828C160.846 188.047 160.747 188.289 160.586 188.555C160.424 188.82 160.208 189.076 159.938 189.32C159.672 189.56 159.354 189.76 158.984 189.922C158.62 190.078 158.208 190.156 157.75 190.156C157.177 190.156 156.674 190.044 156.242 189.82C155.815 189.596 155.482 189.297 155.242 188.922C155.008 188.542 154.891 188.117 154.891 187.648C154.891 187.195 154.979 186.797 155.156 186.453C155.333 186.104 155.589 185.815 155.922 185.586C156.255 185.352 156.656 185.174 157.125 185.055C157.594 184.935 158.117 184.875 158.695 184.875H160.375ZM166.094 189.125L168.445 181.547H169.992L166.602 191.305C166.523 191.513 166.419 191.737 166.289 191.977C166.164 192.221 166.003 192.453 165.805 192.672C165.607 192.891 165.367 193.068 165.086 193.203C164.81 193.344 164.479 193.414 164.094 193.414C163.979 193.414 163.833 193.398 163.656 193.367C163.479 193.336 163.354 193.31 163.281 193.289L163.273 192.117C163.315 192.122 163.38 192.128 163.469 192.133C163.562 192.143 163.628 192.148 163.664 192.148C163.992 192.148 164.271 192.104 164.5 192.016C164.729 191.932 164.922 191.789 165.078 191.586C165.24 191.388 165.378 191.115 165.492 190.766L166.094 189.125ZM164.367 181.547L166.562 188.109L166.938 189.633L165.898 190.164L162.789 181.547H164.367ZM170.477 189.234C170.477 188.99 170.552 188.784 170.703 188.617C170.859 188.445 171.083 188.359 171.375 188.359C171.667 188.359 171.888 188.445 172.039 188.617C172.195 188.784 172.273 188.99 172.273 189.234C172.273 189.474 172.195 189.677 172.039 189.844C171.888 190.01 171.667 190.094 171.375 190.094C171.083 190.094 170.859 190.01 170.703 189.844C170.552 189.677 170.477 189.474 170.477 189.234Z" fill="#333B41"/>
<g clip-path="url(#clip0_34416_678)">
<path d="M338.688 181.13C337.987 180.123 337.223 179.008 336.677 178.193C336.633 178.128 336.579 178.074 336.518 178.035C336.456 177.995 336.388 177.971 336.319 177.963C333.602 177.645 326.971 176.848 322.34 176.294C322.268 176.286 322.195 176.296 322.126 176.323C322.057 176.35 321.993 176.393 321.938 176.451C321.884 176.508 321.839 176.578 321.808 176.656C321.777 176.734 321.76 176.819 321.757 176.906C321.714 178.256 321.746 179.684 321.795 180.525C320.028 182.143 318.454 184.04 317.115 186.163C316.648 186.867 316.357 187.714 316.275 188.606C316.193 189.498 316.324 190.4 316.652 191.207C316.98 192.015 317.493 192.696 318.131 193.173C318.769 193.65 319.507 193.904 320.26 193.904H328.65C329.324 193.904 329.989 193.726 330.598 193.382C331.206 193.039 331.743 192.538 332.169 191.916L338.699 181.933C338.774 181.817 338.813 181.675 338.811 181.529C338.81 181.383 338.766 181.242 338.688 181.13ZM515.829 148.611C508.658 140.666 497.78 133.569 482.566 126.898C453.721 114.258 385.303 104.433 382.405 104.019C382.115 103.98 381.822 104.001 381.539 104.083L357.8 111.155H323.035C316.281 111.155 304.912 114.2 301.805 122.292C293.147 127.803 282.874 134.461 280.174 136.213C277.388 135.869 268.254 135.225 260.227 140.138C258.886 140.958 257.774 142.225 257.026 143.784C256.278 145.343 255.926 147.128 256.013 148.921C256.1 150.714 256.623 152.438 257.517 153.884C258.411 155.33 259.639 156.436 261.051 157.066C261.107 157.093 261.164 157.116 261.222 157.136C262.168 157.461 284.463 165.164 292.431 166.425C294.762 166.795 297.286 167.222 300.024 167.68C304.88 168.496 310.286 169.4 316.34 170.299C316.339 170.299 316.337 170.298 316.336 170.297C316.335 170.296 316.335 170.294 316.335 170.292L338.896 173.058C338.896 173.058 343.709 180.41 344.447 181.378C343.187 183.134 342.186 185.131 341.485 187.284C341.23 188.011 341.13 188.8 341.193 189.584C341.257 190.367 341.481 191.12 341.848 191.775C342.214 192.43 342.71 192.967 343.292 193.338C343.874 193.71 344.525 193.904 345.185 193.904H353.891C354.573 193.906 355.247 193.724 355.862 193.372C356.477 193.02 357.017 192.507 357.442 191.872L363.886 182.289C364.498 181.381 364.846 180.261 364.881 179.097C364.904 178.245 364.907 177.007 364.827 175.448C364.823 175.361 364.834 175.273 364.86 175.191C364.885 175.109 364.925 175.034 364.976 174.971C365.027 174.907 365.088 174.857 365.156 174.824C365.224 174.79 365.297 174.774 365.37 174.775C371.587 174.927 395.686 174.82 403.877 174.457C404.002 174.45 404.125 174.497 404.225 174.587C404.324 174.678 404.394 174.808 404.421 174.953C404.711 176.335 404.787 177.768 404.648 179.182C402.032 180.962 399.808 183.459 398.161 186.465C397.756 187.184 397.522 188.021 397.486 188.886C397.449 189.751 397.61 190.612 397.952 191.377C398.295 192.141 398.805 192.78 399.428 193.226C400.052 193.671 400.766 193.906 401.493 193.906H413.475C414.294 193.907 415.098 193.643 415.801 193.142C417.887 191.039 423.212 185.724 424.228 184.709C424.34 184.597 424.432 184.457 424.496 184.3L429.924 171.216L430.86 171.114C432.432 170.942 435.348 170.651 439.053 170.515C451.069 170.078 473.748 166.597 482.106 165.043C485.513 164.405 490.823 167.132 493.706 170.993C494.588 172.178 495.994 174.51 495.465 176.791C493.518 185.125 484.604 192.878 470.363 198.632C452.78 205.735 397.833 208.169 375.025 208.883C373.727 208.924 372.48 209.499 371.497 210.51C370.514 211.521 369.854 212.906 369.629 214.43C369.405 215.954 369.629 217.524 370.265 218.873C370.9 220.223 371.907 221.269 373.116 221.836C382.87 226.397 399.699 229.538 420.994 229.538C438.881 229.538 459.924 227.321 482.561 221.867C512.406 214.681 526 191.795 526 173.574C526 164.488 522.578 156.091 515.829 148.611ZM307.72 129.039C308.308 129.039 308.883 129.247 309.371 129.636C309.86 130.025 310.242 130.578 310.467 131.226C310.692 131.873 310.751 132.585 310.636 133.272C310.521 133.96 310.238 134.591 309.822 135.086C309.406 135.582 308.876 135.919 308.3 136.056C307.723 136.192 307.125 136.122 306.582 135.854C306.038 135.586 305.574 135.132 305.247 134.549C304.921 133.967 304.746 133.282 304.746 132.581C304.746 131.642 305.06 130.741 305.617 130.077C306.175 129.412 306.931 129.039 307.72 129.039ZM300.693 162.004C297.949 161.538 295.409 161.112 293.067 160.742C287.463 159.856 273.73 155.384 266.762 153.052C269.088 153.371 270.896 153.441 270.944 153.441C272.345 153.441 275.778 153.549 279.751 153.676C283.163 153.778 286.939 153.899 290.479 153.989L293.468 158.308C293.539 158.411 293.631 158.491 293.734 158.542C293.837 158.593 293.949 158.613 294.061 158.601C294.172 158.588 294.279 158.543 294.372 158.47C294.466 158.397 294.543 158.298 294.596 158.181L296.457 154.103C297.484 154.11 298.441 154.116 299.313 154.116L301.752 158.219C301.816 158.328 301.902 158.417 302.002 158.477C302.102 158.537 302.212 158.567 302.324 158.565C302.436 158.562 302.546 158.527 302.644 158.462C302.741 158.398 302.824 158.305 302.885 158.194L305.238 153.836C314.276 153.097 328.763 151.975 336.8 167.1C322.089 165.597 310.313 163.622 300.693 162.004ZM427.063 187.941C426.889 188.754 426.897 189.609 427.088 190.417C427.279 191.226 427.646 191.96 428.151 192.546C428.942 193.438 429.994 193.926 431.083 193.904H442.555C443.238 193.907 443.911 193.725 444.526 193.373C445.141 193.021 445.681 192.508 446.106 191.872L453.293 181.168C453.724 180.53 454.027 179.784 454.179 178.986C454.332 178.188 454.331 177.359 454.176 176.562L453.965 174.502C453.949 174.34 453.882 174.191 453.776 174.088C453.671 173.984 453.536 173.932 453.399 173.944C448.543 174.366 435.713 175.198 432.747 175.416C432.616 175.425 432.492 175.492 432.4 175.603C432.307 175.714 432.253 175.862 432.247 176.018C432.175 177.13 432.171 178.246 432.234 179.359C430.941 180.314 429.818 181.563 428.931 183.036C428.044 184.508 427.409 186.175 427.063 187.941Z" fill="black"/>
</g>
<defs>
<clipPath id="clip0_34416_678">
<rect width="284" height="246" fill="white" transform="translate(256)"/>
</clipPath>
</defs>
</svg>
