<svg width="539" height="246" viewBox="0 0 539 246" fill="none" xmlns="http://www.w3.org/2000/svg">
<path d="M79.75 129.504H84.9531C87.5781 129.48 89.6523 128.801 91.1758 127.465C92.7227 126.129 93.4961 124.195 93.4961 121.664C93.4961 119.227 92.8516 117.34 91.5625 116.004C90.2969 114.645 88.3516 113.965 85.7266 113.965C83.4297 113.965 81.543 114.633 80.0664 115.969C78.5898 117.281 77.8516 119.004 77.8516 121.137H69.3086C69.3086 118.512 70 116.121 71.3828 113.965C72.7891 111.809 74.7344 110.133 77.2188 108.938C79.7266 107.719 82.5273 107.109 85.6211 107.109C90.7305 107.109 94.7383 108.398 97.6445 110.977C100.574 113.531 102.039 117.094 102.039 121.664C102.039 123.961 101.301 126.129 99.8242 128.168C98.3711 130.184 96.4844 131.707 94.1641 132.738C96.9766 133.699 99.1094 135.211 100.562 137.273C102.039 139.336 102.777 141.797 102.777 144.656C102.777 149.25 101.195 152.906 98.0312 155.625C94.8906 158.344 90.7539 159.703 85.6211 159.703C80.6992 159.703 76.668 158.391 73.5273 155.766C70.3867 153.141 68.8164 149.648 68.8164 145.289H77.3594C77.3594 147.539 78.1094 149.367 79.6094 150.773C81.1328 152.18 83.1719 152.883 85.7266 152.883C88.375 152.883 90.4609 152.18 91.9844 150.773C93.5078 149.367 94.2695 147.328 94.2695 144.656C94.2695 141.961 93.4727 139.887 91.8789 138.434C90.2852 136.98 87.918 136.254 84.7773 136.254H79.75V129.504Z" fill="black"/>
<path d="M178 144C177.744 144 177.488 143.902 177.293 143.707C176.902 143.316 176.902 142.684 177.293 142.293L189.293 130.293C189.684 129.902 190.316 129.902 190.707 130.293C191.098 130.684 191.098 131.316 190.707 131.707L178.707 143.707C178.512 143.902 178.256 144 178 144Z" fill="#333B41"/>
<path d="M190 144C189.744 144 189.488 143.902 189.293 143.707L177.293 131.707C176.902 131.316 176.902 130.684 177.293 130.293C177.684 129.902 178.316 129.902 178.707 130.293L190.707 142.293C191.098 142.684 191.098 143.316 190.707 143.707C190.512 143.902 190.256 144 190 144Z" fill="#333B41"/>
<path d="M5.72656 185.539H2.6875V184.312H5.72656C6.3151 184.312 6.79167 184.219 7.15625 184.031C7.52083 183.844 7.78646 183.583 7.95312 183.25C8.125 182.917 8.21094 182.536 8.21094 182.109C8.21094 181.719 8.125 181.352 7.95312 181.008C7.78646 180.664 7.52083 180.388 7.15625 180.18C6.79167 179.966 6.3151 179.859 5.72656 179.859H3.03906V190H1.53125V178.625H5.72656C6.58594 178.625 7.3125 178.773 7.90625 179.07C8.5 179.367 8.95052 179.779 9.25781 180.305C9.5651 180.826 9.71875 181.422 9.71875 182.094C9.71875 182.823 9.5651 183.445 9.25781 183.961C8.95052 184.477 8.5 184.87 7.90625 185.141C7.3125 185.406 6.58594 185.539 5.72656 185.539ZM14.8047 190.156C14.2161 190.156 13.6823 190.057 13.2031 189.859C12.7292 189.656 12.3203 189.372 11.9766 189.008C11.638 188.643 11.3776 188.211 11.1953 187.711C11.013 187.211 10.9219 186.664 10.9219 186.07V185.742C10.9219 185.055 11.0234 184.443 11.2266 183.906C11.4297 183.365 11.7057 182.906 12.0547 182.531C12.4036 182.156 12.7995 181.872 13.2422 181.68C13.6849 181.487 14.1432 181.391 14.6172 181.391C15.2214 181.391 15.7422 181.495 16.1797 181.703C16.6224 181.911 16.9844 182.203 17.2656 182.578C17.5469 182.948 17.7552 183.385 17.8906 183.891C18.026 184.391 18.0938 184.938 18.0938 185.531V186.18H11.7812V185H16.6484V184.891C16.6276 184.516 16.5495 184.151 16.4141 183.797C16.2839 183.443 16.0755 183.151 15.7891 182.922C15.5026 182.693 15.112 182.578 14.6172 182.578C14.2891 182.578 13.987 182.648 13.7109 182.789C13.4349 182.924 13.1979 183.128 13 183.398C12.8021 183.669 12.6484 184 12.5391 184.391C12.4297 184.781 12.375 185.232 12.375 185.742V186.07C12.375 186.471 12.4297 186.849 12.5391 187.203C12.6536 187.552 12.8177 187.859 13.0312 188.125C13.25 188.391 13.513 188.599 13.8203 188.75C14.1328 188.901 14.487 188.977 14.8828 188.977C15.3932 188.977 15.8255 188.872 16.1797 188.664C16.5339 188.456 16.8438 188.177 17.1094 187.828L17.9844 188.523C17.8021 188.799 17.5703 189.062 17.2891 189.312C17.0078 189.562 16.6615 189.766 16.25 189.922C15.8438 190.078 15.362 190.156 14.8047 190.156ZM21.2266 183.352V190H19.7812V181.547H21.1484L21.2266 183.352ZM20.8828 185.453L20.2812 185.43C20.2865 184.852 20.3724 184.318 20.5391 183.828C20.7057 183.333 20.9401 182.904 21.2422 182.539C21.5443 182.174 21.9036 181.893 22.3203 181.695C22.7422 181.492 23.2083 181.391 23.7188 181.391C24.1354 181.391 24.5104 181.448 24.8438 181.562C25.1771 181.672 25.4609 181.849 25.6953 182.094C25.9349 182.339 26.1172 182.656 26.2422 183.047C26.3672 183.432 26.4297 183.904 26.4297 184.461V190H24.9766V184.445C24.9766 184.003 24.9115 183.648 24.7812 183.383C24.651 183.112 24.4609 182.917 24.2109 182.797C23.9609 182.672 23.6536 182.609 23.2891 182.609C22.9297 182.609 22.6016 182.685 22.3047 182.836C22.013 182.987 21.7604 183.195 21.5469 183.461C21.3385 183.727 21.1745 184.031 21.0547 184.375C20.9401 184.714 20.8828 185.073 20.8828 185.453ZM34.1016 181.547H35.4141V189.82C35.4141 190.565 35.263 191.201 34.9609 191.727C34.6589 192.253 34.237 192.651 33.6953 192.922C33.1589 193.198 32.5391 193.336 31.8359 193.336C31.5443 193.336 31.2005 193.289 30.8047 193.195C30.4141 193.107 30.0286 192.953 29.6484 192.734C29.2734 192.521 28.9583 192.232 28.7031 191.867L29.4609 191.008C29.8151 191.435 30.1849 191.732 30.5703 191.898C30.9609 192.065 31.3464 192.148 31.7266 192.148C32.1849 192.148 32.5807 192.062 32.9141 191.891C33.2474 191.719 33.5052 191.464 33.6875 191.125C33.875 190.792 33.9688 190.38 33.9688 189.891V183.406L34.1016 181.547ZM28.2812 185.867V185.703C28.2812 185.057 28.3568 184.471 28.5078 183.945C28.6641 183.414 28.8854 182.958 29.1719 182.578C29.4635 182.198 29.8151 181.906 30.2266 181.703C30.638 181.495 31.1016 181.391 31.6172 181.391C32.1484 181.391 32.612 181.484 33.0078 181.672C33.4089 181.854 33.7474 182.122 34.0234 182.477C34.3047 182.826 34.526 183.247 34.6875 183.742C34.849 184.237 34.9609 184.797 35.0234 185.422V186.141C34.9661 186.76 34.8542 187.318 34.6875 187.812C34.526 188.307 34.3047 188.729 34.0234 189.078C33.7474 189.427 33.4089 189.695 33.0078 189.883C32.6068 190.065 32.138 190.156 31.6016 190.156C31.0964 190.156 30.638 190.049 30.2266 189.836C29.8203 189.622 29.4714 189.323 29.1797 188.938C28.888 188.552 28.6641 188.099 28.5078 187.578C28.3568 187.052 28.2812 186.482 28.2812 185.867ZM29.7266 185.703V185.867C29.7266 186.289 29.7682 186.685 29.8516 187.055C29.9401 187.424 30.0729 187.75 30.25 188.031C30.4323 188.312 30.6641 188.534 30.9453 188.695C31.2266 188.852 31.5625 188.93 31.9531 188.93C32.4323 188.93 32.8281 188.828 33.1406 188.625C33.4531 188.422 33.7005 188.154 33.8828 187.82C34.0703 187.487 34.2161 187.125 34.3203 186.734V184.852C34.263 184.565 34.1745 184.289 34.0547 184.023C33.9401 183.753 33.7891 183.513 33.6016 183.305C33.4193 183.091 33.1927 182.922 32.9219 182.797C32.651 182.672 32.3333 182.609 31.9688 182.609C31.5729 182.609 31.2318 182.693 30.9453 182.859C30.6641 183.021 30.4323 183.245 30.25 183.531C30.0729 183.812 29.9401 184.141 29.8516 184.516C29.7682 184.885 29.7266 185.281 29.7266 185.703ZM42.7812 188.047V181.547H44.2344V190H42.8516L42.7812 188.047ZM43.0547 186.266L43.6562 186.25C43.6562 186.812 43.5964 187.333 43.4766 187.812C43.362 188.286 43.1745 188.698 42.9141 189.047C42.6536 189.396 42.3125 189.669 41.8906 189.867C41.4688 190.06 40.9557 190.156 40.3516 190.156C39.9401 190.156 39.5625 190.096 39.2188 189.977C38.8802 189.857 38.5885 189.672 38.3438 189.422C38.099 189.172 37.9089 188.846 37.7734 188.445C37.6432 188.044 37.5781 187.562 37.5781 187V181.547H39.0234V187.016C39.0234 187.396 39.0651 187.711 39.1484 187.961C39.237 188.206 39.3542 188.401 39.5 188.547C39.651 188.688 39.8177 188.786 40 188.844C40.1875 188.901 40.3802 188.93 40.5781 188.93C41.1927 188.93 41.6797 188.812 42.0391 188.578C42.3984 188.339 42.6562 188.018 42.8125 187.617C42.974 187.211 43.0547 186.76 43.0547 186.266ZM48.0078 181.547V190H46.5547V181.547H48.0078ZM46.4453 179.305C46.4453 179.07 46.5156 178.872 46.6562 178.711C46.8021 178.549 47.0156 178.469 47.2969 178.469C47.5729 178.469 47.7839 178.549 47.9297 178.711C48.0807 178.872 48.1562 179.07 48.1562 179.305C48.1562 179.529 48.0807 179.721 47.9297 179.883C47.7839 180.039 47.5729 180.117 47.2969 180.117C47.0156 180.117 46.8021 180.039 46.6562 179.883C46.5156 179.721 46.4453 179.529 46.4453 179.305ZM51.7734 183.352V190H50.3281V181.547H51.6953L51.7734 183.352ZM51.4297 185.453L50.8281 185.43C50.8333 184.852 50.9193 184.318 51.0859 183.828C51.2526 183.333 51.487 182.904 51.7891 182.539C52.0911 182.174 52.4505 181.893 52.8672 181.695C53.2891 181.492 53.7552 181.391 54.2656 181.391C54.6823 181.391 55.0573 181.448 55.3906 181.562C55.724 181.672 56.0078 181.849 56.2422 182.094C56.4818 182.339 56.6641 182.656 56.7891 183.047C56.9141 183.432 56.9766 183.904 56.9766 184.461V190H55.5234V184.445C55.5234 184.003 55.4583 183.648 55.3281 183.383C55.1979 183.112 55.0078 182.917 54.7578 182.797C54.5078 182.672 54.2005 182.609 53.8359 182.609C53.4766 182.609 53.1484 182.685 52.8516 182.836C52.5599 182.987 52.3073 183.195 52.0938 183.461C51.8854 183.727 51.7214 184.031 51.6016 184.375C51.487 184.714 51.4297 185.073 51.4297 185.453ZM68.4688 188.359V178H69.9219V190H68.5938L68.4688 188.359ZM62.7812 185.867V185.703C62.7812 185.057 62.8594 184.471 63.0156 183.945C63.1771 183.414 63.4036 182.958 63.6953 182.578C63.9922 182.198 64.3438 181.906 64.75 181.703C65.1615 181.495 65.6198 181.391 66.125 181.391C66.6562 181.391 67.1198 181.484 67.5156 181.672C67.9167 181.854 68.2552 182.122 68.5312 182.477C68.8125 182.826 69.0339 183.247 69.1953 183.742C69.3568 184.237 69.4688 184.797 69.5312 185.422V186.141C69.474 186.76 69.362 187.318 69.1953 187.812C69.0339 188.307 68.8125 188.729 68.5312 189.078C68.2552 189.427 67.9167 189.695 67.5156 189.883C67.1146 190.065 66.6458 190.156 66.1094 190.156C65.6146 190.156 65.1615 190.049 64.75 189.836C64.3438 189.622 63.9922 189.323 63.6953 188.938C63.4036 188.552 63.1771 188.099 63.0156 187.578C62.8594 187.052 62.7812 186.482 62.7812 185.867ZM64.2344 185.703V185.867C64.2344 186.289 64.276 186.685 64.3594 187.055C64.4479 187.424 64.5833 187.75 64.7656 188.031C64.9479 188.312 65.1797 188.534 65.4609 188.695C65.7422 188.852 66.0781 188.93 66.4688 188.93C66.9479 188.93 67.3411 188.828 67.6484 188.625C67.9609 188.422 68.2109 188.154 68.3984 187.82C68.5859 187.487 68.7318 187.125 68.8359 186.734V184.852C68.7734 184.565 68.6823 184.289 68.5625 184.023C68.4479 183.753 68.2969 183.513 68.1094 183.305C67.9271 183.091 67.7005 182.922 67.4297 182.797C67.1641 182.672 66.849 182.609 66.4844 182.609C66.0885 182.609 65.7474 182.693 65.4609 182.859C65.1797 183.021 64.9479 183.245 64.7656 183.531C64.5833 183.812 64.4479 184.141 64.3594 184.516C64.276 184.885 64.2344 185.281 64.2344 185.703ZM73.7422 181.547V190H72.2891V181.547H73.7422ZM72.1797 179.305C72.1797 179.07 72.25 178.872 72.3906 178.711C72.5365 178.549 72.75 178.469 73.0312 178.469C73.3073 178.469 73.5182 178.549 73.6641 178.711C73.8151 178.872 73.8906 179.07 73.8906 179.305C73.8906 179.529 73.8151 179.721 73.6641 179.883C73.5182 180.039 73.3073 180.117 73.0312 180.117C72.75 180.117 72.5365 180.039 72.3906 179.883C72.25 179.721 72.1797 179.529 72.1797 179.305ZM79.5703 190.156C78.9818 190.156 78.4479 190.057 77.9688 189.859C77.4948 189.656 77.0859 189.372 76.7422 189.008C76.4036 188.643 76.1432 188.211 75.9609 187.711C75.7786 187.211 75.6875 186.664 75.6875 186.07V185.742C75.6875 185.055 75.7891 184.443 75.9922 183.906C76.1953 183.365 76.4714 182.906 76.8203 182.531C77.1693 182.156 77.5651 181.872 78.0078 181.68C78.4505 181.487 78.9089 181.391 79.3828 181.391C79.987 181.391 80.5078 181.495 80.9453 181.703C81.388 181.911 81.75 182.203 82.0312 182.578C82.3125 182.948 82.5208 183.385 82.6562 183.891C82.7917 184.391 82.8594 184.938 82.8594 185.531V186.18H76.5469V185H81.4141V184.891C81.3932 184.516 81.3151 184.151 81.1797 183.797C81.0495 183.443 80.8411 183.151 80.5547 182.922C80.2682 182.693 79.8776 182.578 79.3828 182.578C79.0547 182.578 78.7526 182.648 78.4766 182.789C78.2005 182.924 77.9635 183.128 77.7656 183.398C77.5677 183.669 77.4141 184 77.3047 184.391C77.1953 184.781 77.1406 185.232 77.1406 185.742V186.07C77.1406 186.471 77.1953 186.849 77.3047 187.203C77.4193 187.552 77.5833 187.859 77.7969 188.125C78.0156 188.391 78.2786 188.599 78.5859 188.75C78.8984 188.901 79.2526 188.977 79.6484 188.977C80.1589 188.977 80.5911 188.872 80.9453 188.664C81.2995 188.456 81.6094 188.177 81.875 187.828L82.75 188.523C82.5677 188.799 82.3359 189.062 82.0547 189.312C81.7734 189.562 81.4271 189.766 81.0156 189.922C80.6094 190.078 80.1276 190.156 79.5703 190.156ZM88.0859 181.547V182.656H83.5156V181.547H88.0859ZM85.0625 179.492H86.5078V187.906C86.5078 188.193 86.5521 188.409 86.6406 188.555C86.7292 188.701 86.8438 188.797 86.9844 188.844C87.125 188.891 87.276 188.914 87.4375 188.914C87.5573 188.914 87.6823 188.904 87.8125 188.883C87.9479 188.857 88.0495 188.836 88.1172 188.82L88.125 190C88.0104 190.036 87.8594 190.07 87.6719 190.102C87.4896 190.138 87.2682 190.156 87.0078 190.156C86.6536 190.156 86.3281 190.086 86.0312 189.945C85.7344 189.805 85.4974 189.57 85.3203 189.242C85.1484 188.909 85.0625 188.461 85.0625 187.898V179.492ZM95.9062 190H94.4609V180.656C94.4609 180.047 94.5703 179.534 94.7891 179.117C95.013 178.695 95.3333 178.378 95.75 178.164C96.1667 177.945 96.6615 177.836 97.2344 177.836C97.401 177.836 97.5677 177.846 97.7344 177.867C97.9062 177.888 98.0729 177.919 98.2344 177.961L98.1562 179.141C98.0469 179.115 97.9219 179.096 97.7812 179.086C97.6458 179.076 97.5104 179.07 97.375 179.07C97.0677 179.07 96.8021 179.133 96.5781 179.258C96.3594 179.378 96.1927 179.555 96.0781 179.789C95.9635 180.023 95.9062 180.312 95.9062 180.656V190ZM97.7031 181.547V182.656H93.125V181.547H97.7031ZM98.9297 185.867V185.688C98.9297 185.078 99.0182 184.513 99.1953 183.992C99.3724 183.466 99.6276 183.01 99.9609 182.625C100.294 182.234 100.698 181.932 101.172 181.719C101.646 181.5 102.177 181.391 102.766 181.391C103.359 181.391 103.893 181.5 104.367 181.719C104.846 181.932 105.253 182.234 105.586 182.625C105.924 183.01 106.182 183.466 106.359 183.992C106.536 184.513 106.625 185.078 106.625 185.688V185.867C106.625 186.477 106.536 187.042 106.359 187.562C106.182 188.083 105.924 188.539 105.586 188.93C105.253 189.315 104.849 189.617 104.375 189.836C103.906 190.049 103.375 190.156 102.781 190.156C102.188 190.156 101.654 190.049 101.18 189.836C100.706 189.617 100.299 189.315 99.9609 188.93C99.6276 188.539 99.3724 188.083 99.1953 187.562C99.0182 187.042 98.9297 186.477 98.9297 185.867ZM100.375 185.688V185.867C100.375 186.289 100.424 186.688 100.523 187.062C100.622 187.432 100.771 187.76 100.969 188.047C101.172 188.333 101.424 188.56 101.727 188.727C102.029 188.888 102.38 188.969 102.781 188.969C103.177 188.969 103.523 188.888 103.82 188.727C104.122 188.56 104.372 188.333 104.57 188.047C104.768 187.76 104.917 187.432 105.016 187.062C105.12 186.688 105.172 186.289 105.172 185.867V185.688C105.172 185.271 105.12 184.878 105.016 184.508C104.917 184.133 104.766 183.802 104.562 183.516C104.365 183.224 104.115 182.995 103.812 182.828C103.516 182.661 103.167 182.578 102.766 182.578C102.37 182.578 102.021 182.661 101.719 182.828C101.422 182.995 101.172 183.224 100.969 183.516C100.771 183.802 100.622 184.133 100.523 184.508C100.424 184.878 100.375 185.271 100.375 185.688ZM109.883 182.875V190H108.438V181.547H109.844L109.883 182.875ZM112.523 181.5L112.516 182.844C112.396 182.818 112.281 182.802 112.172 182.797C112.068 182.786 111.948 182.781 111.812 182.781C111.479 182.781 111.185 182.833 110.93 182.938C110.674 183.042 110.458 183.188 110.281 183.375C110.104 183.562 109.964 183.786 109.859 184.047C109.76 184.302 109.695 184.583 109.664 184.891L109.258 185.125C109.258 184.615 109.307 184.135 109.406 183.688C109.51 183.24 109.669 182.844 109.883 182.5C110.096 182.151 110.367 181.88 110.695 181.688C111.029 181.49 111.424 181.391 111.883 181.391C111.987 181.391 112.107 181.404 112.242 181.43C112.378 181.451 112.471 181.474 112.523 181.5ZM121.367 181.547V182.656H116.797V181.547H121.367ZM118.344 179.492H119.789V187.906C119.789 188.193 119.833 188.409 119.922 188.555C120.01 188.701 120.125 188.797 120.266 188.844C120.406 188.891 120.557 188.914 120.719 188.914C120.839 188.914 120.964 188.904 121.094 188.883C121.229 188.857 121.331 188.836 121.398 188.82L121.406 190C121.292 190.036 121.141 190.07 120.953 190.102C120.771 190.138 120.549 190.156 120.289 190.156C119.935 190.156 119.609 190.086 119.312 189.945C119.016 189.805 118.779 189.57 118.602 189.242C118.43 188.909 118.344 188.461 118.344 187.898V179.492ZM124.508 178V190H123.062V178H124.508ZM124.164 185.453L123.562 185.43C123.568 184.852 123.654 184.318 123.82 183.828C123.987 183.333 124.221 182.904 124.523 182.539C124.826 182.174 125.185 181.893 125.602 181.695C126.023 181.492 126.49 181.391 127 181.391C127.417 181.391 127.792 181.448 128.125 181.562C128.458 181.672 128.742 181.849 128.977 182.094C129.216 182.339 129.398 182.656 129.523 183.047C129.648 183.432 129.711 183.904 129.711 184.461V190H128.258V184.445C128.258 184.003 128.193 183.648 128.062 183.383C127.932 183.112 127.742 182.917 127.492 182.797C127.242 182.672 126.935 182.609 126.57 182.609C126.211 182.609 125.883 182.685 125.586 182.836C125.294 182.987 125.042 183.195 124.828 183.461C124.62 183.727 124.456 184.031 124.336 184.375C124.221 184.714 124.164 185.073 124.164 185.453ZM135.383 190.156C134.794 190.156 134.26 190.057 133.781 189.859C133.307 189.656 132.898 189.372 132.555 189.008C132.216 188.643 131.956 188.211 131.773 187.711C131.591 187.211 131.5 186.664 131.5 186.07V185.742C131.5 185.055 131.602 184.443 131.805 183.906C132.008 183.365 132.284 182.906 132.633 182.531C132.982 182.156 133.378 181.872 133.82 181.68C134.263 181.487 134.721 181.391 135.195 181.391C135.799 181.391 136.32 181.495 136.758 181.703C137.201 181.911 137.562 182.203 137.844 182.578C138.125 182.948 138.333 183.385 138.469 183.891C138.604 184.391 138.672 184.938 138.672 185.531V186.18H132.359V185H137.227V184.891C137.206 184.516 137.128 184.151 136.992 183.797C136.862 183.443 136.654 183.151 136.367 182.922C136.081 182.693 135.69 182.578 135.195 182.578C134.867 182.578 134.565 182.648 134.289 182.789C134.013 182.924 133.776 183.128 133.578 183.398C133.38 183.669 133.227 184 133.117 184.391C133.008 184.781 132.953 185.232 132.953 185.742V186.07C132.953 186.471 133.008 186.849 133.117 187.203C133.232 187.552 133.396 187.859 133.609 188.125C133.828 188.391 134.091 188.599 134.398 188.75C134.711 188.901 135.065 188.977 135.461 188.977C135.971 188.977 136.404 188.872 136.758 188.664C137.112 188.456 137.422 188.177 137.688 187.828L138.562 188.523C138.38 188.799 138.148 189.062 137.867 189.312C137.586 189.562 137.24 189.766 136.828 189.922C136.422 190.078 135.94 190.156 135.383 190.156ZM149.656 188.359V178H151.109V190H149.781L149.656 188.359ZM143.969 185.867V185.703C143.969 185.057 144.047 184.471 144.203 183.945C144.365 183.414 144.591 182.958 144.883 182.578C145.18 182.198 145.531 181.906 145.938 181.703C146.349 181.495 146.807 181.391 147.312 181.391C147.844 181.391 148.307 181.484 148.703 181.672C149.104 181.854 149.443 182.122 149.719 182.477C150 182.826 150.221 183.247 150.383 183.742C150.544 184.237 150.656 184.797 150.719 185.422V186.141C150.661 186.76 150.549 187.318 150.383 187.812C150.221 188.307 150 188.729 149.719 189.078C149.443 189.427 149.104 189.695 148.703 189.883C148.302 190.065 147.833 190.156 147.297 190.156C146.802 190.156 146.349 190.049 145.938 189.836C145.531 189.622 145.18 189.323 144.883 188.938C144.591 188.552 144.365 188.099 144.203 187.578C144.047 187.052 143.969 186.482 143.969 185.867ZM145.422 185.703V185.867C145.422 186.289 145.464 186.685 145.547 187.055C145.635 187.424 145.771 187.75 145.953 188.031C146.135 188.312 146.367 188.534 146.648 188.695C146.93 188.852 147.266 188.93 147.656 188.93C148.135 188.93 148.529 188.828 148.836 188.625C149.148 188.422 149.398 188.154 149.586 187.82C149.773 187.487 149.919 187.125 150.023 186.734V184.852C149.961 184.565 149.87 184.289 149.75 184.023C149.635 183.753 149.484 183.513 149.297 183.305C149.115 183.091 148.888 182.922 148.617 182.797C148.352 182.672 148.036 182.609 147.672 182.609C147.276 182.609 146.935 182.693 146.648 182.859C146.367 183.021 146.135 183.245 145.953 183.531C145.771 183.812 145.635 184.141 145.547 184.516C145.464 184.885 145.422 185.281 145.422 185.703ZM158.344 188.555V184.203C158.344 183.87 158.276 183.581 158.141 183.336C158.01 183.086 157.812 182.893 157.547 182.758C157.281 182.622 156.953 182.555 156.562 182.555C156.198 182.555 155.878 182.617 155.602 182.742C155.331 182.867 155.117 183.031 154.961 183.234C154.81 183.438 154.734 183.656 154.734 183.891H153.289C153.289 183.589 153.367 183.289 153.523 182.992C153.68 182.695 153.904 182.427 154.195 182.188C154.492 181.943 154.846 181.75 155.258 181.609C155.674 181.464 156.138 181.391 156.648 181.391C157.263 181.391 157.805 181.495 158.273 181.703C158.747 181.911 159.117 182.227 159.383 182.648C159.654 183.065 159.789 183.589 159.789 184.219V188.156C159.789 188.438 159.812 188.737 159.859 189.055C159.911 189.372 159.987 189.646 160.086 189.875V190H158.578C158.505 189.833 158.448 189.612 158.406 189.336C158.365 189.055 158.344 188.794 158.344 188.555ZM158.594 184.875L158.609 185.891H157.148C156.737 185.891 156.37 185.924 156.047 185.992C155.724 186.055 155.453 186.151 155.234 186.281C155.016 186.411 154.849 186.576 154.734 186.773C154.62 186.966 154.562 187.193 154.562 187.453C154.562 187.719 154.622 187.961 154.742 188.18C154.862 188.398 155.042 188.573 155.281 188.703C155.526 188.828 155.826 188.891 156.18 188.891C156.622 188.891 157.013 188.797 157.352 188.609C157.69 188.422 157.958 188.193 158.156 187.922C158.359 187.651 158.469 187.388 158.484 187.133L159.102 187.828C159.065 188.047 158.966 188.289 158.805 188.555C158.643 188.82 158.427 189.076 158.156 189.32C157.891 189.56 157.573 189.76 157.203 189.922C156.839 190.078 156.427 190.156 155.969 190.156C155.396 190.156 154.893 190.044 154.461 189.82C154.034 189.596 153.701 189.297 153.461 188.922C153.227 188.542 153.109 188.117 153.109 187.648C153.109 187.195 153.198 186.797 153.375 186.453C153.552 186.104 153.807 185.815 154.141 185.586C154.474 185.352 154.875 185.174 155.344 185.055C155.812 184.935 156.336 184.875 156.914 184.875H158.594ZM164.312 189.125L166.664 181.547H168.211L164.82 191.305C164.742 191.513 164.638 191.737 164.508 191.977C164.383 192.221 164.221 192.453 164.023 192.672C163.826 192.891 163.586 193.068 163.305 193.203C163.029 193.344 162.698 193.414 162.312 193.414C162.198 193.414 162.052 193.398 161.875 193.367C161.698 193.336 161.573 193.31 161.5 193.289L161.492 192.117C161.534 192.122 161.599 192.128 161.688 192.133C161.781 192.143 161.846 192.148 161.883 192.148C162.211 192.148 162.49 192.104 162.719 192.016C162.948 191.932 163.141 191.789 163.297 191.586C163.458 191.388 163.596 191.115 163.711 190.766L164.312 189.125ZM162.586 181.547L164.781 188.109L165.156 189.633L164.117 190.164L161.008 181.547H162.586ZM168.695 189.234C168.695 188.99 168.771 188.784 168.922 188.617C169.078 188.445 169.302 188.359 169.594 188.359C169.885 188.359 170.107 188.445 170.258 188.617C170.414 188.784 170.492 188.99 170.492 189.234C170.492 189.474 170.414 189.677 170.258 189.844C170.107 190.01 169.885 190.094 169.594 190.094C169.302 190.094 169.078 190.01 168.922 189.844C168.771 189.677 168.695 189.474 168.695 189.234Z" fill="#333B41"/>
<path fill-rule="evenodd" clip-rule="evenodd" d="M353.445 218.422V224.038L356.085 227.519C358.836 231.151 354.362 230.234 349.596 230.366L345.987 230.461L343.254 232.579C338.41 236.324 336.126 238.159 337.523 231.875L338.232 228.658L333.078 228.688C327.864 228.31 328.565 227.454 333.496 225.447L341.698 222.098L342.704 217.996C323.316 204.153 323.508 171.223 329.08 150.268L337.868 117.211C325.466 131.198 325.836 136.865 320.101 154.602C318.529 159.47 314.839 163.038 313.738 156.2C311.481 142.232 314.448 125.013 321.984 113.606C331.133 99.752 349.018 74.0782 349.496 68.298C350.194 59.857 347.211 51.5428 347.211 41.65C347.211 15.45 395.789 15.45 395.789 41.65C395.789 51.5428 392.806 59.857 393.504 68.298C393.982 74.0782 411.867 99.752 421.016 113.606C428.552 125.013 431.519 142.232 429.262 156.2C428.161 163.038 424.471 159.47 422.899 154.602C417.164 136.865 417.534 131.198 405.132 117.211L413.92 150.268C419.492 171.223 419.684 204.153 400.296 217.996L401.302 222.098L409.504 225.447C414.435 227.454 415.136 228.31 409.922 228.688L404.768 228.658L405.477 231.875C406.874 238.159 404.59 236.324 399.746 232.579L397.013 230.461L393.404 230.366C388.638 230.234 384.164 231.151 386.915 227.519L389.555 224.038V218.422H353.445ZM384.684 39.4912C386.516 39.4912 387.999 40.9754 387.999 42.805C387.999 44.64 386.516 46.1242 384.684 46.1242C382.853 46.1242 381.369 44.64 381.369 42.805C381.369 40.9754 382.853 39.4912 384.684 39.4912ZM358.316 39.4912C360.145 39.4912 361.628 40.9754 361.628 42.805C361.628 44.64 360.145 46.1242 358.316 46.1242C356.482 46.1242 354.998 44.64 354.998 42.805C354.998 40.9754 356.482 39.4912 358.316 39.4912ZM371.497 60.1214L378.793 49.5702L376.188 46.591C376.466 41.059 382.78 33.8243 388.091 36.4796C393.615 39.2375 394.049 58.049 379.249 62.7201C394.761 75.0578 403.074 123.283 403.074 150.849C403.074 182.637 388.938 208.408 371.5 208.408C354.062 208.408 339.926 182.637 339.926 150.849C339.926 123.318 348.385 75.1846 363.902 62.7687C348.471 58.0382 349.41 38.0367 355.451 36.2664C360.665 34.7364 366.364 41.4071 366.634 46.7502L364.204 49.5702L371.497 60.1214V60.1214Z" fill="black"/>
</svg>
