<svg width="539" height="246" viewBox="0 0 539 246" fill="none" xmlns="http://www.w3.org/2000/svg">
<path d="M96.4492 107.566V114.633H95.3945C90.6133 114.703 86.793 116.016 83.9336 118.57C81.0742 121.125 79.375 124.746 78.8359 129.434C81.5781 126.551 85.082 125.109 89.3477 125.109C93.8711 125.109 97.4336 126.703 100.035 129.891C102.66 133.078 103.973 137.191 103.973 142.23C103.973 147.434 102.438 151.652 99.3672 154.887C96.3203 158.098 92.3125 159.703 87.3438 159.703C82.2344 159.703 78.0859 157.816 74.8984 154.043C71.7344 150.27 70.1523 145.324 70.1523 139.207V136.289C70.1523 127.312 72.332 120.281 76.6914 115.195C81.0742 110.109 87.3672 107.566 95.5703 107.566H96.4492ZM87.2734 132C85.3984 132 83.6758 132.527 82.1055 133.582C80.5586 134.637 79.4219 136.043 78.6953 137.801V140.402C78.6953 144.199 79.4922 147.223 81.0859 149.473C82.6797 151.699 84.7422 152.812 87.2734 152.812C89.8047 152.812 91.8086 151.863 93.2852 149.965C94.7617 148.066 95.5 145.57 95.5 142.477C95.5 139.383 94.75 136.863 93.25 134.918C91.75 132.973 89.7578 132 87.2734 132Z" fill="black"/>
<path d="M178 144C177.744 144 177.488 143.902 177.293 143.707C176.902 143.316 176.902 142.684 177.293 142.293L189.293 130.293C189.684 129.902 190.316 129.902 190.707 130.293C191.098 130.684 191.098 131.316 190.707 131.707L178.707 143.707C178.512 143.902 178.256 144 178 144Z" fill="#333B41"/>
<path d="M190 144C189.744 144 189.488 143.902 189.293 143.707L177.293 131.707C176.902 131.316 176.902 130.684 177.293 130.293C177.684 129.902 178.316 129.902 178.707 130.293L190.707 142.293C191.098 142.684 191.098 143.316 190.707 143.707C190.512 143.902 190.256 144 190 144Z" fill="#333B41"/>
<path d="M8.35156 186.383H9.85156C9.77344 187.102 9.56771 187.745 9.23438 188.312C8.90104 188.88 8.42969 189.331 7.82031 189.664C7.21094 189.992 6.45052 190.156 5.53906 190.156C4.8724 190.156 4.26562 190.031 3.71875 189.781C3.17708 189.531 2.71094 189.177 2.32031 188.719C1.92969 188.255 1.6276 187.701 1.41406 187.055C1.20573 186.404 1.10156 185.68 1.10156 184.883V183.75C1.10156 182.953 1.20573 182.232 1.41406 181.586C1.6276 180.935 1.93229 180.378 2.32812 179.914C2.72917 179.451 3.21094 179.094 3.77344 178.844C4.33594 178.594 4.96875 178.469 5.67188 178.469C6.53125 178.469 7.25781 178.63 7.85156 178.953C8.44531 179.276 8.90625 179.724 9.23438 180.297C9.56771 180.865 9.77344 181.523 9.85156 182.273H8.35156C8.27865 181.742 8.14323 181.286 7.94531 180.906C7.7474 180.521 7.46615 180.224 7.10156 180.016C6.73698 179.807 6.26042 179.703 5.67188 179.703C5.16667 179.703 4.72135 179.799 4.33594 179.992C3.95573 180.185 3.63542 180.458 3.375 180.812C3.11979 181.167 2.92708 181.591 2.79688 182.086C2.66667 182.581 2.60156 183.13 2.60156 183.734V184.883C2.60156 185.44 2.65885 185.964 2.77344 186.453C2.89323 186.943 3.07292 187.372 3.3125 187.742C3.55208 188.112 3.85677 188.404 4.22656 188.617C4.59635 188.826 5.03385 188.93 5.53906 188.93C6.17969 188.93 6.6901 188.828 7.07031 188.625C7.45052 188.422 7.73698 188.13 7.92969 187.75C8.1276 187.37 8.26823 186.914 8.35156 186.383ZM13.1328 178V190H11.6875V178H13.1328ZM12.7891 185.453L12.1875 185.43C12.1927 184.852 12.2786 184.318 12.4453 183.828C12.612 183.333 12.8464 182.904 13.1484 182.539C13.4505 182.174 13.8099 181.893 14.2266 181.695C14.6484 181.492 15.1146 181.391 15.625 181.391C16.0417 181.391 16.4167 181.448 16.75 181.562C17.0833 181.672 17.3672 181.849 17.6016 182.094C17.8411 182.339 18.0234 182.656 18.1484 183.047C18.2734 183.432 18.3359 183.904 18.3359 184.461V190H16.8828V184.445C16.8828 184.003 16.8177 183.648 16.6875 183.383C16.5573 183.112 16.3672 182.917 16.1172 182.797C15.8672 182.672 15.5599 182.609 15.1953 182.609C14.8359 182.609 14.5078 182.685 14.2109 182.836C13.9193 182.987 13.6667 183.195 13.4531 183.461C13.2448 183.727 13.0807 184.031 12.9609 184.375C12.8464 184.714 12.7891 185.073 12.7891 185.453ZM24.0078 190.156C23.4193 190.156 22.8854 190.057 22.4062 189.859C21.9323 189.656 21.5234 189.372 21.1797 189.008C20.8411 188.643 20.5807 188.211 20.3984 187.711C20.2161 187.211 20.125 186.664 20.125 186.07V185.742C20.125 185.055 20.2266 184.443 20.4297 183.906C20.6328 183.365 20.9089 182.906 21.2578 182.531C21.6068 182.156 22.0026 181.872 22.4453 181.68C22.888 181.487 23.3464 181.391 23.8203 181.391C24.4245 181.391 24.9453 181.495 25.3828 181.703C25.8255 181.911 26.1875 182.203 26.4688 182.578C26.75 182.948 26.9583 183.385 27.0938 183.891C27.2292 184.391 27.2969 184.938 27.2969 185.531V186.18H20.9844V185H25.8516V184.891C25.8307 184.516 25.7526 184.151 25.6172 183.797C25.487 183.443 25.2786 183.151 24.9922 182.922C24.7057 182.693 24.3151 182.578 23.8203 182.578C23.4922 182.578 23.1901 182.648 22.9141 182.789C22.638 182.924 22.401 183.128 22.2031 183.398C22.0052 183.669 21.8516 184 21.7422 184.391C21.6328 184.781 21.5781 185.232 21.5781 185.742V186.07C21.5781 186.471 21.6328 186.849 21.7422 187.203C21.8568 187.552 22.0208 187.859 22.2344 188.125C22.4531 188.391 22.7161 188.599 23.0234 188.75C23.3359 188.901 23.6901 188.977 24.0859 188.977C24.5964 188.977 25.0286 188.872 25.3828 188.664C25.737 188.456 26.0469 188.177 26.3125 187.828L27.1875 188.523C27.0052 188.799 26.7734 189.062 26.4922 189.312C26.2109 189.562 25.8646 189.766 25.4531 189.922C25.0469 190.078 24.5651 190.156 24.0078 190.156ZM32.4922 190.156C31.9036 190.156 31.3698 190.057 30.8906 189.859C30.4167 189.656 30.0078 189.372 29.6641 189.008C29.3255 188.643 29.0651 188.211 28.8828 187.711C28.7005 187.211 28.6094 186.664 28.6094 186.07V185.742C28.6094 185.055 28.7109 184.443 28.9141 183.906C29.1172 183.365 29.3932 182.906 29.7422 182.531C30.0911 182.156 30.487 181.872 30.9297 181.68C31.3724 181.487 31.8307 181.391 32.3047 181.391C32.9089 181.391 33.4297 181.495 33.8672 181.703C34.3099 181.911 34.6719 182.203 34.9531 182.578C35.2344 182.948 35.4427 183.385 35.5781 183.891C35.7135 184.391 35.7812 184.938 35.7812 185.531V186.18H29.4688V185H34.3359V184.891C34.3151 184.516 34.237 184.151 34.1016 183.797C33.9714 183.443 33.763 183.151 33.4766 182.922C33.1901 182.693 32.7995 182.578 32.3047 182.578C31.9766 182.578 31.6745 182.648 31.3984 182.789C31.1224 182.924 30.8854 183.128 30.6875 183.398C30.4896 183.669 30.3359 184 30.2266 184.391C30.1172 184.781 30.0625 185.232 30.0625 185.742V186.07C30.0625 186.471 30.1172 186.849 30.2266 187.203C30.3411 187.552 30.5052 187.859 30.7188 188.125C30.9375 188.391 31.2005 188.599 31.5078 188.75C31.8203 188.901 32.1745 188.977 32.5703 188.977C33.0807 188.977 33.513 188.872 33.8672 188.664C34.2214 188.456 34.5312 188.177 34.7969 187.828L35.6719 188.523C35.4896 188.799 35.2578 189.062 34.9766 189.312C34.6953 189.562 34.349 189.766 33.9375 189.922C33.5312 190.078 33.0495 190.156 32.4922 190.156ZM41.0078 181.547V182.656H36.4375V181.547H41.0078ZM37.9844 179.492H39.4297V187.906C39.4297 188.193 39.474 188.409 39.5625 188.555C39.651 188.701 39.7656 188.797 39.9062 188.844C40.0469 188.891 40.1979 188.914 40.3594 188.914C40.4792 188.914 40.6042 188.904 40.7344 188.883C40.8698 188.857 40.9714 188.836 41.0391 188.82L41.0469 190C40.9323 190.036 40.7812 190.07 40.5938 190.102C40.4115 190.138 40.1901 190.156 39.9297 190.156C39.5755 190.156 39.25 190.086 38.9531 189.945C38.6562 189.805 38.4193 189.57 38.2422 189.242C38.0703 188.909 37.9844 188.461 37.9844 187.898V179.492ZM47.6875 188.555V184.203C47.6875 183.87 47.6198 183.581 47.4844 183.336C47.3542 183.086 47.1562 182.893 46.8906 182.758C46.625 182.622 46.2969 182.555 45.9062 182.555C45.5417 182.555 45.2214 182.617 44.9453 182.742C44.6745 182.867 44.4609 183.031 44.3047 183.234C44.1536 183.438 44.0781 183.656 44.0781 183.891H42.6328C42.6328 183.589 42.7109 183.289 42.8672 182.992C43.0234 182.695 43.2474 182.427 43.5391 182.188C43.8359 181.943 44.1901 181.75 44.6016 181.609C45.0182 181.464 45.4818 181.391 45.9922 181.391C46.6068 181.391 47.1484 181.495 47.6172 181.703C48.0911 181.911 48.4609 182.227 48.7266 182.648C48.9974 183.065 49.1328 183.589 49.1328 184.219V188.156C49.1328 188.438 49.1562 188.737 49.2031 189.055C49.2552 189.372 49.3307 189.646 49.4297 189.875V190H47.9219C47.849 189.833 47.7917 189.612 47.75 189.336C47.7083 189.055 47.6875 188.794 47.6875 188.555ZM47.9375 184.875L47.9531 185.891H46.4922C46.0807 185.891 45.7135 185.924 45.3906 185.992C45.0677 186.055 44.7969 186.151 44.5781 186.281C44.3594 186.411 44.1927 186.576 44.0781 186.773C43.9635 186.966 43.9062 187.193 43.9062 187.453C43.9062 187.719 43.9661 187.961 44.0859 188.18C44.2057 188.398 44.3854 188.573 44.625 188.703C44.8698 188.828 45.1693 188.891 45.5234 188.891C45.9661 188.891 46.3568 188.797 46.6953 188.609C47.0339 188.422 47.3021 188.193 47.5 187.922C47.7031 187.651 47.8125 187.388 47.8281 187.133L48.4453 187.828C48.4089 188.047 48.3099 188.289 48.1484 188.555C47.987 188.82 47.7708 189.076 47.5 189.32C47.2344 189.56 46.9167 189.76 46.5469 189.922C46.1823 190.078 45.7708 190.156 45.3125 190.156C44.7396 190.156 44.237 190.044 43.8047 189.82C43.3776 189.596 43.0443 189.297 42.8047 188.922C42.5703 188.542 42.4531 188.117 42.4531 187.648C42.4531 187.195 42.5417 186.797 42.7188 186.453C42.8958 186.104 43.151 185.815 43.4844 185.586C43.8177 185.352 44.2188 185.174 44.6875 185.055C45.1562 184.935 45.6797 184.875 46.2578 184.875H47.9375ZM52.8516 178V190H51.4062V178H52.8516ZM52.5078 185.453L51.9062 185.43C51.9115 184.852 51.9974 184.318 52.1641 183.828C52.3307 183.333 52.5651 182.904 52.8672 182.539C53.1693 182.174 53.5286 181.893 53.9453 181.695C54.3672 181.492 54.8333 181.391 55.3438 181.391C55.7604 181.391 56.1354 181.448 56.4688 181.562C56.8021 181.672 57.0859 181.849 57.3203 182.094C57.5599 182.339 57.7422 182.656 57.8672 183.047C57.9922 183.432 58.0547 183.904 58.0547 184.461V190H56.6016V184.445C56.6016 184.003 56.5365 183.648 56.4062 183.383C56.276 183.112 56.0859 182.917 55.8359 182.797C55.5859 182.672 55.2786 182.609 54.9141 182.609C54.5547 182.609 54.2266 182.685 53.9297 182.836C53.638 182.987 53.3854 183.195 53.1719 183.461C52.9635 183.727 52.7995 184.031 52.6797 184.375C52.5651 184.714 52.5078 185.073 52.5078 185.453ZM69.5156 188.359V178H70.9688V190H69.6406L69.5156 188.359ZM63.8281 185.867V185.703C63.8281 185.057 63.9062 184.471 64.0625 183.945C64.224 183.414 64.4505 182.958 64.7422 182.578C65.0391 182.198 65.3906 181.906 65.7969 181.703C66.2083 181.495 66.6667 181.391 67.1719 181.391C67.7031 181.391 68.1667 181.484 68.5625 181.672C68.9635 181.854 69.3021 182.122 69.5781 182.477C69.8594 182.826 70.0807 183.247 70.2422 183.742C70.4036 184.237 70.5156 184.797 70.5781 185.422V186.141C70.5208 186.76 70.4089 187.318 70.2422 187.812C70.0807 188.307 69.8594 188.729 69.5781 189.078C69.3021 189.427 68.9635 189.695 68.5625 189.883C68.1615 190.065 67.6927 190.156 67.1562 190.156C66.6615 190.156 66.2083 190.049 65.7969 189.836C65.3906 189.622 65.0391 189.323 64.7422 188.938C64.4505 188.552 64.224 188.099 64.0625 187.578C63.9062 187.052 63.8281 186.482 63.8281 185.867ZM65.2812 185.703V185.867C65.2812 186.289 65.3229 186.685 65.4062 187.055C65.4948 187.424 65.6302 187.75 65.8125 188.031C65.9948 188.312 66.2266 188.534 66.5078 188.695C66.7891 188.852 67.125 188.93 67.5156 188.93C67.9948 188.93 68.388 188.828 68.6953 188.625C69.0078 188.422 69.2578 188.154 69.4453 187.82C69.6328 187.487 69.7786 187.125 69.8828 186.734V184.852C69.8203 184.565 69.7292 184.289 69.6094 184.023C69.4948 183.753 69.3438 183.513 69.1562 183.305C68.974 183.091 68.7474 182.922 68.4766 182.797C68.2109 182.672 67.8958 182.609 67.5312 182.609C67.1354 182.609 66.7943 182.693 66.5078 182.859C66.2266 183.021 65.9948 183.245 65.8125 183.531C65.6302 183.812 65.4948 184.141 65.4062 184.516C65.3229 184.885 65.2812 185.281 65.2812 185.703ZM74.7891 181.547V190H73.3359V181.547H74.7891ZM73.2266 179.305C73.2266 179.07 73.2969 178.872 73.4375 178.711C73.5833 178.549 73.7969 178.469 74.0781 178.469C74.3542 178.469 74.5651 178.549 74.7109 178.711C74.862 178.872 74.9375 179.07 74.9375 179.305C74.9375 179.529 74.862 179.721 74.7109 179.883C74.5651 180.039 74.3542 180.117 74.0781 180.117C73.7969 180.117 73.5833 180.039 73.4375 179.883C73.2969 179.721 73.2266 179.529 73.2266 179.305ZM80.6172 190.156C80.0286 190.156 79.4948 190.057 79.0156 189.859C78.5417 189.656 78.1328 189.372 77.7891 189.008C77.4505 188.643 77.1901 188.211 77.0078 187.711C76.8255 187.211 76.7344 186.664 76.7344 186.07V185.742C76.7344 185.055 76.8359 184.443 77.0391 183.906C77.2422 183.365 77.5182 182.906 77.8672 182.531C78.2161 182.156 78.612 181.872 79.0547 181.68C79.4974 181.487 79.9557 181.391 80.4297 181.391C81.0339 181.391 81.5547 181.495 81.9922 181.703C82.4349 181.911 82.7969 182.203 83.0781 182.578C83.3594 182.948 83.5677 183.385 83.7031 183.891C83.8385 184.391 83.9062 184.938 83.9062 185.531V186.18H77.5938V185H82.4609V184.891C82.4401 184.516 82.362 184.151 82.2266 183.797C82.0964 183.443 81.888 183.151 81.6016 182.922C81.3151 182.693 80.9245 182.578 80.4297 182.578C80.1016 182.578 79.7995 182.648 79.5234 182.789C79.2474 182.924 79.0104 183.128 78.8125 183.398C78.6146 183.669 78.4609 184 78.3516 184.391C78.2422 184.781 78.1875 185.232 78.1875 185.742V186.07C78.1875 186.471 78.2422 186.849 78.3516 187.203C78.4661 187.552 78.6302 187.859 78.8438 188.125C79.0625 188.391 79.3255 188.599 79.6328 188.75C79.9453 188.901 80.2995 188.977 80.6953 188.977C81.2057 188.977 81.638 188.872 81.9922 188.664C82.3464 188.456 82.6562 188.177 82.9219 187.828L83.7969 188.523C83.6146 188.799 83.3828 189.062 83.1016 189.312C82.8203 189.562 82.474 189.766 82.0625 189.922C81.6562 190.078 81.1745 190.156 80.6172 190.156ZM89.1328 181.547V182.656H84.5625V181.547H89.1328ZM86.1094 179.492H87.5547V187.906C87.5547 188.193 87.599 188.409 87.6875 188.555C87.776 188.701 87.8906 188.797 88.0312 188.844C88.1719 188.891 88.3229 188.914 88.4844 188.914C88.6042 188.914 88.7292 188.904 88.8594 188.883C88.9948 188.857 89.0964 188.836 89.1641 188.82L89.1719 190C89.0573 190.036 88.9062 190.07 88.7188 190.102C88.5365 190.138 88.3151 190.156 88.0547 190.156C87.7005 190.156 87.375 190.086 87.0781 189.945C86.7812 189.805 86.5443 189.57 86.3672 189.242C86.1953 188.909 86.1094 188.461 86.1094 187.898V179.492ZM96.9531 190H95.5078V180.656C95.5078 180.047 95.6172 179.534 95.8359 179.117C96.0599 178.695 96.3802 178.378 96.7969 178.164C97.2135 177.945 97.7083 177.836 98.2812 177.836C98.4479 177.836 98.6146 177.846 98.7812 177.867C98.9531 177.888 99.1198 177.919 99.2812 177.961L99.2031 179.141C99.0938 179.115 98.9688 179.096 98.8281 179.086C98.6927 179.076 98.5573 179.07 98.4219 179.07C98.1146 179.07 97.849 179.133 97.625 179.258C97.4062 179.378 97.2396 179.555 97.125 179.789C97.0104 180.023 96.9531 180.312 96.9531 180.656V190ZM98.75 181.547V182.656H94.1719V181.547H98.75ZM99.9766 185.867V185.688C99.9766 185.078 100.065 184.513 100.242 183.992C100.419 183.466 100.674 183.01 101.008 182.625C101.341 182.234 101.745 181.932 102.219 181.719C102.693 181.5 103.224 181.391 103.812 181.391C104.406 181.391 104.94 181.5 105.414 181.719C105.893 181.932 106.299 182.234 106.633 182.625C106.971 183.01 107.229 183.466 107.406 183.992C107.583 184.513 107.672 185.078 107.672 185.688V185.867C107.672 186.477 107.583 187.042 107.406 187.562C107.229 188.083 106.971 188.539 106.633 188.93C106.299 189.315 105.896 189.617 105.422 189.836C104.953 190.049 104.422 190.156 103.828 190.156C103.234 190.156 102.701 190.049 102.227 189.836C101.753 189.617 101.346 189.315 101.008 188.93C100.674 188.539 100.419 188.083 100.242 187.562C100.065 187.042 99.9766 186.477 99.9766 185.867ZM101.422 185.688V185.867C101.422 186.289 101.471 186.688 101.57 187.062C101.669 187.432 101.818 187.76 102.016 188.047C102.219 188.333 102.471 188.56 102.773 188.727C103.076 188.888 103.427 188.969 103.828 188.969C104.224 188.969 104.57 188.888 104.867 188.727C105.169 188.56 105.419 188.333 105.617 188.047C105.815 187.76 105.964 187.432 106.062 187.062C106.167 186.688 106.219 186.289 106.219 185.867V185.688C106.219 185.271 106.167 184.878 106.062 184.508C105.964 184.133 105.812 183.802 105.609 183.516C105.411 183.224 105.161 182.995 104.859 182.828C104.562 182.661 104.214 182.578 103.812 182.578C103.417 182.578 103.068 182.661 102.766 182.828C102.469 182.995 102.219 183.224 102.016 183.516C101.818 183.802 101.669 184.133 101.57 184.508C101.471 184.878 101.422 185.271 101.422 185.688ZM110.93 182.875V190H109.484V181.547H110.891L110.93 182.875ZM113.57 181.5L113.562 182.844C113.443 182.818 113.328 182.802 113.219 182.797C113.115 182.786 112.995 182.781 112.859 182.781C112.526 182.781 112.232 182.833 111.977 182.938C111.721 183.042 111.505 183.188 111.328 183.375C111.151 183.562 111.01 183.786 110.906 184.047C110.807 184.302 110.742 184.583 110.711 184.891L110.305 185.125C110.305 184.615 110.354 184.135 110.453 183.688C110.557 183.24 110.716 182.844 110.93 182.5C111.143 182.151 111.414 181.88 111.742 181.688C112.076 181.49 112.471 181.391 112.93 181.391C113.034 181.391 113.154 181.404 113.289 181.43C113.424 181.451 113.518 181.474 113.57 181.5ZM122.414 181.547V182.656H117.844V181.547H122.414ZM119.391 179.492H120.836V187.906C120.836 188.193 120.88 188.409 120.969 188.555C121.057 188.701 121.172 188.797 121.312 188.844C121.453 188.891 121.604 188.914 121.766 188.914C121.885 188.914 122.01 188.904 122.141 188.883C122.276 188.857 122.378 188.836 122.445 188.82L122.453 190C122.339 190.036 122.188 190.07 122 190.102C121.818 190.138 121.596 190.156 121.336 190.156C120.982 190.156 120.656 190.086 120.359 189.945C120.062 189.805 119.826 189.57 119.648 189.242C119.477 188.909 119.391 188.461 119.391 187.898V179.492ZM125.555 178V190H124.109V178H125.555ZM125.211 185.453L124.609 185.43C124.615 184.852 124.701 184.318 124.867 183.828C125.034 183.333 125.268 182.904 125.57 182.539C125.872 182.174 126.232 181.893 126.648 181.695C127.07 181.492 127.536 181.391 128.047 181.391C128.464 181.391 128.839 181.448 129.172 181.562C129.505 181.672 129.789 181.849 130.023 182.094C130.263 182.339 130.445 182.656 130.57 183.047C130.695 183.432 130.758 183.904 130.758 184.461V190H129.305V184.445C129.305 184.003 129.24 183.648 129.109 183.383C128.979 183.112 128.789 182.917 128.539 182.797C128.289 182.672 127.982 182.609 127.617 182.609C127.258 182.609 126.93 182.685 126.633 182.836C126.341 182.987 126.089 183.195 125.875 183.461C125.667 183.727 125.503 184.031 125.383 184.375C125.268 184.714 125.211 185.073 125.211 185.453ZM136.43 190.156C135.841 190.156 135.307 190.057 134.828 189.859C134.354 189.656 133.945 189.372 133.602 189.008C133.263 188.643 133.003 188.211 132.82 187.711C132.638 187.211 132.547 186.664 132.547 186.07V185.742C132.547 185.055 132.648 184.443 132.852 183.906C133.055 183.365 133.331 182.906 133.68 182.531C134.029 182.156 134.424 181.872 134.867 181.68C135.31 181.487 135.768 181.391 136.242 181.391C136.846 181.391 137.367 181.495 137.805 181.703C138.247 181.911 138.609 182.203 138.891 182.578C139.172 182.948 139.38 183.385 139.516 183.891C139.651 184.391 139.719 184.938 139.719 185.531V186.18H133.406V185H138.273V184.891C138.253 184.516 138.174 184.151 138.039 183.797C137.909 183.443 137.701 183.151 137.414 182.922C137.128 182.693 136.737 182.578 136.242 182.578C135.914 182.578 135.612 182.648 135.336 182.789C135.06 182.924 134.823 183.128 134.625 183.398C134.427 183.669 134.273 184 134.164 184.391C134.055 184.781 134 185.232 134 185.742V186.07C134 186.471 134.055 186.849 134.164 187.203C134.279 187.552 134.443 187.859 134.656 188.125C134.875 188.391 135.138 188.599 135.445 188.75C135.758 188.901 136.112 188.977 136.508 188.977C137.018 188.977 137.451 188.872 137.805 188.664C138.159 188.456 138.469 188.177 138.734 187.828L139.609 188.523C139.427 188.799 139.195 189.062 138.914 189.312C138.633 189.562 138.286 189.766 137.875 189.922C137.469 190.078 136.987 190.156 136.43 190.156ZM150.703 188.359V178H152.156V190H150.828L150.703 188.359ZM145.016 185.867V185.703C145.016 185.057 145.094 184.471 145.25 183.945C145.411 183.414 145.638 182.958 145.93 182.578C146.227 182.198 146.578 181.906 146.984 181.703C147.396 181.495 147.854 181.391 148.359 181.391C148.891 181.391 149.354 181.484 149.75 181.672C150.151 181.854 150.49 182.122 150.766 182.477C151.047 182.826 151.268 183.247 151.43 183.742C151.591 184.237 151.703 184.797 151.766 185.422V186.141C151.708 186.76 151.596 187.318 151.43 187.812C151.268 188.307 151.047 188.729 150.766 189.078C150.49 189.427 150.151 189.695 149.75 189.883C149.349 190.065 148.88 190.156 148.344 190.156C147.849 190.156 147.396 190.049 146.984 189.836C146.578 189.622 146.227 189.323 145.93 188.938C145.638 188.552 145.411 188.099 145.25 187.578C145.094 187.052 145.016 186.482 145.016 185.867ZM146.469 185.703V185.867C146.469 186.289 146.51 186.685 146.594 187.055C146.682 187.424 146.818 187.75 147 188.031C147.182 188.312 147.414 188.534 147.695 188.695C147.977 188.852 148.312 188.93 148.703 188.93C149.182 188.93 149.576 188.828 149.883 188.625C150.195 188.422 150.445 188.154 150.633 187.82C150.82 187.487 150.966 187.125 151.07 186.734V184.852C151.008 184.565 150.917 184.289 150.797 184.023C150.682 183.753 150.531 183.513 150.344 183.305C150.161 183.091 149.935 182.922 149.664 182.797C149.398 182.672 149.083 182.609 148.719 182.609C148.323 182.609 147.982 182.693 147.695 182.859C147.414 183.021 147.182 183.245 147 183.531C146.818 183.812 146.682 184.141 146.594 184.516C146.51 184.885 146.469 185.281 146.469 185.703ZM159.391 188.555V184.203C159.391 183.87 159.323 183.581 159.188 183.336C159.057 183.086 158.859 182.893 158.594 182.758C158.328 182.622 158 182.555 157.609 182.555C157.245 182.555 156.924 182.617 156.648 182.742C156.378 182.867 156.164 183.031 156.008 183.234C155.857 183.438 155.781 183.656 155.781 183.891H154.336C154.336 183.589 154.414 183.289 154.57 182.992C154.727 182.695 154.951 182.427 155.242 182.188C155.539 181.943 155.893 181.75 156.305 181.609C156.721 181.464 157.185 181.391 157.695 181.391C158.31 181.391 158.852 181.495 159.32 181.703C159.794 181.911 160.164 182.227 160.43 182.648C160.701 183.065 160.836 183.589 160.836 184.219V188.156C160.836 188.438 160.859 188.737 160.906 189.055C160.958 189.372 161.034 189.646 161.133 189.875V190H159.625C159.552 189.833 159.495 189.612 159.453 189.336C159.411 189.055 159.391 188.794 159.391 188.555ZM159.641 184.875L159.656 185.891H158.195C157.784 185.891 157.417 185.924 157.094 185.992C156.771 186.055 156.5 186.151 156.281 186.281C156.062 186.411 155.896 186.576 155.781 186.773C155.667 186.966 155.609 187.193 155.609 187.453C155.609 187.719 155.669 187.961 155.789 188.18C155.909 188.398 156.089 188.573 156.328 188.703C156.573 188.828 156.872 188.891 157.227 188.891C157.669 188.891 158.06 188.797 158.398 188.609C158.737 188.422 159.005 188.193 159.203 187.922C159.406 187.651 159.516 187.388 159.531 187.133L160.148 187.828C160.112 188.047 160.013 188.289 159.852 188.555C159.69 188.82 159.474 189.076 159.203 189.32C158.938 189.56 158.62 189.76 158.25 189.922C157.885 190.078 157.474 190.156 157.016 190.156C156.443 190.156 155.94 190.044 155.508 189.82C155.081 189.596 154.747 189.297 154.508 188.922C154.273 188.542 154.156 188.117 154.156 187.648C154.156 187.195 154.245 186.797 154.422 186.453C154.599 186.104 154.854 185.815 155.188 185.586C155.521 185.352 155.922 185.174 156.391 185.055C156.859 184.935 157.383 184.875 157.961 184.875H159.641ZM165.359 189.125L167.711 181.547H169.258L165.867 191.305C165.789 191.513 165.685 191.737 165.555 191.977C165.43 192.221 165.268 192.453 165.07 192.672C164.872 192.891 164.633 193.068 164.352 193.203C164.076 193.344 163.745 193.414 163.359 193.414C163.245 193.414 163.099 193.398 162.922 193.367C162.745 193.336 162.62 193.31 162.547 193.289L162.539 192.117C162.581 192.122 162.646 192.128 162.734 192.133C162.828 192.143 162.893 192.148 162.93 192.148C163.258 192.148 163.536 192.104 163.766 192.016C163.995 191.932 164.188 191.789 164.344 191.586C164.505 191.388 164.643 191.115 164.758 190.766L165.359 189.125ZM163.633 181.547L165.828 188.109L166.203 189.633L165.164 190.164L162.055 181.547H163.633ZM169.742 189.234C169.742 188.99 169.818 188.784 169.969 188.617C170.125 188.445 170.349 188.359 170.641 188.359C170.932 188.359 171.154 188.445 171.305 188.617C171.461 188.784 171.539 188.99 171.539 189.234C171.539 189.474 171.461 189.677 171.305 189.844C171.154 190.01 170.932 190.094 170.641 190.094C170.349 190.094 170.125 190.01 169.969 189.844C169.818 189.677 169.742 189.474 169.742 189.234Z" fill="#333B41"/>
<path opacity="0.5" d="M394.385 92.6369C394.361 92.6369 394.343 92.6369 394.322 92.6332C395.785 92.7159 396.139 92.7347 394.385 92.6369Z" fill="black"/>
<path d="M524.995 151.18C521.857 149.517 505.397 138.449 498.65 137.823C491.902 137.198 493.497 139.456 487.418 135.062C481.333 130.668 481.333 130.668 481.333 130.668C481.333 130.668 484.184 123.768 485.41 114.45C486.636 105.132 487.784 100.025 487.784 100.025C487.784 100.025 498.674 90.2792 504.342 94.3375C510.016 98.3997 509.983 98.5827 513.02 96.5688C516.056 94.555 512.969 90.5729 512.969 90.5729C512.969 90.5729 515.343 94.4176 516.962 90.325C517.66 88.5552 519.746 83.9896 515.586 78.2035C510.412 71.0099 513.934 71.1244 511.443 69.2554C508.946 67.3788 502.96 62.6607 498.311 61.627C493.563 60.5705 493.629 61.3448 490.398 60.3302C489.391 61.8254 492.202 65.7425 492.202 65.7425C492.202 65.7425 483.749 65.3573 478.615 68.8206C473.486 72.2686 473.546 73.02 467.506 76.4986C461.466 79.9847 462.989 76.5672 454.536 80.4081C446.083 84.249 438.073 94.021 431.823 96.0921C422.771 99.09 387.994 92.2969 394.319 92.6288C390.23 92.3961 377.455 91.66 377.455 91.66C358.457 93.0178 351.529 94.8029 329.027 120.034C306.525 145.265 297.733 148.282 281.75 148.69C265.768 149.106 272.41 143.667 265.917 143.506C259.428 143.346 262.947 147.957 262.998 151.409C263.049 154.873 272.08 158.569 282.674 158.569C293.27 158.569 309.306 152.988 336.446 125.114C344.581 116.761 349.215 111.951 351.724 109.304C350.978 113.786 345.573 145.333 340.4 148.518C334.827 151.959 325.919 156.387 319.543 162.345C313.167 168.31 309.312 185.161 308.824 190.184C308.332 195.204 309.972 197.702 312.007 199.369C314.039 201.032 314.915 203.385 317.963 203.385C321.012 203.385 319.333 200.178 318.287 198.309C316.138 194.464 312.514 190.383 318.437 180.893C326.704 167.639 337.21 169.538 349.56 160.979C361.907 152.428 378.959 132.045 378.959 132.045C378.959 132.045 388.141 129.623 396.072 134.608C404.007 139.597 410.199 146.592 422.067 149.205C433.937 151.806 464.916 142.515 464.916 142.515C464.916 142.515 469.637 150.486 477.97 150.986C486.3 151.486 493.185 145.608 496.893 146.527C500.607 147.443 514.935 151.222 518.514 154.011C522.09 156.795 520.858 163.256 529.14 158.569C530.301 157.901 528.127 152.836 524.995 151.18Z" fill="black"/>
<path opacity="0.5" d="M490.399 58.0463L490.39 58C490.39 58 490.396 58.0193 490.399 58.0463Z" fill="black"/>
<path d="M380.43 135.874C378.044 138.674 370.266 147.637 361.972 155.479C363.447 160.022 364.592 164.294 364.613 166.67C364.678 173.456 356.094 189.853 356.157 194.987C356.22 200.136 357.955 202.428 360.158 205.029C362.364 207.631 364.394 210.407 365.017 204.45C365.641 198.496 361.678 201.002 361.666 197.454C361.654 193.907 365.236 186.183 368.099 181.511C370.961 176.846 378.131 168.535 381.261 161.098C383.152 156.597 386.359 144.666 388.599 135.931C387.046 135.634 385.601 135.535 384.402 135.535C382.682 135.535 381.27 135.726 380.43 135.874Z" fill="black"/>
<path d="M491.255 152.031C488.929 152.977 486.204 154.087 483.168 154.674C485.623 156.799 487.475 158.801 487.574 160.098C487.889 164.115 488.818 165.514 487.574 167.093C486.333 168.673 485.683 168.821 484.972 170.408C484.259 171.987 484.04 176.919 485.887 177.434C487.73 177.941 489.01 176.793 489.655 175.019C490.296 173.238 493.557 159.175 493.512 155.689C493.497 154.781 492.814 153.385 491.78 151.821C491.606 151.89 491.432 151.955 491.255 152.031Z" fill="black"/>
</svg>
