<svg width="550" height="246" viewBox="0 0 550 246" fill="none" xmlns="http://www.w3.org/2000/svg">
<path d="M104.618 123.527C103.455 122.436 102.291 121.636 101.2 121.055C100.109 120.545 98.8727 120.255 97.4909 120.255C95.8909 120.255 94.7273 120.618 93.9273 121.273C93.1273 121.927 92.6909 123.018 92.6909 124.473C92.6909 125.491 93.1273 126.436 94 127.091C94.8727 127.818 95.8909 128.473 97.2 129.127C98.5091 129.782 99.8909 130.436 101.345 131.164C102.8 131.891 104.182 132.691 105.491 133.709C106.8 134.727 107.818 135.891 108.691 137.345C109.564 138.8 110 140.545 110 142.582C110 145.709 109.127 148.4 107.455 150.655C105.782 152.909 103.164 154.364 99.8182 155.164V162H93.4909V155.455C91.6 155.236 89.5636 154.727 87.4545 153.855C85.3455 152.982 83.5273 151.891 82 150.509L86.2182 144.036C87.8909 145.273 89.4909 146.218 90.9455 146.873C92.4727 147.527 94 147.818 95.5273 147.818C97.3455 147.818 98.7273 147.455 99.5273 146.727C100.4 146 100.836 144.836 100.836 143.309C100.836 142.145 100.4 141.2 99.5273 140.4C98.6545 139.6 97.6364 138.873 96.3273 138.145C95.0182 137.418 93.6364 136.691 92.1818 135.964C90.7273 135.236 89.3455 134.364 88.0364 133.345C86.7273 132.327 85.7091 131.164 84.8364 129.782C83.9636 128.4 83.5273 126.8 83.5273 124.836C83.5273 121.636 84.4 118.945 86.1455 116.836C87.8909 114.727 90.3636 113.345 93.4182 112.764V106H99.7455V112.618C101.855 112.909 103.673 113.564 105.273 114.509C106.873 115.455 108.255 116.618 109.564 118L104.618 123.527Z" fill="black"/>
<path d="M189 144C188.744 144 188.488 143.902 188.293 143.707C187.902 143.316 187.902 142.684 188.293 142.293L200.293 130.293C200.684 129.902 201.316 129.902 201.707 130.293C202.098 130.684 202.098 131.316 201.707 131.707L189.707 143.707C189.512 143.902 189.256 144 189 144Z" fill="#333B41"/>
<path d="M201 144C200.744 144 200.488 143.902 200.293 143.707L188.293 131.707C187.902 131.316 187.902 130.684 188.293 130.293C188.684 129.902 189.316 129.902 189.707 130.293L201.707 142.293C202.098 142.684 202.098 143.316 201.707 143.707C201.512 143.902 201.256 144 201 144Z" fill="#333B41"/>
<path d="M4.59375 190H2.21875L2.23438 188.773H4.59375C5.40625 188.773 6.08333 188.604 6.625 188.266C7.16667 187.922 7.57292 187.443 7.84375 186.828C8.11979 186.208 8.25781 185.484 8.25781 184.656V183.961C8.25781 183.31 8.17969 182.732 8.02344 182.227C7.86719 181.716 7.63802 181.286 7.33594 180.938C7.03385 180.583 6.66406 180.315 6.22656 180.133C5.79427 179.951 5.29688 179.859 4.73438 179.859H2.17188V178.625H4.73438C5.47917 178.625 6.15885 178.75 6.77344 179C7.38802 179.245 7.91667 179.602 8.35938 180.07C8.80729 180.534 9.15104 181.096 9.39062 181.758C9.63021 182.414 9.75 183.154 9.75 183.977V184.656C9.75 185.479 9.63021 186.221 9.39062 186.883C9.15104 187.539 8.80469 188.099 8.35156 188.562C7.90365 189.026 7.36198 189.383 6.72656 189.633C6.09635 189.878 5.38542 190 4.59375 190ZM3.02344 178.625V190H1.51562V178.625H3.02344ZM16.7812 188.555V184.203C16.7812 183.87 16.7135 183.581 16.5781 183.336C16.4479 183.086 16.25 182.893 15.9844 182.758C15.7188 182.622 15.3906 182.555 15 182.555C14.6354 182.555 14.3151 182.617 14.0391 182.742C13.7682 182.867 13.5547 183.031 13.3984 183.234C13.2474 183.438 13.1719 183.656 13.1719 183.891H11.7266C11.7266 183.589 11.8047 183.289 11.9609 182.992C12.1172 182.695 12.3411 182.427 12.6328 182.188C12.9297 181.943 13.2839 181.75 13.6953 181.609C14.112 181.464 14.5755 181.391 15.0859 181.391C15.7005 181.391 16.2422 181.495 16.7109 181.703C17.1849 181.911 17.5547 182.227 17.8203 182.648C18.0911 183.065 18.2266 183.589 18.2266 184.219V188.156C18.2266 188.438 18.25 188.737 18.2969 189.055C18.349 189.372 18.4245 189.646 18.5234 189.875V190H17.0156C16.9427 189.833 16.8854 189.612 16.8438 189.336C16.8021 189.055 16.7812 188.794 16.7812 188.555ZM17.0312 184.875L17.0469 185.891H15.5859C15.1745 185.891 14.8073 185.924 14.4844 185.992C14.1615 186.055 13.8906 186.151 13.6719 186.281C13.4531 186.411 13.2865 186.576 13.1719 186.773C13.0573 186.966 13 187.193 13 187.453C13 187.719 13.0599 187.961 13.1797 188.18C13.2995 188.398 13.4792 188.573 13.7188 188.703C13.9635 188.828 14.263 188.891 14.6172 188.891C15.0599 188.891 15.4505 188.797 15.7891 188.609C16.1276 188.422 16.3958 188.193 16.5938 187.922C16.7969 187.651 16.9062 187.388 16.9219 187.133L17.5391 187.828C17.5026 188.047 17.4036 188.289 17.2422 188.555C17.0807 188.82 16.8646 189.076 16.5938 189.32C16.3281 189.56 16.0104 189.76 15.6406 189.922C15.276 190.078 14.8646 190.156 14.4062 190.156C13.8333 190.156 13.3307 190.044 12.8984 189.82C12.4714 189.596 12.138 189.297 11.8984 188.922C11.6641 188.542 11.5469 188.117 11.5469 187.648C11.5469 187.195 11.6354 186.797 11.8125 186.453C11.9896 186.104 12.2448 185.815 12.5781 185.586C12.9115 185.352 13.3125 185.174 13.7812 185.055C14.25 184.935 14.7734 184.875 15.3516 184.875H17.0312ZM22.0703 181.547V190H20.6172V181.547H22.0703ZM20.5078 179.305C20.5078 179.07 20.5781 178.872 20.7188 178.711C20.8646 178.549 21.0781 178.469 21.3594 178.469C21.6354 178.469 21.8464 178.549 21.9922 178.711C22.1432 178.872 22.2188 179.07 22.2188 179.305C22.2188 179.529 22.1432 179.721 21.9922 179.883C21.8464 180.039 21.6354 180.117 21.3594 180.117C21.0781 180.117 20.8646 180.039 20.7188 179.883C20.5781 179.721 20.5078 179.529 20.5078 179.305ZM25.9609 178V190H24.5078V178H25.9609ZM30.6562 189.125L33.0078 181.547H34.5547L31.1641 191.305C31.0859 191.513 30.9818 191.737 30.8516 191.977C30.7266 192.221 30.5651 192.453 30.3672 192.672C30.1693 192.891 29.9297 193.068 29.6484 193.203C29.3724 193.344 29.0417 193.414 28.6562 193.414C28.5417 193.414 28.3958 193.398 28.2188 193.367C28.0417 193.336 27.9167 193.31 27.8438 193.289L27.8359 192.117C27.8776 192.122 27.9427 192.128 28.0312 192.133C28.125 192.143 28.1901 192.148 28.2266 192.148C28.5547 192.148 28.8333 192.104 29.0625 192.016C29.2917 191.932 29.4844 191.789 29.6406 191.586C29.8021 191.388 29.9401 191.115 30.0547 190.766L30.6562 189.125ZM28.9297 181.547L31.125 188.109L31.5 189.633L30.4609 190.164L27.3516 181.547H28.9297ZM45.1562 188.359V178H46.6094V190H45.2812L45.1562 188.359ZM39.4688 185.867V185.703C39.4688 185.057 39.5469 184.471 39.7031 183.945C39.8646 183.414 40.0911 182.958 40.3828 182.578C40.6797 182.198 41.0312 181.906 41.4375 181.703C41.849 181.495 42.3073 181.391 42.8125 181.391C43.3438 181.391 43.8073 181.484 44.2031 181.672C44.6042 181.854 44.9427 182.122 45.2188 182.477C45.5 182.826 45.7214 183.247 45.8828 183.742C46.0443 184.237 46.1562 184.797 46.2188 185.422V186.141C46.1615 186.76 46.0495 187.318 45.8828 187.812C45.7214 188.307 45.5 188.729 45.2188 189.078C44.9427 189.427 44.6042 189.695 44.2031 189.883C43.8021 190.065 43.3333 190.156 42.7969 190.156C42.3021 190.156 41.849 190.049 41.4375 189.836C41.0312 189.622 40.6797 189.323 40.3828 188.938C40.0911 188.552 39.8646 188.099 39.7031 187.578C39.5469 187.052 39.4688 186.482 39.4688 185.867ZM40.9219 185.703V185.867C40.9219 186.289 40.9635 186.685 41.0469 187.055C41.1354 187.424 41.2708 187.75 41.4531 188.031C41.6354 188.312 41.8672 188.534 42.1484 188.695C42.4297 188.852 42.7656 188.93 43.1562 188.93C43.6354 188.93 44.0286 188.828 44.3359 188.625C44.6484 188.422 44.8984 188.154 45.0859 187.82C45.2734 187.487 45.4193 187.125 45.5234 186.734V184.852C45.4609 184.565 45.3698 184.289 45.25 184.023C45.1354 183.753 44.9844 183.513 44.7969 183.305C44.6146 183.091 44.388 182.922 44.1172 182.797C43.8516 182.672 43.5365 182.609 43.1719 182.609C42.776 182.609 42.4349 182.693 42.1484 182.859C41.8672 183.021 41.6354 183.245 41.4531 183.531C41.2708 183.812 41.1354 184.141 41.0469 184.516C40.9635 184.885 40.9219 185.281 40.9219 185.703ZM50.4297 181.547V190H48.9766V181.547H50.4297ZM48.8672 179.305C48.8672 179.07 48.9375 178.872 49.0781 178.711C49.224 178.549 49.4375 178.469 49.7188 178.469C49.9948 178.469 50.2057 178.549 50.3516 178.711C50.5026 178.872 50.5781 179.07 50.5781 179.305C50.5781 179.529 50.5026 179.721 50.3516 179.883C50.2057 180.039 49.9948 180.117 49.7188 180.117C49.4375 180.117 49.224 180.039 49.0781 179.883C48.9375 179.721 48.8672 179.529 48.8672 179.305ZM56.2578 190.156C55.6693 190.156 55.1354 190.057 54.6562 189.859C54.1823 189.656 53.7734 189.372 53.4297 189.008C53.0911 188.643 52.8307 188.211 52.6484 187.711C52.4661 187.211 52.375 186.664 52.375 186.07V185.742C52.375 185.055 52.4766 184.443 52.6797 183.906C52.8828 183.365 53.1589 182.906 53.5078 182.531C53.8568 182.156 54.2526 181.872 54.6953 181.68C55.138 181.487 55.5964 181.391 56.0703 181.391C56.6745 181.391 57.1953 181.495 57.6328 181.703C58.0755 181.911 58.4375 182.203 58.7188 182.578C59 182.948 59.2083 183.385 59.3438 183.891C59.4792 184.391 59.5469 184.938 59.5469 185.531V186.18H53.2344V185H58.1016V184.891C58.0807 184.516 58.0026 184.151 57.8672 183.797C57.737 183.443 57.5286 183.151 57.2422 182.922C56.9557 182.693 56.5651 182.578 56.0703 182.578C55.7422 182.578 55.4401 182.648 55.1641 182.789C54.888 182.924 54.651 183.128 54.4531 183.398C54.2552 183.669 54.1016 184 53.9922 184.391C53.8828 184.781 53.8281 185.232 53.8281 185.742V186.07C53.8281 186.471 53.8828 186.849 53.9922 187.203C54.1068 187.552 54.2708 187.859 54.4844 188.125C54.7031 188.391 54.9661 188.599 55.2734 188.75C55.5859 188.901 55.9401 188.977 56.3359 188.977C56.8464 188.977 57.2786 188.872 57.6328 188.664C57.987 188.456 58.2969 188.177 58.5625 187.828L59.4375 188.523C59.2552 188.799 59.0234 189.062 58.7422 189.312C58.4609 189.562 58.1146 189.766 57.7031 189.922C57.2969 190.078 56.8151 190.156 56.2578 190.156ZM64.7734 181.547V182.656H60.2031V181.547H64.7734ZM61.75 179.492H63.1953V187.906C63.1953 188.193 63.2396 188.409 63.3281 188.555C63.4167 188.701 63.5312 188.797 63.6719 188.844C63.8125 188.891 63.9635 188.914 64.125 188.914C64.2448 188.914 64.3698 188.904 64.5 188.883C64.6354 188.857 64.737 188.836 64.8047 188.82L64.8125 190C64.6979 190.036 64.5469 190.07 64.3594 190.102C64.1771 190.138 63.9557 190.156 63.6953 190.156C63.3411 190.156 63.0156 190.086 62.7188 189.945C62.4219 189.805 62.1849 189.57 62.0078 189.242C61.8359 188.909 61.75 188.461 61.75 187.898V179.492ZM70.0547 185.867V185.688C70.0547 185.078 70.1432 184.513 70.3203 183.992C70.4974 183.466 70.7526 183.01 71.0859 182.625C71.4193 182.234 71.8229 181.932 72.2969 181.719C72.7708 181.5 73.3021 181.391 73.8906 181.391C74.4844 181.391 75.0182 181.5 75.4922 181.719C75.9714 181.932 76.3776 182.234 76.7109 182.625C77.0495 183.01 77.3073 183.466 77.4844 183.992C77.6615 184.513 77.75 185.078 77.75 185.688V185.867C77.75 186.477 77.6615 187.042 77.4844 187.562C77.3073 188.083 77.0495 188.539 76.7109 188.93C76.3776 189.315 75.974 189.617 75.5 189.836C75.0312 190.049 74.5 190.156 73.9062 190.156C73.3125 190.156 72.7786 190.049 72.3047 189.836C71.8307 189.617 71.4245 189.315 71.0859 188.93C70.7526 188.539 70.4974 188.083 70.3203 187.562C70.1432 187.042 70.0547 186.477 70.0547 185.867ZM71.5 185.688V185.867C71.5 186.289 71.5495 186.688 71.6484 187.062C71.7474 187.432 71.8958 187.76 72.0938 188.047C72.2969 188.333 72.5495 188.56 72.8516 188.727C73.1536 188.888 73.5052 188.969 73.9062 188.969C74.3021 188.969 74.6484 188.888 74.9453 188.727C75.2474 188.56 75.4974 188.333 75.6953 188.047C75.8932 187.76 76.0417 187.432 76.1406 187.062C76.2448 186.688 76.2969 186.289 76.2969 185.867V185.688C76.2969 185.271 76.2448 184.878 76.1406 184.508C76.0417 184.133 75.8906 183.802 75.6875 183.516C75.4896 183.224 75.2396 182.995 74.9375 182.828C74.6406 182.661 74.2917 182.578 73.8906 182.578C73.4948 182.578 73.1458 182.661 72.8438 182.828C72.5469 182.995 72.2969 183.224 72.0938 183.516C71.8958 183.802 71.7474 184.133 71.6484 184.508C71.5495 184.878 71.5 185.271 71.5 185.688ZM81.7188 190H80.2734V180.656C80.2734 180.047 80.3828 179.534 80.6016 179.117C80.8255 178.695 81.1458 178.378 81.5625 178.164C81.9792 177.945 82.474 177.836 83.0469 177.836C83.2135 177.836 83.3802 177.846 83.5469 177.867C83.7188 177.888 83.8854 177.919 84.0469 177.961L83.9688 179.141C83.8594 179.115 83.7344 179.096 83.5938 179.086C83.4583 179.076 83.3229 179.07 83.1875 179.07C82.8802 179.07 82.6146 179.133 82.3906 179.258C82.1719 179.378 82.0052 179.555 81.8906 179.789C81.776 180.023 81.7188 180.312 81.7188 180.656V190ZM83.5156 181.547V182.656H78.9375V181.547H83.5156ZM94.0781 188.555V184.203C94.0781 183.87 94.0104 183.581 93.875 183.336C93.7448 183.086 93.5469 182.893 93.2812 182.758C93.0156 182.622 92.6875 182.555 92.2969 182.555C91.9323 182.555 91.612 182.617 91.3359 182.742C91.0651 182.867 90.8516 183.031 90.6953 183.234C90.5443 183.438 90.4688 183.656 90.4688 183.891H89.0234C89.0234 183.589 89.1016 183.289 89.2578 182.992C89.4141 182.695 89.638 182.427 89.9297 182.188C90.2266 181.943 90.5807 181.75 90.9922 181.609C91.4089 181.464 91.8724 181.391 92.3828 181.391C92.9974 181.391 93.5391 181.495 94.0078 181.703C94.4818 181.911 94.8516 182.227 95.1172 182.648C95.388 183.065 95.5234 183.589 95.5234 184.219V188.156C95.5234 188.438 95.5469 188.737 95.5938 189.055C95.6458 189.372 95.7214 189.646 95.8203 189.875V190H94.3125C94.2396 189.833 94.1823 189.612 94.1406 189.336C94.099 189.055 94.0781 188.794 94.0781 188.555ZM94.3281 184.875L94.3438 185.891H92.8828C92.4714 185.891 92.1042 185.924 91.7812 185.992C91.4583 186.055 91.1875 186.151 90.9688 186.281C90.75 186.411 90.5833 186.576 90.4688 186.773C90.3542 186.966 90.2969 187.193 90.2969 187.453C90.2969 187.719 90.3568 187.961 90.4766 188.18C90.5964 188.398 90.776 188.573 91.0156 188.703C91.2604 188.828 91.5599 188.891 91.9141 188.891C92.3568 188.891 92.7474 188.797 93.0859 188.609C93.4245 188.422 93.6927 188.193 93.8906 187.922C94.0938 187.651 94.2031 187.388 94.2188 187.133L94.8359 187.828C94.7995 188.047 94.7005 188.289 94.5391 188.555C94.3776 188.82 94.1615 189.076 93.8906 189.32C93.625 189.56 93.3073 189.76 92.9375 189.922C92.5729 190.078 92.1615 190.156 91.7031 190.156C91.1302 190.156 90.6276 190.044 90.1953 189.82C89.7682 189.596 89.4349 189.297 89.1953 188.922C88.9609 188.542 88.8438 188.117 88.8438 187.648C88.8438 187.195 88.9323 186.797 89.1094 186.453C89.2865 186.104 89.5417 185.815 89.875 185.586C90.2083 185.352 90.6094 185.174 91.0781 185.055C91.5469 184.935 92.0703 184.875 92.6484 184.875H94.3281ZM99.3672 178V190H97.9141V178H99.3672ZM103.258 178V190H101.805V178H103.258ZM115.844 188.812V190H109.695V188.812H115.844ZM115.617 182.57L110.023 190H109.141V188.938L114.695 181.547H115.617V182.57ZM114.977 181.547V182.742H109.203V181.547H114.977ZM116.977 185.867V185.688C116.977 185.078 117.065 184.513 117.242 183.992C117.419 183.466 117.674 183.01 118.008 182.625C118.341 182.234 118.745 181.932 119.219 181.719C119.693 181.5 120.224 181.391 120.812 181.391C121.406 181.391 121.94 181.5 122.414 181.719C122.893 181.932 123.299 182.234 123.633 182.625C123.971 183.01 124.229 183.466 124.406 183.992C124.583 184.513 124.672 185.078 124.672 185.688V185.867C124.672 186.477 124.583 187.042 124.406 187.562C124.229 188.083 123.971 188.539 123.633 188.93C123.299 189.315 122.896 189.617 122.422 189.836C121.953 190.049 121.422 190.156 120.828 190.156C120.234 190.156 119.701 190.049 119.227 189.836C118.753 189.617 118.346 189.315 118.008 188.93C117.674 188.539 117.419 188.083 117.242 187.562C117.065 187.042 116.977 186.477 116.977 185.867ZM118.422 185.688V185.867C118.422 186.289 118.471 186.688 118.57 187.062C118.669 187.432 118.818 187.76 119.016 188.047C119.219 188.333 119.471 188.56 119.773 188.727C120.076 188.888 120.427 188.969 120.828 188.969C121.224 188.969 121.57 188.888 121.867 188.727C122.169 188.56 122.419 188.333 122.617 188.047C122.815 187.76 122.964 187.432 123.062 187.062C123.167 186.688 123.219 186.289 123.219 185.867V185.688C123.219 185.271 123.167 184.878 123.062 184.508C122.964 184.133 122.812 183.802 122.609 183.516C122.411 183.224 122.161 182.995 121.859 182.828C121.562 182.661 121.214 182.578 120.812 182.578C120.417 182.578 120.068 182.661 119.766 182.828C119.469 182.995 119.219 183.224 119.016 183.516C118.818 183.802 118.669 184.133 118.57 184.508C118.471 184.878 118.422 185.271 118.422 185.688ZM126.102 185.867V185.688C126.102 185.078 126.19 184.513 126.367 183.992C126.544 183.466 126.799 183.01 127.133 182.625C127.466 182.234 127.87 181.932 128.344 181.719C128.818 181.5 129.349 181.391 129.938 181.391C130.531 181.391 131.065 181.5 131.539 181.719C132.018 181.932 132.424 182.234 132.758 182.625C133.096 183.01 133.354 183.466 133.531 183.992C133.708 184.513 133.797 185.078 133.797 185.688V185.867C133.797 186.477 133.708 187.042 133.531 187.562C133.354 188.083 133.096 188.539 132.758 188.93C132.424 189.315 132.021 189.617 131.547 189.836C131.078 190.049 130.547 190.156 129.953 190.156C129.359 190.156 128.826 190.049 128.352 189.836C127.878 189.617 127.471 189.315 127.133 188.93C126.799 188.539 126.544 188.083 126.367 187.562C126.19 187.042 126.102 186.477 126.102 185.867ZM127.547 185.688V185.867C127.547 186.289 127.596 186.688 127.695 187.062C127.794 187.432 127.943 187.76 128.141 188.047C128.344 188.333 128.596 188.56 128.898 188.727C129.201 188.888 129.552 188.969 129.953 188.969C130.349 188.969 130.695 188.888 130.992 188.727C131.294 188.56 131.544 188.333 131.742 188.047C131.94 187.76 132.089 187.432 132.188 187.062C132.292 186.688 132.344 186.289 132.344 185.867V185.688C132.344 185.271 132.292 184.878 132.188 184.508C132.089 184.133 131.938 183.802 131.734 183.516C131.536 183.224 131.286 182.995 130.984 182.828C130.688 182.661 130.339 182.578 129.938 182.578C129.542 182.578 129.193 182.661 128.891 182.828C128.594 182.995 128.344 183.224 128.141 183.516C127.943 183.802 127.794 184.133 127.695 184.508C127.596 184.878 127.547 185.271 127.547 185.688ZM144.562 188.555V184.203C144.562 183.87 144.495 183.581 144.359 183.336C144.229 183.086 144.031 182.893 143.766 182.758C143.5 182.622 143.172 182.555 142.781 182.555C142.417 182.555 142.096 182.617 141.82 182.742C141.549 182.867 141.336 183.031 141.18 183.234C141.029 183.438 140.953 183.656 140.953 183.891H139.508C139.508 183.589 139.586 183.289 139.742 182.992C139.898 182.695 140.122 182.427 140.414 182.188C140.711 181.943 141.065 181.75 141.477 181.609C141.893 181.464 142.357 181.391 142.867 181.391C143.482 181.391 144.023 181.495 144.492 181.703C144.966 181.911 145.336 182.227 145.602 182.648C145.872 183.065 146.008 183.589 146.008 184.219V188.156C146.008 188.438 146.031 188.737 146.078 189.055C146.13 189.372 146.206 189.646 146.305 189.875V190H144.797C144.724 189.833 144.667 189.612 144.625 189.336C144.583 189.055 144.562 188.794 144.562 188.555ZM144.812 184.875L144.828 185.891H143.367C142.956 185.891 142.589 185.924 142.266 185.992C141.943 186.055 141.672 186.151 141.453 186.281C141.234 186.411 141.068 186.576 140.953 186.773C140.839 186.966 140.781 187.193 140.781 187.453C140.781 187.719 140.841 187.961 140.961 188.18C141.081 188.398 141.26 188.573 141.5 188.703C141.745 188.828 142.044 188.891 142.398 188.891C142.841 188.891 143.232 188.797 143.57 188.609C143.909 188.422 144.177 188.193 144.375 187.922C144.578 187.651 144.688 187.388 144.703 187.133L145.32 187.828C145.284 188.047 145.185 188.289 145.023 188.555C144.862 188.82 144.646 189.076 144.375 189.32C144.109 189.56 143.792 189.76 143.422 189.922C143.057 190.078 142.646 190.156 142.188 190.156C141.615 190.156 141.112 190.044 140.68 189.82C140.253 189.596 139.919 189.297 139.68 188.922C139.445 188.542 139.328 188.117 139.328 187.648C139.328 187.195 139.417 186.797 139.594 186.453C139.771 186.104 140.026 185.815 140.359 185.586C140.693 185.352 141.094 185.174 141.562 185.055C142.031 184.935 142.555 184.875 143.133 184.875H144.812ZM149.727 183.352V190H148.281V181.547H149.648L149.727 183.352ZM149.383 185.453L148.781 185.43C148.786 184.852 148.872 184.318 149.039 183.828C149.206 183.333 149.44 182.904 149.742 182.539C150.044 182.174 150.404 181.893 150.82 181.695C151.242 181.492 151.708 181.391 152.219 181.391C152.635 181.391 153.01 181.448 153.344 181.562C153.677 181.672 153.961 181.849 154.195 182.094C154.435 182.339 154.617 182.656 154.742 183.047C154.867 183.432 154.93 183.904 154.93 184.461V190H153.477V184.445C153.477 184.003 153.411 183.648 153.281 183.383C153.151 183.112 152.961 182.917 152.711 182.797C152.461 182.672 152.154 182.609 151.789 182.609C151.43 182.609 151.102 182.685 150.805 182.836C150.513 182.987 150.26 183.195 150.047 183.461C149.839 183.727 149.674 184.031 149.555 184.375C149.44 184.714 149.383 185.073 149.383 185.453ZM158.695 181.547V190H157.242V181.547H158.695ZM157.133 179.305C157.133 179.07 157.203 178.872 157.344 178.711C157.49 178.549 157.703 178.469 157.984 178.469C158.26 178.469 158.471 178.549 158.617 178.711C158.768 178.872 158.844 179.07 158.844 179.305C158.844 179.529 158.768 179.721 158.617 179.883C158.471 180.039 158.26 180.117 157.984 180.117C157.703 180.117 157.49 180.039 157.344 179.883C157.203 179.721 157.133 179.529 157.133 179.305ZM162.453 183.227V190H161V181.547H162.375L162.453 183.227ZM162.156 185.453L161.484 185.43C161.49 184.852 161.565 184.318 161.711 183.828C161.857 183.333 162.073 182.904 162.359 182.539C162.646 182.174 163.003 181.893 163.43 181.695C163.857 181.492 164.352 181.391 164.914 181.391C165.31 181.391 165.674 181.448 166.008 181.562C166.341 181.672 166.63 181.846 166.875 182.086C167.12 182.326 167.31 182.633 167.445 183.008C167.581 183.383 167.648 183.836 167.648 184.367V190H166.203V184.438C166.203 183.995 166.128 183.641 165.977 183.375C165.831 183.109 165.622 182.917 165.352 182.797C165.081 182.672 164.763 182.609 164.398 182.609C163.971 182.609 163.615 182.685 163.328 182.836C163.042 182.987 162.812 183.195 162.641 183.461C162.469 183.727 162.344 184.031 162.266 184.375C162.193 184.714 162.156 185.073 162.156 185.453ZM167.633 184.656L166.664 184.953C166.669 184.49 166.745 184.044 166.891 183.617C167.042 183.19 167.258 182.81 167.539 182.477C167.826 182.143 168.177 181.88 168.594 181.688C169.01 181.49 169.487 181.391 170.023 181.391C170.477 181.391 170.878 181.451 171.227 181.57C171.581 181.69 171.878 181.875 172.117 182.125C172.362 182.37 172.547 182.685 172.672 183.07C172.797 183.456 172.859 183.914 172.859 184.445V190H171.406V184.43C171.406 183.956 171.331 183.589 171.18 183.328C171.034 183.062 170.826 182.878 170.555 182.773C170.289 182.664 169.971 182.609 169.602 182.609C169.284 182.609 169.003 182.664 168.758 182.773C168.513 182.883 168.307 183.034 168.141 183.227C167.974 183.414 167.846 183.63 167.758 183.875C167.674 184.12 167.633 184.38 167.633 184.656ZM180.031 188.555V184.203C180.031 183.87 179.964 183.581 179.828 183.336C179.698 183.086 179.5 182.893 179.234 182.758C178.969 182.622 178.641 182.555 178.25 182.555C177.885 182.555 177.565 182.617 177.289 182.742C177.018 182.867 176.805 183.031 176.648 183.234C176.497 183.438 176.422 183.656 176.422 183.891H174.977C174.977 183.589 175.055 183.289 175.211 182.992C175.367 182.695 175.591 182.427 175.883 182.188C176.18 181.943 176.534 181.75 176.945 181.609C177.362 181.464 177.826 181.391 178.336 181.391C178.951 181.391 179.492 181.495 179.961 181.703C180.435 181.911 180.805 182.227 181.07 182.648C181.341 183.065 181.477 183.589 181.477 184.219V188.156C181.477 188.438 181.5 188.737 181.547 189.055C181.599 189.372 181.674 189.646 181.773 189.875V190H180.266C180.193 189.833 180.135 189.612 180.094 189.336C180.052 189.055 180.031 188.794 180.031 188.555ZM180.281 184.875L180.297 185.891H178.836C178.424 185.891 178.057 185.924 177.734 185.992C177.411 186.055 177.141 186.151 176.922 186.281C176.703 186.411 176.536 186.576 176.422 186.773C176.307 186.966 176.25 187.193 176.25 187.453C176.25 187.719 176.31 187.961 176.43 188.18C176.549 188.398 176.729 188.573 176.969 188.703C177.214 188.828 177.513 188.891 177.867 188.891C178.31 188.891 178.701 188.797 179.039 188.609C179.378 188.422 179.646 188.193 179.844 187.922C180.047 187.651 180.156 187.388 180.172 187.133L180.789 187.828C180.753 188.047 180.654 188.289 180.492 188.555C180.331 188.82 180.115 189.076 179.844 189.32C179.578 189.56 179.26 189.76 178.891 189.922C178.526 190.078 178.115 190.156 177.656 190.156C177.083 190.156 176.581 190.044 176.148 189.82C175.721 189.596 175.388 189.297 175.148 188.922C174.914 188.542 174.797 188.117 174.797 187.648C174.797 187.195 174.885 186.797 175.062 186.453C175.24 186.104 175.495 185.815 175.828 185.586C176.161 185.352 176.562 185.174 177.031 185.055C177.5 184.935 178.023 184.875 178.602 184.875H180.281ZM185.32 178V190H183.867V178H185.32ZM192.562 187.758C192.562 187.549 192.516 187.357 192.422 187.18C192.333 186.997 192.148 186.833 191.867 186.688C191.591 186.536 191.174 186.406 190.617 186.297C190.148 186.198 189.724 186.081 189.344 185.945C188.969 185.81 188.648 185.646 188.383 185.453C188.122 185.26 187.922 185.034 187.781 184.773C187.641 184.513 187.57 184.208 187.57 183.859C187.57 183.526 187.643 183.211 187.789 182.914C187.94 182.617 188.151 182.354 188.422 182.125C188.698 181.896 189.029 181.716 189.414 181.586C189.799 181.456 190.229 181.391 190.703 181.391C191.38 181.391 191.958 181.51 192.438 181.75C192.917 181.99 193.284 182.31 193.539 182.711C193.794 183.107 193.922 183.547 193.922 184.031H192.477C192.477 183.797 192.406 183.57 192.266 183.352C192.13 183.128 191.93 182.943 191.664 182.797C191.404 182.651 191.083 182.578 190.703 182.578C190.302 182.578 189.977 182.641 189.727 182.766C189.482 182.885 189.302 183.039 189.188 183.227C189.078 183.414 189.023 183.612 189.023 183.82C189.023 183.977 189.049 184.117 189.102 184.242C189.159 184.362 189.258 184.474 189.398 184.578C189.539 184.677 189.737 184.771 189.992 184.859C190.247 184.948 190.573 185.036 190.969 185.125C191.661 185.281 192.232 185.469 192.68 185.688C193.128 185.906 193.461 186.174 193.68 186.492C193.898 186.81 194.008 187.195 194.008 187.648C194.008 188.018 193.93 188.357 193.773 188.664C193.622 188.971 193.401 189.237 193.109 189.461C192.823 189.68 192.479 189.852 192.078 189.977C191.682 190.096 191.237 190.156 190.742 190.156C189.997 190.156 189.367 190.023 188.852 189.758C188.336 189.492 187.945 189.148 187.68 188.727C187.414 188.305 187.281 187.859 187.281 187.391H188.734C188.755 187.786 188.87 188.102 189.078 188.336C189.286 188.565 189.542 188.729 189.844 188.828C190.146 188.922 190.445 188.969 190.742 188.969C191.138 188.969 191.469 188.917 191.734 188.812C192.005 188.708 192.211 188.565 192.352 188.383C192.492 188.201 192.562 187.992 192.562 187.758Z" fill="#333B41"/>
<g clip-path="url(#clip0_34415_675)">
<path d="M411.394 211.615C433.149 175.615 449.657 167.462 483.446 142.846C513.069 121 513.069 86.077 495.943 65.1539C473.726 38.5385 429.6 40.3847 411.394 74.077C393.189 40.3847 349.217 38.3847 327 65.1539C309.874 86.077 309.874 121 339.497 142.846C373.286 167.462 389.794 175.615 411.394 211.615Z" fill="black"/>
</g>
<defs>
<clipPath id="clip0_34415_675">
<rect width="216" height="200" fill="white" transform="translate(300 23)"/>
</clipPath>
</defs>
</svg>
